<svg xmlns="http://www.w3.org/2000/svg" fill-rule="evenodd" stroke-linejoin="round" stroke-miterlimit="2" clip-rule="evenodd" viewBox="0 0 4096 2735">
  <path fill="none" d="M0 0h4096v2735H0z"/>
  <path fill="#140000" d="M1482.58 2735l1-4.975.849-4.2 1.083-5.363 1.927-7.412 2.322-7.395 1.249-10.431.596-7.823 1.366-8.288 1.15-6.123 2.099-6.729 1.345-5.364 1.524-8.668 1.862-11.756.945-11.747.577-41.027.127-41.325.977-44 1.569-54.603 2.89-44.996 4.664-47.668 4.572-48.931 4.988-49.634 8.375-68.85 8.582-71.149 7.512-67.482 5.816-55.251 3.601-36.788 2.512-21.391-.863-6.982-5.066-21.016-2.325-13.736-2.041-12.108-3.07-10.005-1.316-2.429-22.659-1.747-18.772-3.353-24.717-6.979-18.625-7.133-14.849-6.024-16.084-7.873-11.025-5.62-6.274-4.888-6.473-7.644-1.115-5.951-.713-5.414 1.643-6.072 5.597-8.655 3.034-8.45 4.228-9.788 1.6-6.274.311-6.764 2.899-4.733 2.049-2.631-.286-15.334-.103-5.34.874-8.13 1.899-5.01 2.599-5.06 2.441-7.502.494-7.287-.154-5.799.663-5.266-.58-8.584-1.279-7.391.392-9.165-.116-5.9 1.599-5.819 2.576-13.625-.812-8.956-.257-8.703-1.467-6.834.341-11.334.8-5.819 1.085-8.299.698-6.78-.71-6.73-.659-6.375.975-39.54.055-24.22 2.812-7.168.796-10.878.532-18.357 1.171-24.231.799-17.067 4.568-22.549 7.14-28.001 8.224-24.981 3.245-11.361 2.733-15.584 4.846-14.282 5.723-12.058 9.295-13.721 13.431-14.318 14.003-15.877 17.341-15.52 15.077-11.16 19.062-11.686 22.414-14.389 28.38-13.904 40.334-17.158 39.113-18.528 15.983-8.13 15.155-6.497 11.511-7.856 10.135-5.897 3.389 2.819 5.056 8.036 5.747 7.036 5.612 8.652 2.962 7.431 3.292 5.548 2.357 3.803-23.835 23.461-.26 2.949-1.065 66.037-.963 5.048 2.949 1.948 6.736.017 2.849-1.417 4.026 1.863 5.454 3.376 5.553 4.349 4.598 3.898 2.145 2.384-3.04 66.012-4.048 67.93-3.852 53.321-12.133 29.917-1.514 8.445 1.099 5.826-.067 11.439-5.062 11.179.21 10.507-1.401 22.49-4.251 44.093-3.018 24.23-2.402 21.239-1.429 14.739-.668 14.756-1.29 10.836-.138 19.633-.091 13.228-1.028 21.03-.862 29.254.549 26.412 5.895 32.682 9.917 42.424 10.627 37.952 14.282 26.198 17.921 61.286 7.958 27.015 6.451 24.235 10.959 22.578 17.346 15.664 15.829 7.154 24.202 4.412 18.434 1.064 22.915-.637 31.643-6.337 35.446-10.309 48.686-22.743 20.258-12.06 51.535-36.363 61.088-37.321 56.041-39.821 52.283-35.682 37.199-27.018 25.03-21.903 12.024-9.4 5.59-8.549.149-13.098-5.119-25.535-9.657-23.132-15.812-25.947-27.913-32.723-21.987-21.574-33.065-26.661-35.948-21.521-29.134-14.064-34.179-11.274-44.832-11.797-22.579-3.546-17.874-1.239-14.695-2.465-9.046-22.189-6.934-12.635-7.088-11.094-8.167-12.327-4.16-14.793-7.306-56.121-9.931-67.817-6.335-36.344-5.18-42.57-3.17-34.671 2.016-12.47 35.66-19.224 74.152-37.343 79.242-49.855 28.923-21.546 26.143-23.852 21.773-18.223 16.974-12.019 11.72-10.478 6.24-7.088 21.783-9.061 13.547-5.855 8.039-.859 3.792 3.653-.48 5.631 2.729 7.306 3.805 4.871 1.066 5.936 5.34 6.586 21.05 18.316 22.395 13.059 28.268 19.397 23.446 15.565 20.083 10.985 8.146 3.491 6.175 1.39 11.319 1.46 6.697 1.651 6.599 3.042 7.195 4.485 7.477 6.174 3.565 4.001 3.131 2.957 5.305 2.087 4.783 3.565 4.696 4.871 6.175 5.736 21.323 25.31 10.788 12.565 5.951 10.059 7.214 12.704 6.765 6.583 7.179 6.633 3.128 6.523 2.432 8.348-.27 8.784.17 9.131 3.347 6.565 1.825 5.305 1.826 5.044 1.391 7.305 2.348 4.783 3.479 6.976.957 6.243-.011 6 .171 6.436.434 4.609 3.479 6.609 1.65 7.305.06 11.152-.983 8.088-.089 6.175 2.26 10.088 1.304 7.131-.024 15.18-3.277 11.091.204 19.537-.354 9.654-.723 10.773-.353 9.131-1.321 8.784-1.232 4.522 2.903 11.595 1.391 12.533-.563 15.345-3.765 18.164-6.609 24.35-6.629 15.567-4.073 10.185-2.201 8.831-1.419 10.397-2.114 4.957-1.321 4.783 1.627 16.714-1.673 6.784-3.699 6-4.842 3.131-1.497 3.653.008 9.785-.969 6.435-.355 8.61-2.553 6.87-4.843 5.044-1.584 4.088-12.742 59.083-1.018 13.625-3.647 12.013-2.182 11.071-1.431 12.953-1.673 8.502-2.54 10.455-2.953 19.316-2.877 7.495-4.978 22.775-4.719 14.728-7.665 29.817-8.156 28.083-1.846 12.19-4.402 13.044-8.259 29.517-5.634 22.003-2.317 12.436-8.453 35.134-2.07 32.6-4.395 39.971-5.04 43.647-3.684 34.721-7.131 41.277-5.134 16.409-.63 16.263-3.499 13.798-1.681 9.127-6.923 44.052-4.043 32.98-2.058 19.89-5.899 16.085.949 11.392 1.324 34.967-1.244 44.632.146 24.263-1.26 17.339-16.107 34.508-5.549 23.742-5.562 18.879.257 6.87 5.5 16.301 2.299 10.643 1.303 6.575H1482.58"/>
</svg>
