<svg xmlns="http://www.w3.org/2000/svg" fill-rule="evenodd" stroke-linejoin="round" stroke-miterlimit="2" clip-rule="evenodd" viewBox="0 0 3299 4948">
  <path fill="none" d="M0 0h3299v4948H0z"/>
  <path d="M389.35 3684.32l-7.658-2.683-7.484.553-9.602.262-7.061-2.259-8.614-3.672-7.202-1.412-7.484-.002-10.591-1.553-10.458-6.637-5.679-8.755-1.987-10.873.131-9.179.972-9.743.693-11.297-.717-13.98-.43-7.061-4.236-4.801-1.02-8.896 4.882-8.049 5.022-3.107 6.137-2.683 8.37-.432 4.701-24.865 1.381-17.651 2.645-18.736 3.1-31.644 2.645-31.283 1.672-26.134 1.252-23.865.901-30.2 1.835-33.901 1.724-34.291-.296-24.006-.851-20.899 2.702-19.925 3.348-16.38 2.092-20.476 2.511-17.227 2.65-14.404 1.976-11.324-1.13-11.579.277-11.438 3.906-13.839 4.045-12.285 1.953-10.45.401-14.545 1.076-12.169 1.419-15.367 8.16-27.026 14.148-36.067 17.576-35.02 14.367-24.289 16.37-22.593 17.074-17.759 21.006-21.78 20.434-14.685 21.669-10.476 37.789-13.589 59.178-24.702 13.167-4.841 33.605-10.56 31.569-8.826 33.667-10.098 20.948-6.794 19.843-4.541 16.291-5.237 8.484-1.506 8.19-.439 6.954-.261 5.264-7.025 4.599-5.078 7.022-2.793 15.7-2.139 13.932-1.339 13.331-2.76 10.033-1.949 10.163-2.269 9.085-3.47 7.069-2.37 10.786.158 10.348 2.804 7.404 3.01 7.692.745 3.267 1.429-2.539 3.177-6.094 2.341-6.433 1.087-10.918-.254-5.163 2.508-5.756 3.679-7.448 4.431-6.856 4.598-3.893 5.435-.028 6.74.327 9.197 2.874 12.184 4.513 15.551 4.896 15.012 4.594 13.888 3.39 13.327 4.296 12.847 4.126 10.8 6.019 13.544 5.678 11.705 19.864 32.583 9.733 13.223 16.517 20.55 13.886 13.509 20.714 18.586 14.52 12.587 14.353 11.438 9.83 6.742 8.996 6.551 11.937 7.839 20.019 12.252 9.111 5.745 12.344 6.91 12.173 6.195 21.589 9.916 17.808 7.302 26.766 10.183 12.845 5.268 14.164 5.069 11.897 4.557 16.115 6.104 12.239 3.685 9.626 2.099 13.257 1.139 10.695.5 9.377.027 9.117.283 6.609-.163 7.297-.941 7.089-1.87 14.223-3.66 11.639-3.692 10.903-3.279 8.987-3.516 10.443-4.728 10.739-5.077 21.231-13.02 12.039-8.391 11.478-8.768 8.925-8.217 8.845-6.895 7.825-7.113 17.6-17.498 9.257-10.885 6.774-8.558 12.364-14.72 13.297-17.365 6.787-11.696 5.556-11.471 9.075-17.265 4.053-11.201 4.38-15.014 2.151-18.664 2.985-21.308 1.956-13.615.101-12.937-.185-12.873-1.216-8.408-2.263-7.477-7.525-9.813-4.445-4.203-8.528-5.982-8.49-5.316-4.729-3.273-.127-4.244 3.633-5.295 1.956-2.02 4.853.638 7.655-.087 8.29.109 5.989-.357 7.452.2 8.251 3.113 7.239 3.575 8.881 4.655 8.783 5.629 7.086 4.463 10.036 7.758 3.634 2.197 9.485 1.296 7.319 1.048 7.328.729 4.591 1.48 8.331 1.88 8.544.931 7.145.934 5.172 1.397 10.176 3.589 8.943 3.422 16.231 5.385 11.228 3.523 20.624 7.383 7.308 1.517 7.031 1.528 13.07 1.857 5.314 1.277 7.479.842 1.899.04 5.927 5.542 1.674 8.22.666 107.751.24 73.926-.081 56.7-.172 51.369-2.5 48.577-1.174 29.377-1.218 33.023-.927 12.635-2.311 5.328-6.298 3.081-13.69 8.669-15.533 11.525-12.064 10.022-8.424 11.183-7.899 11.876-7.806 14.487-4.212 12.137-1.603 15.842-1.143 13.87 1.191 12.57 1.56 10.749 2.948 7.542 3.901 7.368 5.619 13.466 8.348 14.04 18.404 25.803 9.78 21.461 9.866 16.317 10.435 22.34-2.696 6.233-.972 5.312 7.02 6.261-.581 9.867-1.344 7.589-21.128-7.683-6.339-.389-6.535 6.071 4.933 7.779-9.796 4.168-10.948-.197-6.545 5.668-2.883 5.882 18.024 5.123-2.602 6.823-13.83-1.162 5.765.485 18.521 11.848 18.974 5.502 4.914 14.61-2.629 10.678-4.54 14.831-3.375 16.67-5.47 16.785-4.19 13.068-7.838 18.944-6.364 17.937-4.772 18.739-4.756 22.724-1.75 17.143-1.164 7.473-8.729 19.314-6.606 20.184-6.75 19.781-4.423 17.475-3.491 10.807-3.725 14.026-2.328 9.428-1.28 11.496-1.164 7.588-5.237 8.623-4.322 17.236-4.655 11.842-4.54 14.486-4.306 12.876-4.086 11.957-9.384 20.431-10.707 21.844-12.07 29.946-7.333 13.221-12.104 18.165-9.427 17.13-10.618 18.572-7.333 14.026-11.522 22.994-10.634 22.19-8.962 19.889-8.496 20.12-11.183 26.588-2.56 4.829-29.859 12.435-29.043 14.14-25.415 14.62-30.633 15.122-32.244 16.083-23.844 14.585-25.338 16.719-11.318 10.34-15.247 5.863-15.363-.705-12.221 1.953-9.839 2.874-5.007 8.737-7.246 4.822s-9.078 4.599-13.268 5.173c-4.19.575-21.882 6.417-21.882 6.417l-18.872 4.136-17.109 2.185-17.804 4.608-9.427 4.024-21.389-11.772-50.472-34.306-35.532-23.127-23.26-15.717-23.922-15.395-20.637-15.553-42.138-39.4-29.975-29.011-24.862-22.054-20.058-17.932-25.395-19.007-37.859-32.336-33.34-27.382-28.541-23.55-19.28-15.231-13.501-13.501-4.914-9.241-4.627-7.419 1.719-18.156 1.256-14.441 2.216-18.818 3.564-19.436 4.713-16.644 7.587-33.075 6.809-34.764 4.022-28.864 1.822-28.943 1.055-32.672-1.514-37.757-1.529-25.256-.819-19.99-3.873-12.595-5.471-8.845-15.479-7.449-43.415-12.894-51.409-10.758-75.408-9.209-53.315-5.828-54.044-4.891-27.605-1.17-11.369-.701-2.701 7.435zM618.255 4434.08l-3.643 17.897-2.942 13.517-2.802 16.745-4.623 15.776-3.922 11.486-3.783 10.102-.981 6.366-5.183 5.95-12.889 12.178-10.169 8.964-5.463 4.282-3.923 4.705-6.444 2.906-6.725 8.026-5.272 12.619-3.928 16.883-3.695 16.76-2.662 8.442-2.385 11.901-2.038 10.167-1.823 7.335-2.102 7.888-3.362 8.995-2.382 8.165 3.045 6.781 3.736 4.013.125 9.548-.765 6.716-.016 12.178-.606 12.691-.022 9.825-1.123 7.738 9.549-15.41 4.975-14.01 1.66-9.106 5.536-7.845 8.165-6.445 8.441-6.724 6.366-7.425 5.951-7.705 6.227-6.725 6.504-9.526 4.982-7.005 5.373-9.95 9.549-10.367 11.763-6.164 9.087-5.058 16.422-5.323 14.115-5.044 11.625-5.883 8.164-8.967 9.964-7.845 10.933-4.763 12.316-5.604 11.071-4.343 10.645-5.744 10.335-3.287 13.147-5.463 14.715-3.896 13.008-5.744 9.825-5.323-12.89-8.966-14.15-6.725-14.289-7.705-16.531-8.826-23.017-17.307-23.536-15.55-20.741-16.671-16.391-11.204-10.787-9.671-11.488-8.685-5.323-2.662-2.503 3.121z"/>
</svg>
