<svg xmlns="http://www.w3.org/2000/svg" fill-rule="evenodd" stroke-linejoin="round" stroke-miterlimit="2" clip-rule="evenodd" viewBox="0 0 6016 4016">
  <path fill="none" d="M0 0h6016v4016H0z"/>
  <path d="M3751.89 0l67.018 76.767 50.094 67.694 41.971 54.833 76.787 112.482 71.263 96.502 37.667 63.424 70.402 87.326 66.341 75.818 80.373 78.936 91.388 85.295 80.632 60.925 117.721 90.577 66.04 51.632 96.127 68.372 89.056 64.494 71.305 53.712 62.279 50.094 66.341 45.356 75.517 44.862 76.946 49.225 72.492 49.785 61.602 46.709 67.695 49.417 65.17 58.276 67.795 73.244 61.235 80.156 39.263 39.939 37.232 31.817 24.37 46.032 21.662 56.187 35.97 98.112 28.39 66.979 27.755 64.31 38.586 67.695 24.37 57.54 26.401 46.71 36.53 40.148 43.324 45.356 29 28.432V4016H0V0h3751.89z"/>
</svg>
