<svg xmlns="http://www.w3.org/2000/svg" fill-rule="evenodd" stroke-linejoin="round" stroke-miterlimit="2" clip-rule="evenodd" viewBox="0 0 3478 5217">
  <path fill="none" d="M0 0h3478v5217H0z"/>
  <path d="M1448.63 3462.87l8.569 3.955 11 3.358 10.305 4.016 16.542 5.331 21.565 6.357 20.301 5.943 16.906 3.813 17.099 3.73 25.936 4.443 27.74 4.008 21.302 1.629 13.135.598 22.232.707 17.243.318 15.999-.005 22.592.315 15.459.035 8.112-2.996 5.943-5.626 4.047-5.17 7.597-8.407 4.849-5.341 3.083-3.537 1.542-2.289 4.145-4.578 8.752-8.242 8.131-8.755 7.29-7.843 5.778-8.031 9.581-15.859 4.86-7.772 3.627-3.163 5.229-1.751 11.189-2.104 14.291-3.034 18.829-4.965 18.955-4.962 15.78-5.653 8.468-2.99 8.341-3.558 5.724-1.83 1.552-1.616-.633-3.771-1.93-3.411-1.212-2.738-.989-3.276-1.032-1.571-.494-2.604.266-3.591-.047-3.546-3.661-2.771-2.629-2.723.396-4.264 1.641-5.207.31-5.611-1.257-5.835-2.154-5.027-2.649-9.754-2.729-12.452-3.646-10.726-3.312-9.077-2.643-8.234-2.032-6.874-1.364-4.225-1.167-3.95-1.078-3.007.976-5.566 1.507-5.297 2.349-10.907.532-6.508.562-13.891.04-11.401-.001-6.464-1.013-10.195-.905-9.36-1.44-15.758-1.55-16.326-1.427-14.446-1.405-11.172-.492-5.253 1.657-7.248 2.864-10.725 1.542-12.147 1.788-11.347 2.455-16.599 3.783-17.026 2.811-14.122 2.216-7.017 5.168-24.785 3.273-22.801 2.795-17.309.985-15.146-3.427-12.788-1.096-8.765-.94-8.138-2.817-6.574-1.8-4.46-.08-7.904.796-18.323-1.018-9-1.957-9.782-1.486-8.999-.017-13.225.224-7.513.232-7.278 9.997-.477 16.809 1.384 21.103 1.792 24.908 2.501 20.949 2.62 29.688 3.893 6.908 1.212.541 3.71.54 8.04.696 6.106 1.082 3.711 4.793.769 9.495-.861 11.131-1.095 12.059-2.583 14.223-2.348 10.17-1.878 9.665-2.136 12.74-3.714 6.384-2.791 4.333-2.057s.86-.79.741-2.015-.395-2.964-.395-2.964l-1.028-2.963-1.936-4.031-1.512-6.264-1.346-5.177-.751-3.477-2.956-5.483-2.061-11.598-2.677-6.447-3.201-8.693-2.599-5.909-1.462-6.006-1.321-9.468-1.551-6.942-1.265-5.571-2.602-7.153-1.108-8.377-1.235-8.599-1.383-7.845-1.878-8.479-1.896-8.091-1.947-8.544-1.623-14.889-1.264-9.289-2.489-11.285-.791-9.924-3.295-15.661-1.749-11.691-2.188-12.688-2.284-8.805-3.051-12.212-4.244-15.558-4.342-13.2-7.15-21.327-7.561-18.918-5.092-16.668-1.741-6.243-1.62-5.475-1.857-6.282-2.964-6.164-1.462-3.122-.024-4.582-1.265-1.897-.76-5.571-2.252-4.228-6.164-8.338-6.285-7.354-8.221-9.11-7.549-7.745-6.796-5.809-11.167-8.567-12.286-8.471-16.859-10.31-15.301-8.597-9.698-6.715-8.864-6.115-7.807-4.432-8.259-3.674-11.045-4.039-11.048-4.595-8.024-3.2-5.453-4.307-4.149-4.228-5.927-2.49s-5.195-2.214-6.736-2.609c-1.541-.395-8.304-2.995-8.304-2.995l-5.374-3.556-8.556-4.426-7.849-2.7-7.511-3.003-6.86-3.093-4.781-1.699-8.872-2.608-6.27-2.298-2.815.508s-5.711-1.384-6.936-1.503c-1.225-.118-11.993-2.582-11.993-2.582l-12.045-2.007-11.736-1.857-16.922-1.158-16.201-1.249-12.907-.808-12.678-1.461-13.943-2.424-14.838-1.819-14.581-.985-25.102-1.206-10.868-.597-8.443.244-6.243 1.249-4.386 2.85-6.006 2.966-5.377 2.476-8.955 3.367-5.651 2.616-4.504 1.522-4.284 3.579-3.122 2.264-3.912 1.991-5.729 2.029-8.664 4.772-7.124 3.701-6.72 4.159-4.863 2.572-7.231 3.551-11.685 4.372-10.796 4.551-12.051 5.748-10.395 4.978-11.266 6.875-9.115 5.038-6.52 4.054-5.532 3.669-11.374 4.666-11.617 4.957-9.34 3.503-10.239 3.925-9.515 4.186-5.576 2.964-4.267 2.537-4.386 2.576-3.557 2.458-9.012 7.338-7.612 7.395-4.979 4.801-4.228 4.489-1.185 2.341-.869 1.991-3.082 2.615-4.228 3.864-1.608 2.731-2.292 3.63-1.304 4.02-.791 3.864-3.082 5.113-5 7.435-6.502 7.934-5.551 9.196-4.959 8.325-5.079 8.947-3.688 8.444-1.782 6.162-1.897 5.581-2.714 8.237-2.471 6.866-1.659 5.425-1.344 5.916-1.109 5.72-.713 6.306-.91 5.881-.083 6.714.374 7.168-.317 8.392-.317 4.84-5.294 8.157-6.804 9.051-2.195 5.404s-2.568 5.23-2.885 6.44c-.316 1.21-3.657 9.345-3.657 9.345l-2.571 6.629-1.207 6.05-.929 6.468-.728 7.02-.356 5.152-.553 4.762-.598 5.131-2.331 6.089-1.62 3.826-.948 3.42-.829 4.138-1.462 6.518-3.194 13.304-1.036 8.39-.555 3.981-1.857 2.771-.082 3.279.023 2.65-.633 4.996-.355 3.591-1.028 4.177-1.462 4.567-1.305 5.265.781 5.543 2.927 5.386 3.748 4.606 4.37 5.05 2.771 2.42 4.489 1.952 4.372 1.288 5.699 1.991 5.425 2.459 5.114 1.561 6.015 1.288 7.537 1.406 6.77.713 9.559.55 9.272.152 7.82.36 8.348-.169 8.515-.766 7.013-1.009 3.708-.711-.593 8.196.103 7.101.75 5.642-.005 7.104-.081 4.918.427 7.884.833 12.539.344 9.121.935 8.353 1.195 10.947.897 10.538.739 7.182.295 9.067.075 9.445.501 6.471 1.092 11.306 1.178 7.932 1.324 10.869.615 13.674.42 22.179 1.83 10.521 2.632 12.277.897 8.371 1.783 15.27 1.301 7.33 1.117 7.997 2.333 7.304 1.912 5.035.229 3.981-1.958 6.644-2.924 6.714-3.398 8.509-3.507 8.938-2.588 11.322-2.015 8.587-1.778 8.392-1.705 10.828.031 6.477-1.304 7.104.012 4.858.115 4.567.577 5.647 5.51 7.224 2.732 3.434 1.835 3.279.779 5.074-2.094 7.768-1.274 3.8-.435 2.889-1.62 5.035-.83 4.723-.955 6.673-.761 9.641s.474 7.159.395 9.189c-.079 2.03.113 8.119.113 8.119l.074 8.118-.293 9.637-1.898 7.845-2.526 6.222-3.004 8.743-3.746 6.935-3.24 5.933-2.297 6.593-.002 5.384 2.107 8.57.451 8.428.987 9.634 1.48 7.416 2.412 10.906 2.459 7.36 1.717 7.923 2.659 9.097 1.367 4.918 1.795 6.479.794 4.281.443 6.583-.006 9.563-.205 8.994.067 4.796.585 4.645 2.654 5.933 3.869 5.876 6.423 7.606 13.89 8.885 8.982 5.354 7.837 4.857 15.002 8.492 6.48 3.045 5.933 3.201 3.899 2.011z"/>
</svg>
