<svg xmlns="http://www.w3.org/2000/svg" fill-rule="evenodd" stroke-linejoin="round" stroke-miterlimit="2" clip-rule="evenodd" viewBox="0 0 3486 4817">
  <path fill="none" d="M0 0h3486v4817H0z"/>
  <path d="M1498.91 4494.77l-57.352-24.839-45.495-22.608-27.947-14.14-32.106-15.804-40.935-20.335-27.449-15.97-26.783-14.639-37.429-19.963-28.369-10.147-11.235-3.826-15.7-28.447-28.996-51.214-19.216-33.928-13.556-22.044-15.933-27.728-12.998-20.741 19.958-25.893 4.268-7.889-.846-21.293-.963-24.491-2.041-18.501-.359-19.143 2.629-17.224-3.361-14.335-2.995-17.799 1.309-13.974 1.972-9.649-3.66-14.971-4.348-17.812-4.68-19.066 1.296-17.633-1.172-13.309-3.993-21.126-2.661-7.653-11.146 2.958-12.476 1.643-6.155-.831 10.056-27.161 5.216-26.125 6.033-26.783 5.326-27.893 3.296-21.001 4.07-32.106 4.142-35.221 5.721-31.815 1.063-18.041.855-21.872.237-16.161 1.383-22.826.299-15.206.19-14.106 1.21-12.721 1.69-9.642-.513-5.134-1.633-4.277-4.278-7.931-5.677-5.755-9.528-6.768-9.72-5.288-8.404-3.499-10.617-4.199-10.187-4.511-15.28-5.699-14.594-3.463-16.175-3.968-15.938-1.663-11.197-1.788-11.198-1.789-15.553-2.412-21.914-3.159-28.369-3.62-21.587-2.335-12.418-1.42-15.949-.08-17.46-.083-15.899-.008-16.641.457-16.928 1.951-12.597 1.382-14.792 1.843-16.747 3.782-14.775 2.381-7.621 1.46-6.377 4.378-4.259 8.953-1.79 11.369-5.11 17.659-4.36 12.95-2.177 11.693-2.411 10.831-2.333 8.68-2.877.679-7.465-4.044-8.596-4.842-5.796-4.842-6.143-5.444-6.61-6.843-7.776-5.521-2.955-3.344-3.577-6.065-2.267-10.187-.552-7.854-.933-6.377 3.061-9.487 6.896-11.309 5.124-11.046 5.44-12.697 6.596-15.038 4.148-11.354 3.534-10.886 2.458-8.399 2.435-9.488 5.941-17.972 4.112-14.233 3.227-11.198 3.303-10.575 2.458-9.098 3.303-10.11 6.564-15.108 3.847-11.807 4.379-12.364 2.765-10.265 4.225-11.898 4.071-11.197 6.261-12.16 1.613-9.565 3.455-8.165 1.765-8.942 1.998-10.809 3.624-6.661 2.305-7.699.143-12.753.994-9.02.768-10.568 1.864-10.51.919-12.131 1.306-8.631 2.304-10.032 2.653-11.02 2.562-14.754 1.306-10.654 2.94-12.298 3.219-12.908L733.1 2989l6.072-16.486 3.909-13.836 4.323-13.339 3.093-11.239 6.32-12.873 2.496-7.935 4.252-9.671 4.757-9.565 4.767-10.147 4.763-8.01 5.367-10.821 7.261-13.343 7.951-12.074 4.795-8.411 7.681-10.498 8.45-10.498 6.913-8.554 8.416-9.274 8.465-7.602 10.497-8.531 10.072-6.652 14.117-10.533 7.767-7.175 6.546-8.616 4.609-8.787 4.609-9.643 1.459-5.443 4.609-6.766 10.993-7.563 8.723-6.688 7.451-5.288 4.875-4.657 5.454-4.51 3.61-4.977 6.222-4.277 10.336-2.883 7.682-3.577 8.586-3.731 8.475-.306 9.953-2.481 9.726-2.364 8.706-.413 9.994-.388 6.538-.778 10.165-6.657 9.833-5.832 7.45-4.511 11.838-3.914 9.525-4.903 10.422-5.544 20.774-6.656 14.655-6.657 12.956-3.931 16.634-1.761 11.42-.197 9.389-.508 10.076-4.865 6.449-7.209 8.006-6.927 6.785-3.582 18.319-5.922 13.595-1.91 8.39-1.52 7.64.924 6.034-1.478 9.832-4.354 13.613-6.4 13.918-7.571 16.139-6.648 16.012-6.775 19.142-5.483 8.808.151 8.712-4.272 10.763-9.218 10.636-6.911 9.721-4.319 7.682-3.655 13.459-3.484 9.175-3.033 13.084-1.4 10.106-.623 5.06 2.29 4.651-3.111 7.784-7.56 2.611-1.4 4.302 2.074 1.536 4.609-1.944 4.84-4.199 5.991s-1.247 5.377-1.713 7.605c-.467 2.227-.623 8.987-1.479 10.984-.855 1.997-1.401 10.677-1.401 10.677l.987 24.858 1.759 14.318 2.612 11.675 3.225 14.518 7.221 18.858 5.069 9.141 20.333 30.005 17.032 14.862 11.061 10.6 11.906 8.757 15.831 9.226 24.67 15.284 14.663 7.36 17.11 7.28 15.49 7.294 25.587 7.56 16.182 1.905 14.091.573 23.581 2.77 27.049.79 20.427-.421 20.088-.189 11.599-1.477 26.252-3.696 25.357-5.947 31.21-11.263 21.703-9.654 19.113-8.527 8.68-6.221 10.617-7.43 9.448-7.231 8.219-7.31 12.293-10.125 6.837-7.621 18.262-21.844 6.787-10.318 5.985-12.087 5.782-12.37 6.751-17.611 3.917-12.131 3.763-12.639 1.942-13.745.558-12.968-1.114-12.172-4.821-9.954-6.144-6.843-9.534-9.975-5.882-4.114-7.076-7.077-4.977-8.243 1.151-3.343 9.38 3.072 12.376 4.043 9.986 4.455 8.27 5.824 7.835 5.454 5.684 4.532 4.84 2.534 7.203 1.577 5.761-.544 7.161 1.383 10.046 4.441 9.26 4.071 36.946 18.247 10.718 5.935 20.934 7.754 22.167 8.849 20.612 8.456 17.607 7.608 14.774 6.123 34.827 17.177 18.589 8.324 22.667 10.394 18.996 9.897 40.496 18.768 22.255 12.253 29.369 14.507 17.59 11.289 18.98 10.286 16.319 7.971 14.364 8.903 19.553 10.926 10.754 7.22 15.713 8.267 17.325 9.839 14.204 8.818 10.996 8.546 4.609 5.531 6.054 10.199 8.407 11.907 18.01 22.313 11.006 17.18 12.451 15.135 15.029 18.927 13.295 19.304 16.192 26.632 5.685 16.524 8.837 16.402 10.442 27.278 6.681 17.949 11.275 23.53 5.377 15.209 7.59 18.431 7.329 17.222 15.19 32.398 10.325 26.354 7.757 20.714 8.934 19.673 4.881 14.655 5.851 16.361 8.662 20.498 4.997 15.662 7.272 21.43 5.23 16.123 3.075 18.239 4.077 12.008 2.918 15.55 6.131 17.77 3.094 20.671 6.726 19.794 4.05 20.893 6.228 18.298 5.483 25.494 1.613 11.565 2.919 9.601 6.745 12.111 2.072 12.136 3.861 11.258 3.84 11.138 3.289 9.926 2.305 11.983-.238 11.061-1.711 8.142-9.068 7.877-8.488 6.107-15.067 5.23-22.365 9.009-13.297 5.223-9.098 2.074-2.878-8.243-3.774-14.636-3.329-12.59-3.969-11.416-19.798.428-15.092 2.147-16.048.845-17.574 1.993-23.785 2.975s-14.936.461-19.835 1.229c-4.899.768-17.108 2.842-19.829 2.996-2.722.153-14.387 1.459-16.642 1.766-2.255.308-17.191 1.766-17.191 1.766s-13.297 1.304-16.019 1.688c-2.722.384-16.88 2.689-16.88 2.689l-15.826 2.653-42.918 8.427-16.486 3.532-23.169 5.314-19.737 4.559-20.527 6.36-19.756 6.434-10.27 5.035-9.385 6.033-2.955 5.915.12 10.682-.003 14.185-3.577 8.296-3.862 21.147-3.603 8.827-2.877 14.945-3.966 13.954-7.006 18.781-3.811 10.216-2.976 12.854-2.48 8.808s.541 2.688.308 5.146c-.234 2.459-.703 16.149-.703 16.149l-.896 15.733-.86 9.525-1.346 16.114-1.017 20.557-.003 14.595-1.297 21.279-.778 9.115-2.333 12.598-3.733 6.606.802 11.619-1.088 10.6-2.411 8.45-1.4 5.53 1.077 16.481 1.229 8.757-.625 11.599-3.935 14.706-1.965 7.57-1.668 6.545-1.556 7.451-2.964 13.672-2.221 6.243 1.235 8.747s.154 1.46.692 3.688c.537 2.227 6.452 12.136 6.452 12.136l12.674 16.895 17.91 28.39 10.634 16.566 12.169 16.021 11.693 20.616 4.126 10.806 1.381 7.988 2.074 5.07-9.744 18.018-23.803 38.465-26.692 42.574-30.695 49.536-29.311 55.636-16.316 42.698-14.862 36.646-11.244 34.616-8.9 27.792-11.514 30.449-7.321 13.041s-12.795 3.917-15.205 4.455c-2.411.538-22.516 4.93-22.516 4.93l-12.806 1.151-12.795-.083-8.32-.469-13.249-1.812s-20.084-2.961-22.805-3.272c-2.722-.311-22.189-3.412-24.755-3.879-2.567-.466-28.149-3.992-28.149-3.992l-16.294-3.443s-11.954 1.127-14.287 1.588c-2.333.461-14.402 4.629-14.402 4.629s-19.242 2.66-22.005 3.351c-2.764.691-22.715 4.58-22.715 4.58s-13.297 4.068-16.796 4.836c-3.5.768-18.623 5.634-18.623 5.634s-10.671 4.092-12.615 4.937c-1.944.845-9.371 2.813-12.637 2.113-3.266-.7-17.622-1.479-17.622-1.479l-7.31 3.534s-.078 3.149-2.333 3.61c-2.255.461-16.61 5.303-16.61 5.303s-19.241.87-21.346.792c-2.106-.078-15.712-.079-18.864-.312-3.153-.233-13.381.23-17.269-.158-3.889-.389-20.181-2.199-20.181-2.199s-9.487-1.322-12.986-1.322c-3.499 0-21.989-.295-24.244-.372-2.255-.078-10.109-1.089-14.697-1.322-4.588-.234-12.835-1.152-17.967-2.162-5.132-1.011-18.088-4.532-20.888-5.465-2.799-.933-12.364-3.655-15.397-4.665-3.033-1.011-10.887-3.422-13.764-4.433-2.877-1.011-17.703-10.989-17.703-10.989l-14.822-7.875-17.865-6.803s-14.881-3.966-18.536-5.288c-3.655-1.322-9.834-3.167-15.169-5.288-5.336-2.12-23.538-10.135-25.404-11.301-1.866-1.167-18.984-7.57-18.984-7.57l-15.294-7.605-17.984-7.757-16.239-8.892-10.079-4.474-8.897-3.847z"/>
</svg>
