<svg xmlns="http://www.w3.org/2000/svg" fill-rule="evenodd" stroke-linejoin="round" stroke-miterlimit="2" clip-rule="evenodd" viewBox="0 0 3000 3000">
  <path fill="none" d="M0 0h3000v3000H0z"/>
  <path d="M507.991 2786.61l1.371-10.694 1.451-8.245 2.173-10.123.874-10.694-.475-13.171 2.576-10.449 2.258-7.102 5.403-9.551 4.919-6.939 3.709-6.776 2.823-4.816-.789-14.363.067-14.449 1.284-11.674 5.043-19.394 2.417-15.365 2.258-12.898 2.087-12.779 1.309-14.792-.541-35.982 3.466-16.943.484-14.286.724-16.98-.317-25.632.797-24.946 1.251-21.757-.092-17.47.952-22.377-.987-19.166.017-23.876-.574-18.841-.035-33.163-.622-29.341-1.289-26.82 1.053-27.891-.166-21.713 1.574-13.292 1.951-14.537 1.486-38.936.991-25.302 1.207-11.266 2.718-18.834 1.303-18.983.413-29.604-.984-15.021-1.633-12.49-.332-25.816-.542-22.051.332-35.5-.395-24.491-1.095-26.696-1.489-28.994-1.573-23.457-2.375-24.498 2.006-23.674 1.129-15.511-.329-17.481-1.8-12.001-.445-25.5-.995-19.698 1.369-24.49.401-13.356.388-16.408s2.028-22.681 1.947-22.762c-.082-.082.811-29.541.811-29.541l-.986-18.497-2.204-20.463-1.803-19.807.097-22.477.626-15.829 1.855-14.694 2.338-14.286 1.854-14.041 1.846-16.409.264-20.057 2.44-26.787 4.455-27.541 4.544-24.032 4.533-21.515 4.296-15.277 3.73-21.568-.262-16.704-1.877-8-4.245-5.306-3.674-3.266-4.898 4.677-4.408 7.661-5.225 6.693-4.898 6.693-5.959 6.451-7.755 5.645-12.295 8.624-8.817 6.774-7.962 9.295-6.167 6.699-5.796 6.451-4.816 4.758-5.959 4.919-7.429 2.258-4.735 5.238-6.123 7.253-6.858 7.016-6.367 2.258-6.857-.166-12.17-11.755-10.694-8.735-7.287-10.085-2.788-13.061-9.388-9.062-17.224-20.364-10.918-17.572-9.736-14.411-12.461-13.422-17.299-17.902-15.51-16.835-25.284-29.295-28.079-31.207-31.706-34.611-17.201-18.332-17.072-24.2-19.684-25.5-24.227-31.825-20.444-27.825-20.365-29.222-15.993-23.168-15.94-23.706-15.622-20.876-10.764-12.653L63 812.656l9.271-9.38 23.427-19.792 17.939-14.354 17.315-11.12 18.117-8.65 26.267-11.746 22.733-16.931 19.019-15.86 19.852-11.838 15.241-9.469 21.74-14.605 23.555-14.805 23.255-17.151 30.323-23.27 21.354-15.563 8.36-5.943 11.893-11.24L408.571 568l8.306-8.408 8.291-14.059 8.592-8.986 15.069-12.406 16.238-10.773 12.162-11.397 8.539-12.912 10.78-11.951 9.231-9.926 12.206-12.526 12.359-11.295 18.484-14.327 12.499-7.366 9.354-9.633 10.851-12.43 11.7-14.28 10.633-12.347 8.467-7.919 12.991-6.966 12.491-6.135L690 329.502l47.371-26.201 28.998-15.955 42.524-20.617 35.086-14.62 43.187-18.352 41.745-14.665 34.474-13.528 38.4-14.129 24.851-9.024 11.252-3.265 14.123-3.458 8.853-4.148 18.858-11.815 11.236-6.21 8.642-.192 5.321.885 9.283-1.633 9.533-5.72 12.768-6.505 16.759-6.212 8.225-3.102 8.306-.492 6.854 2.258 3.871 3.225 8.305 6.532 40.775 22.045 11.047 5 18.171 7.548 14.846 4.412 21.755 7.622 25.894 5.584 26.028 5.234 40.504 6.532 23.349 1.389 18.511 1.232 48.573.407 40.552-2.28 41.31-4.99 34.927-4.964 39.222-8.538 45.569-13.008 35.199-12.448 32.666-12.584 18.508-8.012 14.13-5.736 18.256-4.504 10.241-2.64 10.349.965 16.364 7.491 15.546 8.598 12.49 5.351 9.73 2.178 12.329-.843 24.904 11.625 21.226 9.976 25.581 11.829 27.936 12.53 13.251 2.666 18.249 2.879 17.886 4.754 28.624 12.212 16.737 6.742 45.795 17.705 25.735 8.66 30.37 10.412 20.271 7.391 22.077 9.036 20.84 12.546 35.636 24.22 15.975 11.172 22.392 13.849 12.177 7.741 15.814 8.377 27.725 23.776 25.809 25.86 12.162 12.243 35.263 31.243 27.461 28.695 30.174 33.765 12.238 15.401 15.537 13.087 35.905 34.328 43.45 45.565 31.59 32.8 38.412 38.516 30.302 28.401 30.409 24.281 18.632 19.935 27.404 26.054 27.079 20.203 23.325 13.587 18.755 14.586 8.915 13.188 12.411 17.027 10.3 11.106.987 14.478-8.49 6.128-10.031 9.626-28.973 30.091-52.78 58.617-55.282 58.745-61.927 70.918-37.348 40.025-17.226 25.849-15.173 25.848-14.321 21.016-14.673 24.403-11.855 28.372-7.437 21.279-6.646 6.36-7.551 4.362-7.673.077-15.919-5.225-14.069-4.204-22.257-11.111-22.396-12.173-19.962-11.839-21.958-12.619-9.485-7.802-7.554-9.067-10.562-10.557-7.103-5.878-6.449-2.612-17.847 3.551-14.227.901-2.123 3.226 1.855 6.37 3.145 7.499 1.309 12.392-.831 17.857 1.907 27.475 1.893 30.25 1.047 11.057-1.613 22.211-3.098 7.983 1.172 14.97 4.948 26.288 7.311 38.236 3.234 39.06 2.545 31.218 3.104 37.469 1.67 45.618 1.271 36.286 1.784 46.753 1.574 55.17.468 60.781.051 58.537-2.216 55.734-1.558 43.616 2.851 22.438.075 11.935-1.633 12.983 1.669 20.76 4.004 32.85 4.714 49.762.099 32.649.003 29.775.751 42.577 1.794 47.442 2.373 46.467 2.95 57.832 2.676 55.6.088 51.269.262 56.975 5.224 78.616 3.821 65.2 5.815 33.65-2.685 25.052-4.342 21.732-2.939 10.564-3.755 8.386-11.837 4.194s-7.554.504-11.309.015c-3.756-.49-11.146-1.982-11.146-1.982l-34.271 3.694-30.467 5.556-30.587.232-25.552-.095-22.29.318-18.127.158-15.1.565-9.287 1.092s-38.043.495-41.309.817c-3.265.323-74.232 1.723-74.232 1.723l-39.424 1.611s-51.757.369-54.532.611c-2.776.241-32.899-.701-32.899-.701s-50.807 4.066-53.093 3.74c-2.286-.327-2.694-.327-2.694-.327s-41.558-.62-45.558-.297c-4 .322-55.334.225-57.783.225l-64.708.009-23.301-.294-16.615 1.369s-19.718-1.105-22.086-1.105c-2.367 0-17.7-.698-20.966-1.106-3.265-.408-14.146-1.389-14.146-1.389l-20.181-1.301s-14.945 2.421-17.802 2.258c-2.857-.164-51.584.43-51.584.43l-36.564-.931-25.109-.212-28.61.304-24-.889-17.074-2.227-9.129-.819-40.765-1.762-47.837-1.382-26.466-2.266-20.22-.742-18.467 2.338-39.897 2.769-54.473 2.085-53.709-.354-61.499-.553-103.647.314-105.994-1.006-89.323.015-32.038-2.515-15.723-1.981s-15.648 1.393-18.832 1.634c-3.183.242-14.592 1.253-18.592 1.414-4.001.161-29.114-.29-29.114-.29l-24.49-2.275-32.372-2.682-21.064-3.947-16.405-2.477-4.587-6.671z"/>
</svg>
