<svg xmlns="http://www.w3.org/2000/svg" fill-rule="evenodd" stroke-linejoin="round" stroke-miterlimit="2" clip-rule="evenodd" viewBox="0 0 3000 3000">
  <path fill="none" d="M0 0h3000v3000H0z"/>
  <path fill="coral" d="M567.123 2703.58l1.289-10.065 1.366-7.76 2.043-9.528.823-10.065-.447-12.396 2.424-9.834 2.124-6.684 5.083-8.99 4.628-6.53 3.49-6.377 2.655-4.534-.742-13.517.063-13.599 1.208-10.987 4.744-18.253 2.274-14.462 2.124-12.139 1.964-12.027 1.232-13.922-.51-33.865 3.261-15.946.456-13.445.681-15.981-.298-24.125.749-23.478 1.177-20.477-.087-16.442.897-21.061-.93-18.039.016-22.47-.539-17.733-.033-31.212-.585-27.615-1.213-25.242.991-26.25-.157-20.435 1.481-12.511 1.836-13.682 1.397-36.645.933-23.814 1.135-10.602 2.557-17.726 1.226-17.866.389-27.863-.926-14.137-1.536-11.755-.312-24.298-.51-20.754.312-33.411-.372-23.05-1.03-25.125-1.4-27.289-1.48-22.077-2.235-23.057 1.887-22.281 1.063-14.598-.31-16.453-1.694-11.294-.419-24.001-.935-18.539 1.288-23.048.377-12.571.365-15.443s1.908-21.346 1.831-21.423c-.076-.077.764-27.802.764-27.802l-.927-17.409-2.074-19.259-1.696-18.642.091-21.155.589-14.898 1.745-13.829 2.2-13.446 1.744-13.215 1.736-15.443.248-18.877 2.296-25.211 4.191-25.921 4.276-22.618 4.264-20.249 4.041-14.379 3.51-20.298-.247-15.722-1.766-7.529-3.994-4.994-3.456-3.074-4.608 4.402-4.147 7.21-4.915 6.299-4.608 6.3-5.607 6.071-7.296 5.313-11.567 8.117-8.294 6.375-7.491 8.749-5.801 6.304-5.453 6.072-4.532 4.478-5.606 4.629-6.989 2.125-4.454 4.93-5.761 6.827-6.452 6.602-5.99 2.125-6.451-.155-11.449-11.064-10.061-8.221-6.856-9.491-2.623-12.293-8.832-8.529-16.204-19.166-10.271-16.538-9.16-13.564-11.724-12.632-16.274-16.848-14.592-15.846-23.787-27.571-26.417-29.371-29.828-32.575-16.183-17.253-16.061-22.776-18.518-24-22.793-29.953-19.233-26.188-19.16-27.502-15.045-21.805-14.997-22.311-14.697-19.649-10.127-11.909-2.404-8.773 8.722-8.829 22.04-18.628 16.877-13.509 16.289-10.466 17.045-8.141 24.712-11.055 21.387-15.935 17.893-14.926 18.676-11.142 14.339-8.912 20.452-13.746 22.161-13.934 21.878-16.142 28.528-21.901 20.09-14.647 7.864-5.594 11.189-10.578 14.968-12.178 7.814-7.914 7.8-13.232 8.083-8.457 14.177-11.676 15.277-10.139 11.442-10.727 8.033-12.152 10.142-11.248 8.684-9.342 11.484-11.789 11.627-10.631 17.39-13.484 11.759-6.933 8.8-9.066 10.208-11.699 11.008-13.44 10.003-11.62 7.965-7.453 12.223-6.557 11.75-5.773 49.097-21.135 44.566-24.66 27.281-15.016 40.007-19.404 33.008-13.76 40.63-17.272 39.273-13.802 32.433-12.733 36.127-13.297 23.379-8.493 10.587-3.073 13.286-3.255 8.328-3.904 17.742-11.12 10.571-5.845 8.13-.18 5.006.833 8.733-1.537 8.969-5.384 12.012-6.122 15.767-5.847 7.738-2.919 7.814-.463 6.448 2.125 3.642 3.036 7.814 6.147 38.36 20.748 10.393 4.706 17.095 7.104 13.967 4.153 20.467 7.173 24.361 5.256 24.487 4.925 38.106 6.149 21.966 1.307 17.416 1.159 45.696.383 38.151-2.146 38.864-4.696 32.859-4.673 36.9-8.035 42.871-12.242 33.115-11.716 30.732-11.844 17.412-7.54 13.293-5.399 17.175-4.239 9.635-2.485 9.736.908 15.396 7.051 14.625 8.092 11.75 5.037 9.155 2.049 11.598-.794 23.43 10.942 19.969 9.388 24.066 11.134 26.282 11.792 12.467 2.51 17.169 2.709 16.827 4.475 26.929 11.493 15.746 6.345 43.083 16.664 24.211 8.151 28.572 9.799 19.071 6.956 20.77 8.505 19.606 11.808 33.526 22.794 15.03 10.515 21.066 13.034 11.455 7.286 14.878 7.885 26.083 22.376 24.281 24.339 11.443 11.523 33.174 29.405 25.835 27.006 28.388 31.78 11.513 14.494 14.617 12.317 33.78 32.309 40.876 42.884 29.721 30.87 36.137 36.251 28.508 26.73 28.609 22.852 17.528 18.762 25.782 24.522 25.476 19.014 21.944 12.787 17.644 13.728 8.387 12.412 11.677 16.026 9.69 10.452.928 13.626-7.987 5.768-9.437 9.06-27.258 28.321-49.655 55.168-52.009 55.289-58.26 66.746-35.136 37.67-16.207 24.328-14.275 24.328-13.473 19.779-13.803 22.967-11.153 26.703-6.998 20.028-6.252 5.985-7.104 4.106-7.219.072-14.976-4.917-13.236-3.957-20.939-10.458-21.07-11.457-18.781-11.142-20.657-11.876-8.923-7.344-7.107-8.533-9.937-9.936-6.682-5.532-6.067-2.459-16.791 3.343-13.385.848-1.996 3.035 1.744 5.996 2.959 7.058 1.232 11.663-.782 16.806 1.794 25.859 1.781 28.47.985 10.407-1.517 20.904-2.915 7.513 1.102 14.089 4.655 24.742 6.879 35.986 3.042 36.763 2.395 29.381 2.92 35.264 1.571 42.934 1.196 34.152 1.678 44.002 1.481 51.925.44 57.205.048 55.093-2.085 52.455-1.466 41.05 2.682 21.118.071 11.233-1.536 12.219 1.57 19.539 3.767 30.917 4.435 46.834.093 30.728.003 28.024.706 40.073 1.689 44.65 2.231 43.733 2.776 54.43 2.517 52.329.084 48.253.246 53.623 4.914 73.99 3.595 61.365 5.47 31.67-2.526 23.578-4.084 20.454-2.765 9.942-3.533 7.893-11.136 3.947s-7.107.475-10.64.014c-3.532-.461-10.486-1.865-10.486-1.865l-32.241 3.477-28.664 5.229-28.776.218-24.038-.089-20.971.299-17.053.149-14.206.531-8.737 1.028s-35.791.466-38.863.769c-3.072.304-69.837 1.621-69.837 1.621l-37.09 1.517s-48.692.347-51.304.575c-2.611.227-30.95-.66-30.95-.66s-47.8 3.828-49.95 3.52c-2.15-.307-2.534-.307-2.534-.307s-39.098-.584-42.861-.28c-3.763.303-52.058.211-54.362.211l-60.877.009-21.921-.277-15.631 1.289s-18.551-1.04-20.778-1.04c-2.227 0-16.653-.657-19.725-1.041-3.072-.384-13.309-1.307-13.309-1.307l-18.985-1.225s-14.061 2.279-16.749 2.125c-2.688-.154-48.529.405-48.529.405l-34.4-.876-23.622-.2-26.915.286-22.58-.837-16.063-2.095-8.588-.771-38.352-1.658-45.004-1.301-24.9-2.132-19.022-.699-17.374 2.201-37.535 2.605-51.248 1.962-50.528-.332-57.858-.521-97.51.296-99.719-.947-84.034.014-30.14-2.367-14.793-1.865s-14.721 1.311-17.717 1.539c-2.995.227-13.728 1.178-17.491 1.33-3.764.152-27.39-.272-27.39-.272l-23.041-2.142-30.455-2.525-19.816-3.714-15.434-2.331-4.315-6.278z"/>
</svg>
