<svg xmlns="http://www.w3.org/2000/svg" fill-rule="evenodd" stroke-linejoin="round" stroke-miterlimit="2" clip-rule="evenodd" viewBox="0 0 3000 3000">
  <path fill="none" d="M0 0h3000v3000H0z"/>
  <path d="M600.317 2814.55l-.885-19.415-.54-13.468-1.399-9.795-1.574-11.719-.206-19.497-.316-10.619.057-10.062.804-26.422.839-19.883.189-22.192 1.767-29.563 1.295-13.006 1.263-25.539 2.819-36.442 1.659-25.558 2.73-35.919.435-16.758.088-15.924 1.922-25.351.048-20.315 1.037-22.606.637-25.712-.601-18.169-.883-10.807-.235-16.498.239-10.434.883-11.011 1.209-18.313-.881-16.446-.867-13.366-.436-9.755-.088-22.259.237-19.309-.746-13.901.563-18.545 1.686-28.436-.014-13.397-.597-12.919-1.874-11.429s-1.427-8.582-1.55-10.372c-.124-1.79-1.111-9.754-1.111-9.754l-.618-7.346-.994-14.793-.379-8.766-.126-6.235.731-10.542s.487-6.544.792-8.581c.305-2.037 1.586-7.779 1.586-7.779l.06-10.557s.551-12.053.856-13.72c.305-1.667-.717-13.1-.717-13.1l-1.913-12.594-1.003-14.695-.867-14.602-.315-13.002.173-13.966s.06-13.592.304-15.321c.244-1.729 1.89-14.878 1.89-14.878l1.768-10.865.24-19.935.643-19.163 1.176-18.193.265-26.01-1.579-15.697-1.79-10.927-.805-11.606-.568-29.427-1.668-11.924-1.383-9.72-.684-15.384s.181-12.528.181-14.38c0-1.852.119-13.586.119-13.586s.366-7.593.853-9.322c.488-1.729 1.407-12.749 1.407-12.749l2.289-14.6 2.277-14.596 1.154-14.817-.032-24.966.671-13.007 2.887-16.809 5.335-23.687 3.657-16.977 1.089-18.274s-.988-9.872-1.128-11.633c-.14-1.762-2.997-12.612-2.997-12.612l-.802-14.076-1.146-16.799-.142-20.429 3.287-16.236 2.575-13.36 6.077-15.926 6.059-13.32 6.325-12.592 5.672-10.874 9.856-15.294 4.33-8.087 5.777-8.813-.313-10.319-5.185-5.804-6.174-.185-4.754-1.42-7.099-4.198-7.038-3.89-7.408-4.136-6.359-2.778-7.84-.866-5.803-.063-5.742 8.172-7.223 10.733-5.927 9.086-6.56 10.523-11.121 14.989-8.952 9.879-10.066 10.334-14.076 12.623-13.178 10.986-5.309 4.33-7.1 5.489-7.778 5.366-6.112 3.964-3.025 3.11-5.927 2.073-8.025.11-3.457-1.729-4.816-5.186-5.618-6.173-12.912-13.208-7.237-6.928-6.861-6.536-4.858-8.58-3.58-7.531-4.231-8.159-9.466-17.041-8.476-16.56-11.474-15.9-13.758-16.615-16.213-21.659-13.796-19.756-18.008-24.966-13.447-17.455-19.278-23.222-20.421-24.047-24.01-33.004-20.658-26.721-18.941-22.649-18.507-22.83-11.144-12.947-8.845-8.423-9.99-6.863-5.668-6.593-7.223-7.656-6.762-9.388-7.424-10.839-10.102-14.261-8.769-11.687-7.425-9.041-8.896-9.224-6.947-6.306-4.524-5.807 1.497-7.878 5.534-7.472 6.924-9.516 16.316-15.086 11.126-8.911 11.437-9.137 24.373-17.117 8.476-7.717 12.149-10.499 10.489-9.137 20.25-19.16 9.696-8.272 9.657-8.888 9.71-6.117 7.657-9.277 12.36-11.806 7.182-9.446 10.212-6.845 7.955-4.354 11.393-7.134 8.076-5.1 5.773-4.31 5.359-7.851 2.623-6.359 2.866-6.42 2.805-6.236 2.988-3.642 3.781-3.334 22.642-19.763 7.62-7.408 7.833-9.188 7.669-8.533 9.587-9.063 9.12-9.082 16.797-16.695 9.337-7.795 12.078-10.982 13.975-10.879 31.725-30.32 17.504-18.91 21.217-25.159 26.273-26.049 20.112-21.545 21.927-23.837 10.832-9.781 16.418-13.504 10.293-7.908 10.762-11.878 11.16-6.544 33.786-16.413 39.18-20.825 48.605-23.984 48.766-21.07 40.373-11.427 33.966-8.423 34.05-16.8 44.763-15.409 22.753-8.182 19.507-9.223 21.106-9.933 24.903-15.663 12.513-6.266 6.278-2.161 8.558-1.543 9.94-4.034 9.113-4.865 7.487-4.083 6.424-3.664 10.02-7.848 5.306-5.803 4.025-2.901 7.379 1.804 8.354 4.596 5.705 4.956 7.847 4.822 8.896 5.832 11.314 3.385 15.842 6.724 14.982 7.853 47.536 18.016 23.024 8.209 18.64 7.072s16.248 4.606 17.773 5.398c1.524.793 36.326 7.757 36.326 7.757l15.659 2.045s26.216 3.445 27.93 3.828c1.714.382 29.881 3.96 29.881 3.96l19.29.344 44.321-.594 33.689-1.292 48.508-4.295 22.862-3.518 65.154-14.419 25.565-7.581 21.12-7.7 14.86-7.345 12.634-7.798 15.858-9.688 12.33-9.347 7.994-7.565 4.513-4.26 13.412 5.124 11.289 5.078 11.011 3.26 9.73 4.346 10.251 2.771 9.114 1.608 5.156-2.425 4.574-1.728 8.978 3.959 2.744 4.147 30.833 11.434 11.255 6.419 11.085 4.363 23.95 10.08 6.22 3.11 14.485 2.823 10.936 1.707 9.778.966 10.475 3.038s4.296 2.295 5.638 3.454c1.341 1.158 16.342 7.205 16.342 7.205l10.889 4.207 36.482 16.016 16.79 5.907 14.331 5.198 17.436 6.133 19.371 9.593 8.842 4.451 9.94 7.196 9.974 6.891 11.987 9.495 13.416 12.251 13.111 8.675 10.028 6.414 16.936 11.008 17.366 9.563 33.386 18.166 10.733 5.916 10.015 5.775 9.879 3.891 7.697 2.943s6.071 3.476 7.291 5.245c1.219 1.768 5.966 9.268 5.966 9.268l5.428 6.586 9.297 12.236 16.646 17.902 6.586 7.439 12 14.602 7.032 10.76 7.274 12.23 6.691 12.792 5.718 10.346 5.123 5.367 14.122 9.499 10.306 4.33 12.122 6.635 9.208 4.208 16.638 12.93 7.196 7.988 8.598 7.196 9.469 9.697 27.839 25.615 23.64 22.314 14.205 13.439 18.813 16.317 24.634 21.964 16.804 13.546 14.16 10.28 18.135 10.554 8.415 5.733 12.299 13.928 9.281 9.557 12.491 13.502 11.867 10.551 18.463 15.854 27.809 24.649 21.768 16.594 7.047 5.017 8.395 3.98 6.79 2.212 9.045 5.982 10.341 9.532 10.856 10.841 11.629 13.402 4.59 5.888 5.855 5.488-2.408 4.452-8.068 14.493-16.234 23.708-15.126 18.295-14.987 18.159-22.773 29.449-18.394 25.981-22.631 30.41-16.587 22.748-17.346 19.271-16.241 18.325-16.487 19.773-16.98 21.679-16.949 22.141-10.329 14.753-10.898 11.054-12.566 13.179-16.152 17.768-17.267 21.366-19.059 25.89-21.688 25.54-9.693 13.173-14.843 19.092-14.132 17.41-8.072 11.682-7.299 7.712-7.099 6.342-8.149 3.476-6.729 1.098-8.154-3.151-10.167-8.17-7.721-6.392-10.281-8.659-5.618-6.729-11.267-17.139-7.872-11.205-9.357-10.363-10.235-10.858-15.374-31.356-4.532-9.294-5.698-11.433-5.618-7.408-4.327-.375-6.112 4.818-4.136 4.207-1.235 4.147 3.188 8.45 4.878 11.403 3.361 9.066 5.321 12.826 4.674 11.6 4.213 10.882 3.476 9.026 3.666 8.964 7.984 21.97 3.784 15.484 8.756 41.851 3.11 21.682 1.97 14.304 1.976 14.371-2.284 13.213-1.055 13.483 1.463 14.087 1.162 19.135 1.209 13.975 3.056 20.457 1.275 12.793 1.723 12.63-1.128 23.858.451 15.817.608 10.828-.373 11.525 1.86 11.98s.043 12.905-.266 14.917c-.309 2.012-.768 24.623-.768 24.623l-2.108 13.481-.991 13.233-.287 14.643-.802 18.459-.962 28.503.643 51.909-.174 83.356-.627 58.718-.202 61.271.771 78.527 1.024 31.241 2.651 26.911.471 24.909-.661 50.011 1.347 65.925-1.139 47.55.459 19.962 3.949 46.724.251 33.998-.465 50.377 2.086 40.99 3.389 30.373.548 21.113.556 26.801 5.887 30.698 4.563 25.031 2.134 12.501.06 8.294 1.463 8.111 7.192 21.742 4.39 16.526 3.225 15.503.727 13.904.035 16.167s-32.751 9.372-31.021 8.056c1.73-1.316-18.666 2.584-18.666 2.584l-23.804.636-27.853.206-29.067-2.637-25.692-1.096-27.498 3.41-42.023 1.992-29.388-2.851-22.37-1.102-36.845.212-32.711-.878-29.169-1.096-29.388 3.249-37.835 2.052s-26.772-.442-32.694-1.1c-5.921-.657-39.477-.879-39.477-.879l-29.169 4.549-31.56 1.672-20.733-.658-27.222.216-13.935 1.3-38.995 6.499-41.365 4.328-38.413 1.728-36.422 3.463-21.493 3.9-35.781-2.196-47.96 1.498-39.043 2.383-25.361 1.3-20.835 1.069-38.867 6.609-40.59-.026-34.818-2.413-24.039-2.749-27.824.366-22.589 3.9-30.266-2.413-29.827-.66-37.283-1.316-23.906-1.1-23.21.648-19.198 3.899-22.903-.323-37.535-2.876-19.519-3.073-38.26 3.119-25.221 1.083-23.467-.452-18.203-2.193-18.642.211-35.529-.88-26.537 1.517-20.835-1.755-19.3 1.514-32.237 1.361-12.723-2.631-20.177 1.297-23.365-2.415-26.537-1.097-21.493-1.535-28.073.861-24.344-2.412-17.67-5.438z"/>
</svg>
