<svg xmlns="http://www.w3.org/2000/svg" fill-rule="evenodd" stroke-linejoin="round" stroke-miterlimit="2" clip-rule="evenodd" viewBox="0 0 2624 3936">
  <path fill="none" d="M0 0h2624v3936H0z"/>
  <path d="M868.189 3326.05l-4.013-8.094-4.965-6.801-4.352-7.073-5.944-13.951-2.38-5.781s-6.561-3.469-10.27-4.557a67319.38 67319.38 0 0 0-16.019-4.693l-14.497-2.176-17.127-.413-21.4 3.077-17.547 4.098-15.903 3.683-16.119 3.324-18.295 4.971-18.227 4.971-16.962 4.061-21.802 1.571-13.063 1.337-12.174 2.217-13.195-1.428-13.162-1.904-11.949-.556-12.991-.884-10.539-1.549-3.945-3.673-1.568-5.237-.351-10.202.201-5.576.532-7.346.287-23.354-.098-14.424.668-20.39.397-10.133.396-15.575-.922-27.945-.009-14.895.644-23.366-.303-23.6.325-20.576.133-9.422.328-21.281 1.751-29.449.531-20.131-.275-12.446.391-25.43.379-45.084.511-31.574.037-27.55 2.083-15.815 3.114-20.531 1.784-26.262-.045-13.403 1.898-20.962 2.217-18.075 3.504-26.044 2.4-16.411 3.842-25.006 4.482-26.529 5.44-29.522 7.486-31.041 7.863-30.374 10.765-28.289 8.98-23.498 5.822-20.829 5.16-5.727 2.082-6.707.198-9.998 3.493-8.161 12.46-16.581 11.732-13.382 13.53-18.604 11.048-11.726 8.371-10.386 16.525-17.088 14.616-11.318 16.594-10.882 20.852-12.849 12.66-8.103 23.323-14.895 16.151-8.544 23.177-15.213 41.392-32.308 24.245-18.961 17.893-13.61 20.787-13.477 22.327-10.477 25.992-12.915 9.943-9.181 8.734-8.706 13.511-8.334 14.782-8.107 11.234-6.619 12.954-8.588 13.588-7.833 11.219-2.727 5.24.534-1.564 3.493-6.915 4.196-3.672 5.778.4 5.509 2.822 5.979 2.62 3.896 4.538 4.502 18.668 20.978 6.987 7.323 13.746 15.588 23.127 22.32 18.482 15.622 27.377 22.012 30.372 20.373 16.064 9.379 15.43 8.756 29.074 14.842 24.54 11.452 12.981 3.819 20.603 7.975 6.584 2.217 12.01 1.698 20.173 2.816 13.564 1.765 9.733 1.045 13.123-.495 13.362-1.415 13.198-2.113 24.405-1.729 11.227-2.653 14.265-4.87 10.876-3.777 9.271-5.917 14.64-13.268 7.053-9.386 6.514-11.018 10.595-19.599 7.847-26.364 3.09-14.052 1.55-17.877-2.512-26.027-1.521-12.205-6.774-17.947-7.051-13.742-9.386-11.425-6.121-7.55-2.323-7.685.739-6.053 2.553-2.108 16.966 13.876 6.584 3.023 16.378 12.166 7.293 8.953 13.055 6.858 8.398 4.367 13.347 5.099 11.928 5.039 7.935 1.814 36.843 16.929 42.855 21.367 35.915 14.115 31.504 12.041 34.159 16.097 34.155 19.795 14.625 11.979 13.65 15.321 11.143 12.536 11.576 14.422 8.636 14.207 9.873 22.843 7.168 27.654 2.557 25.35 3.342 16.018 9.725 34.291 5.846 26.479 8.56 43.081 6.408 31.339 6.641 38.646 5.571 24.793 5.551 28.275 3.064 27.161 8.935 41.502 4.736 29.947 5.57 26.186 6.128 41.534 8.356 32.454 6.304 35.616 2.228 21.311-6.816 8.061-8.743 5.711-10.998 3.761-5.076 2.646 3.494 30.794 4.01 28.415 5.031 22.004 2.647 16.157-.991 15.043-8.883 12.118-8.657 11.651-16.948 12.493-10.937 4.789-13.818 5.365-16.303 5.275-20.733 6.27-14.149 3.504-16.631 3.556-12.749 1.472s-7.635-.065-8.836-.002c-1.202.063-7.051.072-8.395.42-1.345.348-8.048 5.26-8.048 5.26l-1.083 7.246.307 6.325-.105 9.047-.484 10.843.582 11.296.101 11.877 1.444 12.565 1.023 14.693.666 22.554 1.691 7.722-.232 18.037.947 10.302 1.486 17.073 1.472 13.353.022 15.688.366 12.83.682 18.676.072 19.302 1.214 13.499-.076 12.751.258 15.777-.23 15.068-.851 19.652-.804 9.626.317 10.05-.598 11.76-.281 10.335-.589 8.469-1.902 15.647-1.929 25.203-2.142 18.508-.994 18.551-1.836 14.732-1.003 18.021-.842 10.35.983 13.893.752 19.567 2.418 18.097 4.704 19.206 4.152 14.891 3.626 24.359 2.43 13.075.223 15.109 3.102 18.282-.233 16.016 1.199 11.995.776 15.109.905 11.937 2.309 23.693 1.352 18.207.506 16.318 1.132 14.731.834 16.62.409 14.318 1.209 11.18.297 11.885H901.296l-2.447-12.427-3.594-10.63-5.347-15.521-6.041-8.412-1.659-18.935-.238-24.111-.069-40.625-.909-47.089-2.014-32.681-1.228-18.476-2.397-18.954-2.107-19.225-1.895-23.406-2.853-17.842-4.479-18.192-1.454-12.16 2.776-11.432-1.417-9.917-3.606-14.94-5.023-11.333-1.159-11.591 7.88-14.425.504-11.848-.143-16.881 2.29-12.75 4.326-13.91 2.035-12.879.763-9.53 1.781-8.371 4.835-5.023 5.979-11.491s-.27-12.621-1.172-16.485c-.901-3.863-3.863-15.326-3.863-15.326l.507-15.454-2.364-7.434-.645-14.296-.39-8.371 2.799-9.659 1.272-7.213-3.348-1.931-3.478 2.544-5.515-1.316z"/>
</svg>
