<svg xmlns="http://www.w3.org/2000/svg" fill-rule="evenodd" stroke-linejoin="round" stroke-miterlimit="2" clip-rule="evenodd" viewBox="0 0 2906 4359">
  <path fill="none" d="M0 0h2906v4359H0z"/>
  <path d="M1827.94 4359H749.25l-16.118-68.288-9.963-42.181-12.449-50.704-13.046-40.374-12.131-40.238-11.496-34.272-9.38-19.04-14.88-28.441-14.117-27.924-10.47-22.575-6.071-17.357-4.272-16.678-1.962-15.392 1.887-5.702 7.515-12.416 2.121-11.201 2.469-10.657 6.338-11.744 9.541-19.512 6.231-12.506 5.156-10.439 3.168-16.634 3.76-11.201 5.234-16.328 5.099-15.193 4.725-12.505 3.33-11.419 2.453-16.203 5.438-14.479 2.574-15.28 1.826-10.657 5.034-33.21 6.821-42.95 1.711-17.726 6.908-36.191.285-20.325 2.384-31.646 2.243-20.452 2.676-12.071 1.615-28.225 2.788-16.638 3.896-15.559 6.998-31.867 2.776-20.938-.727-11.35 2.149-7.178 2.899-14.572 3.099-16.203 1.5-14.245 4.297-14.464 1.165-13.593 5.375-20.185 3.218-18.705 2.578-9.352 1.289-9.026-3.763-3.983-14.145-4.71-15.9-4.952-28.264-7.62-23.589-7.912-20.511-6.633-13.267-3.697-13.651-2.422-15.762-5.35-17.708-6.26-14.542-4.662-12.972-3.346-15.338-3.841-13.412-3.511-18.57-4.097-29.334-7.804-17.702-4.551-15.748-3.981-20.478-3.267-13.799-3.841-16.788-2.231-22.062-4.971-18.323-3.26-16.237-3.111-14.929-2.943-15.261-4.285s-14.1-4.739-15.658-5.048c-1.557-.309-12.561-3.03-12.561-3.03l-6.985-.648-10.245-1.178-19.352-1.916-12.214-1.234-9.364-.706-10.991.219-7.513 1.275-5.106 2.319-8.746 1.333-8.042-1.761-7.337-2.172-12.741-2.246-9.099-.822-8.47.345-1.292 3.189 1.42 13.716-.088 12.439-.575 12.928-.836 13.428.052 8.002-.12 4.291-5.224-.24-9.215-3.296-11.388-6.885-6.809-4.93-4.434-2.935-1.937-3.463-1.174-5.752-.646-4.696.569-6.985-.177-5.576.869-6.868.87-5.752 1.346-5.494-.183-5.432.342-8.863.575-7.689 2.204-3.522 5.079-9.269.502-8.646 2.688-9.816.63-12.344 2.185-15.552.296-21.291-.235-19.01.502-12.337 3.088-16.563 4.676-19.95 1.946-15.855 2.112-27.943 3.389-17.36 2.88-12.201 3.925-21.285 3.727-18.369 5.14-17.239 7.209-18.992 5.167-11.996 10.348-27.796 15.538-40.221 12.751-30.672 8.122-28.819 10.011-26.607 7.092-16.828 10.568-18.441 10.43-13.937 12.098-14.078 18.629-25.78 15.157-21.821 16.589-21.569 22.79-29.781 19.886-20.131 16.038-15.712 15.451-13.731 15.748-12.901 24.984-14.716 18.91-13.093 23.05-13.809 16.494-8.129 17.844-9.055 16.851-6.68 19.81-5.819 10.499-5.413 69.369-26.838 45.66-17.26 35.407-11.005 79.808-22.681 43.648-12.627 44.315-14.258 43.829-13.494 22.486-8.581 23.658-10.605 19.395-8.972 21.849-.525 14.771 2.953 13.358 9.505 10.018 15.669 20.042 35.794 10.027 20.898 5.63 15.831 7.844 19.472 16.388 28.546 20.954 37.189 19.296 28.505 13.959 21.195 13.614 21.512 21.927 28.225 39.016 42.128 35.286 35.402 26.64 25.639 20.023 17.234 43.289 32.234 28.608 18.615 17.954 10.932 23.214 13.951 18.717 12.348 11.868 6.485 18.056 7.956 16.841 4.527 14.355 4.061 16.395.264 16.227.05 26.854-4.223 14.663-4.908 11.986-5.188 11.171-6.75 7.013-7.38 7.567-10.089 8.577-13.952 6.183-9.342 4.428-11.024 2.953-11.167 4.317-13.954 1.489-39.209.88-25.972.482-20.414-.94-13.172-1.962-15.975-2.336-9.997 2.809-10.716 6.921-10.743 4.599-7.67 4.614-4.11 9.229-1.589 7.382 1.477 6.091 5.906 3.876 6.921 3.875 10.705 2.861 8.582.459 6.737 5.68 6.577 8.315 5.679 17.075 13.05 11.908 8.721 9.833 4.358 8.45 7.737 6.459 7.841 3.877 9.012 2.583 7.475 4.799 7.013 15.403 12.64 8.675 6.736 8.859 6.724 7.29 7.105 6.46 4.153 4.799 3.506 4.798 1.2 5.168.369 8.306 3.599 5.906 3.968 7.844 4.153 6.644 5.352 8.951 7.198 18.091 15.154 7.062 5.992 8.029 3.783 4.983 3.968 6.183 5.814 5.537 3.599 4.153 4.983 9.725 9.565 27.995 23.771 6.46 6.46 8.312 7.119 5.385 7.253 6.829 2.676 5.813 6.275 4.338 5.445 6.081 6.275 4.983 4.706 5.168 4.522 6.091 3.968 5.865 4.824 4.337 4.43 11.034 15.711 4.153 9.044 4.153 10.889 4.706 9.598 4.614 9.043 7.567 13.012 9.598 18.743 4.597 15.093 5.629 12.735 4.614 13.104 5.168 11.074 11.88 21.644 1.845 11.351 4.698 15.421 2.123 12.089 5.721 18.087 10.364 33.288 3.415 11.351 3.137 16.518 5.224 20.659.923 10.336 2.119 16.426 4.288 22.087 1.846 13.012 4.891 19.472 2.671 16.703 3.054 24.083 1.453 21.945-2.061 9.413.367 13.289 1.015 10.335 2.404 23.687.271 13.473 1.565 18.693 2.383 26.298 2.393 29.278-.375 15.688.551 13.843.171 22.917.551 14.12 1.592 20.106.085 15.411.086 13.104-.859 10.484 1.015 7.567 1.384 5.814 3.784 7.382.71 9.616 3.624 14.816 2.941 9.337 1.385 10.11 1.605 13.877-1.402 4.799-10.556 7.014-15.082 6.627-18.892 6.233-25.147 4.645-19.762 1.093-12.986 1.568s-7.567 3.138-10.37 3.415c-2.802.276-18.317 1.937-18.317 1.937l-26.413.417-25.113 1.905-37.152 1.68-33.032.379-21.631-.015-21.455.46-10.463-.936-7.778 7.11-5.138 15.965-7.664 19.564-11.181 23.487-7.567 18.272-4.951 13.381-7.661 18.18-3.474 12.077-4.858 13.658-5.737 15.195-9.623 18.692-7.065 21.26-6.633 11.351-3.924 12.827-6.194 11.287-3.083 8.121-4.391 9.413-5.699 8.582-1.128 8.121 2.859 7.014 2.861 9.535 2.399 15.227 3.347 14.539 7.585 29.584 4.01 24.701 3.997 28.554 1.2 10.336-.056 12.12-.749 10.52-5.034 25.316-2.896 13.842-4.391 14.858-4.916 19.159-2.338 15.657-5.09 15.047-2.242 10.059-.841 5.537 7.695 23.211 4.614 16.888 7.051 22.824 10.386 43.194 4.614 17.349 4.672 19.267 3.638 19.451 3.138 19.748 2.25 19.44.352 15.503-2.336 9.959-.677 3.479z"/>
</svg>
