<svg xmlns="http://www.w3.org/2000/svg" fill-rule="evenodd" stroke-linejoin="round" stroke-miterlimit="2" clip-rule="evenodd" viewBox="0 0 3000 3000">
  <path fill="none" d="M0 0h3000v3000H0z"/>
  <path d="M632.458 2575.18l26.896 13.905 15.516 7.724 12.163 5.867 7.897 3.75 15.876 6.573 11.388 5.273 13.085 5.551 16.239 7.176 10.838 3.837 12.959 4.958s13.806 1.782 14.999 2.918c1.193 1.137 19.078 8.284 19.078 8.284l14.013 4.091 14.638 6.584 8.976 3.579 11.576 3.723 5.397.681 15.402 6.269 18.646 7.031 24.426 8.403 12.618 5.003 10.775 4.9 12.763 5.22 31.279 12.035 16.771 5.009 21.348 7.785 22.231 7.677 9.664 2.5 12.934 4.201 30.504 9.144 10.08 3.073 19.41 5.512 13.098 4.746 17.477 4.042 22.559 6.106 38.238 8.703 20.371 4.888 16.002 4.731 16.645 4.702 11.778 2.163 17.031 3.675 21.195 4.3 12.662 2.215 17.762 2.895 17.056 1.264 14.707.551 15.244.579 16.97.635 16.557.741 14.424.681 20.623 1.756 18.848 1.844 18.527.436 18.645.755 29.388 1.791 23.585-.388 20.459 1.386 29.168-.145 17.672.175 14.97 1.235 14.958-1.009 14.471.778 12.522-.657 16.556-.104 10.789.141 11.882-.425 8.743.851 10.624-1.684 16.063-.875 13.558.103 6.25-.174 9.355-1.507 7.728-2.589 9.174-2.498 7.759-1.985 7.229-1.695 9.778-1.932 9.168-1.319 8.377-.644 11.618-1.492 11.182-1.311 14.668-.325 18.19-2.098 11.667-1.942 9.726-1.007 10.418-.967 9.31-1.157 12.475-2.835 14.89-2.979 9.833-2.501 10-2.882 8.599-2.214 4.991-1.271 11.3-3.379 18.891-6.103 17.132-7.542 20.108-9.042 12.461-6.538 12.4-7.11 7.001-5.72 11.987-9.432 15.999-12.352 15.267-12.691 13.994-11.884 14.922-12.558 12.011-9.446 9.033-7.362 5.51-6.326 7.67-8.569.343-9.758-.432-11.692-.697-10.874-.519-7.477-7.936-6.843-6.902-3.624-6.038-3.738-1.438-2.013 3.072-10.148 1.36-7.104-.864-7.335-3.66-6.007-3.282-6.557-5.866-7.418-3.854-3.681-2.76-3.221-1.561-1.477-.407-9.834-.748-7.534-2.875-4.946-2.588-4.141-3.626-5.124-5.766-8.255-4.659-4.946-7.879-6.729-2.44-1.255-.752-9.892-.146-10.429-1.213-13.106-1.61-13.077-1.544-7.673-3.048-6.959-5.553-13.695-3.911-6.556-2.473-5.233.054-5.234-2.07-2.703-.487-3.76.682-4.486 2.215-6.038 2.784-7.534 1.363-5.291-.017-5.597.051-7.476-.232-7.074.051-11.214-.071-13.408-.7-10.832-.692-9.432-2.791-10.882-3.393-7.022-3.859-8.074-4.14-5.176-1.496-4.428-5.693-7.419-3.41-3.297-4.716-1.093-3.738-5.406-3.624-5.981-1.092-2.646 5.371-9.321 16.467-24.15 6.359-9.546 5.17-6.959 1.02-6.557.099-5.986 1.591-8.799 1.079-9.467 1.065-12.307-1.513-15.184-2.071-12.971-3.767-20.57-1.667-7.994-2.985-9.779-.92-5.693-2.144-12.813-1.783-7.764s-4.831-27.693-4.831-25.894c0 1.799-2.529-17.935-2.529-17.935l-4.525-21.078-2.809-15.514-2.121-12.417-1.956-11.648-1.212-5.684-.632-5.751-3.336-12.307-3.194-14.085-3.451-13.573-2.473-12.151-.977-3.393.205-18.613.697-12.425.888-18.184.631-14.115.78-14.167-.762-15.425 1.203-12.519 2.514-14.674 3.349-18.05 2.195-14.247 2.303-16.861 1.553-22.629 3.692-20.601 3.154-20.868 3.062-23.976 2.295-19.664 3.859-29.481 3.423-22.349 3.308-24.44 1.531-16.391.338-11.369.267-10.823 2.628-11.595 1.968-25.027.193-16.837.611-19.193.695-20.959-.912-17.255-.519-17.138-1.243-22.965s-.119-16.933-.292-18.543c-.172-1.611-1.91-21.518-1.91-21.518l-1.493-21.175-2.201-14.705-4.026-10.555 7.556 7.669 11.456 1.321 15.236.742 14.256-.133 14.443-.156 14.651-2.068 8.638-.745 22.953-5.437 19.044-4.149 18.835-4.671 26.484-8.561 25.899-7.897 28.894-8.403 41.846-12.057 43.309-14.437 32.098-12.455 13.533-5.51 13.42-5.556 10.667-3.202 9.583-2.67 6.736-4.939 4.674-6.185 2.613-6.844-.232-7.361-2.933-6.556-4.084-6.902-.863-7.534-.387-8.92.526-10.649-3.968-9.061-4.083-5.578.247-16.345-1.096-26.355-1.411-30.031-1.564-25.552-6.058-25.069-4.694-25.272-5.224-22.622-4.043-20.264-6.573-29.677-3.823-29.61-3.624-25.894-3.516-26.083-1.28-19.901-.054-13.988 1.588-14.43.032-24.761-1.324-13.435-4.569-19.929-6.948-18.143-5.84-14.797-6.929-18.436-7.666-20.426-6.218-16.161-8.682-20.139-9.862-23.205-5.652-13.766-3.293-7.856-1.093-8.455-1.265-5.636s-2.761-4.831-4.026-5.751c-1.265-.92-5.981-4.486-5.981-4.486l-4.026-4.025-9.911-13.599-9.145-11.962-9.374-10.525-9.547-8.569-13.572-10.582-6.841-3.657-5.003-2.013-8.98-6.127-13.302-10.732-33.056-20.38-22.795-12.039-25.213-12.868-10.642-2.921-15.615-5.123-11.598-3.455-13.09-4.858-16.845-9.153-12.997-7.074-28.862-15.352-25.735-11.477-28.093-13.245-26.399-11.649-22.469-9.048-29.825-13.564-37.551-17.542-26.889-10.319-39.792-23.672s-22.679-10.264-24.404-11.012c-1.725-.747-15.559-6.284-15.559-6.284l-8.993-6.45-9.117-6.832-6.383-3.106s-9.808-1.782-11.794-1.725c-1.987.057-25.445 1.109-25.445 1.109l-2.952 1.534-5.176 1.475-1.68 3.509 3.636 4.375 7.619 3.764 7.726 1.989s4.829 1.761 6.477 2.386c1.647.625 5.681 2.386 5.681 2.386l3.692 4.942-.466 12.08-2.094 15.843-5.313 20.962-12.339 23.078-14.598 18.791-10.302 9.547-28.06 19.386-28.353 12.884-32.204 11.734-38.211 7.54-53.817 4.588-49.086 3.01-48.473.015-38.904-1.573-34.416-5.953-53.642-13.703-43.88-12.798-27.659-9.029-29.437-12.975-22.827-13.061-14.706-13.347-13.441-17.474-4.89-15.899-2.078-15.964 1.016-12.819 6.492-14.754 3.992-6.587 7.442-9.374 7.025-6.744 4.659-6.096-1.326-1.611-7.189 4.715-11.618 6.533-9.489 5.511-8.785 5.484-5.694 6.704-4.14 2.272-10.86 2.314s-10.873 2.349-12.54 2.918c-1.668.568-10.888 4.509-10.888 4.509l-13.275 8.459-7.994 8.407-3.853 5.057-12.94 1.921-14.009 4.776-16.583 5.232-17.606 6.191-14.451 7.189-18.346 8.689-23.804 5.695-26.364 9.822-22.286 7.036-28.137 12.908-24.845 9.31-49.705 18.605-12.745 4.147-18.848 7.037-10.012 7.211-15.395 6.595-34.358 16.291-27.55 14.883-29.167 13.175-26.263 14.633-17.747 10.039-14.969 9.265-11.438 7.735-10.856 8.216-12.401 7.11-6.056 4.89-4.956 12.644-5.834 14.84-6.232 14.932-14.109 29.825-11.621 28.296-9.755 29.748-8.495 27.087-9.643 34.301-12.19 49.103-11.518 47.699-6.979 39.215-10.72 65.052-5.701 35.371-1.668 12.65-2.363 19.776-2.973 14.251-2.588 12.839-4.489 36.383-1.898 13.217-1.971 17.554-2.772 18.33-2.806 18.173-1.144 9.523-.533 14.309-.691 9.999-1.611 5.34-2.588 6.533.338 7.215.625 6.135-.06 4.943-3.856 14.697-.637 5.672-3.713 5.812-.118 7.675 2.215 5.227 7.372 6.197 6.394 4.049 12.012 5.614 16.532 5.751 34.564 12.346 26.099 7.878 30.758 8.409 34.356 7.97 43.533 10.97 38.818 7.799 30.955 5.063 18.639 1.435 21.691 1.843 18.406.49 17.34.44 20.878-2.119 15.275-4.341 6.312-2.791 4.886-4.198 5.226-2.879-1.214 15.679-1.287 15.283-1.611 9.033-1.611 7.385.057 5.795.28 8.408-.466 9.304s1.25 2.102 1.25 3.693c0 1.59.352 13.186.352 13.186l.811 14.111-.633 9.386.109 12.101.053 9.348-1.291 13.723-1.895 13.644 5.565 28.327.715 34.377 1.282 45.457-.714 27.665.475 21.062 3.368 42.411 4.869 53.888 1.665 31.062 1.851 41.584 1.804 47.508.799 33.052-.332 11.737 1.479 26.221-.108 12.128-3.441 15.137-8.79 34.525-10.679 39.078-5.27 17.212-4.918 25.705-7.427 32.323-7.279 34.446-7.408 28.641-8.487 25.816-7.852 28.52-10.755 7.248-12.214 8.079-15.531 12.73-13.029 10.199-8.768 7.771-6.284 7.841-5.326 9.066-1.32 13.923.88 11.737 9.066 9.794 7.322 4.554 3.233 10.14-.006 5.805-1.934 12.858-2.321 16.546-3.277 10.43-6.067 10.974-2.678 7.201-2.157 8.784-3.796 12.372-3.082 11.191-4.314 10.066-4.686 11.83-4.761 9.844-3.908 7.106-2.603 4.996-1.711 6.834.638 5.651 5.037 5.584 4.335 3.821 5.584 2.203 2.349 1.47-2.529 4.849-6.174 6.319-4.805 4.574-6.025 6.613-4.91 5.878-4.314 6.907-2.678 6.613.809 5.511 2.277 4.702 2.278 4.041 1.721 4.332.588 3.453-2.529 2.572-4.835 4.041-5.356 2.866-2.678 1.322-3.277 4.115-.94 5.527.583 5.658.661 4.408-2.529 4.335-6.843 1.69-4.91 2.278-2.088 3.246-.525 4.996-3.05 8.817-3.05 6.54-4.24 6.686-3.57 5.952-4.909 8.596-1.711 4.189-2.306 4.849-4.537 4.996-.295 5.337"/>
</svg>
