<svg xmlns="http://www.w3.org/2000/svg" fill-rule="evenodd" stroke-linejoin="round" stroke-miterlimit="2" clip-rule="evenodd" viewBox="0 0 5472 3648">
  <path fill="none" d="M0 0h5472v3648H0z"/>
  <path d="M1479.18 2175.46l-13.643-3.647-11.081-3.191-13.986-3.591-15.108-5.24-15.281-5.315-17.29-4.842-9.985-1.299-3.195-.199 1.764-13.081 3.66-16.909 2.047-17.833 2.939-9.801.785-10.684 1.055-12.557-.21-12.582-1.199-10.285-3.614-8.387 2.367-9.087 6.701-14.521 4.508-10.356.588-15.976 3.304-16.721 2.929-16.959 5.809-17.008 5.978-24.833 9.664-30.727 4.096-16.22 5.083-15.684 11.091-30.627 9.379-18.901 5.721-15.577 5.311-13.602 4.834-9.187 4.142-6.091 2.959 20.615 2.761 34.224 3.53 39.147 4.206 30.007 6.737 31.039 9.251 39.351 12.643 39.848 12.804 41.054 10.487 31.077 8.036 18.125 3.54 12.33 1.083 11.989-.582 13.758-1.698 10.357.592 8.384 1.085 6.51.773 6.669-2.606 10.357-1.597 6.905-2.399 8.581-.774 3.211-4.663 4.166-16.341 1.111-13.007-1.194-9.908-.568-13.317-2.533-12.758-3zM1689.65 2154.57l-13.827-11.905-17.072-16.371-5.376-8.833-1.025-7.297 1.64-9.473-.686-14.082-4.224-13.825-6.036-23.026-4.516-21.451-5.544-19.92-4.048-30.325-6.304-34.052-1.28-9.857-.142-19.143.607-22.167.478-19.587.339-24.46-.186-21.22.812-18.412.229-21.583-2.172-23.359-2.733-20.442-3.588-16.13-3.074-14.338-2.071-14.593-.311-6.753 1.426-4.909 10.876-11.292 8.056-10.389 5.601-8.104 6.322-8.852 5.062-7.94 4.268-5.35 4.564-7.651 4.42-7.363-.229-2.105-15.399-7.903-10.066-6.655-10.36-2.695-10.733-3.32-7.362-3.393-6.93-1.013-8.3-2.454-8.778-3.34-11.446-5.338-7.291-1.805-10.064-2.018-7.795-3.395-7.219-2.598-4.547-4.259-9.167-.152-8.734.641-9.528.201-3.248 2.138-1.597 5.842.213 4.563-.722 4.135-1.082 5.562-.361 3.351-2.96.712-4.114-1.876-1.949-4.043-2.165-2.959-2.31-4.548-2.671-4.836.555-7.146 1.355-4.836 2.496-5.558 3.636-5.558 4.278-4.692 3.423-4.908 1.925-5.125.767-9.412 1.138-7.723 3.138-7.074 3.27-9.311 8.542-18.289 6.436-12.209 6.643-11.443 6.488-16.046 4.237-17.787 3.148-17.635 4.811-25.438 3.444-20.454 6.308-23.748 5.976-10.809 5.973-13.194 10.54-19.118 6.631-12.848 8.317-14.851 11.542-15.929 7.859-10.866 13.139-14.864 21.298-23.102 18.747-17.139 15.67-14.341 17.563-11.709 22.494-10.271 27.254-10.349 11.186-7.719 9.466-4.909 6.774-1.443 5.847-1.949 5.633-3.537 7.198-4.331 4.491-2.454 5.134-.722 4.421 2.066.855 4.207.999 4.278 4.777 5.989 8.167 9.174 13.961 17.299 11.172 18.096 12.67 14.857 24.572 23.546 12.953 13.036 11.177 10.327 13.765 11.6 9.031 5.411 5.633 1.207 4.991-3.393 2.852-4.258 1.498-4.837 2.923-5.63 4.563-5.63 4.421-5.486 4.135-3.898 3.349-1.877 2.859-3.262 3.561-2.022 4.136 2.634 3.636 3.637 3.779 4.777 5.084 6.151 4.69 6.635 3.137 5.632 1.64 5.491 2.278 6.274 3.636 5.276 2.425 5.277 1.283 3.779 1.496 7.201 1.436 7.116.581 10.195.194 16.187.251 12.946-2.035 9.976-1.444 8.057-1.928 9.37-2.096 7.843-1.66 5.134-.279 9.032-1.148 10.727-.684 12.613-2.333 9.432-1.516 6.489-.299 10.909-.58 10.592-.815 9.98-2.557 7.634.282 9.055-1.344 13.563-1.518 13.333-2.62 16.393-1.964 17.04.486 13.683.626 12.486-.303 12.477-.083 10.482-.769 7.121-.29 6.275-3.393 3.921-2.598 4.349-2.021 9.626-2.792 18.728-3.151 22.017-5.954 37.977-6.204 41.336-6.728 42.932-6.153 30.193-6.205 40.033-3.627 25.795-4.403 18.742-2.551 21.153-3.28 23.525-5.389 25.801-3.124 18.443-1.303 14.902-.28 10.767-3.53 11.532-7.818 26.429-9.65 27.923-7.021 16.51-4.899 13.817-4.331 7.771-5.809 4.975-3.201-3.447-5.067-1.841-9.754 1.793-11.074 4.458-15.639 6.797-25.111 10.233-24.772 10.114-24.165 8.418-30.858 9.049-21.379 4.083-14.144 3.005"/>
</svg>
