<svg xmlns="http://www.w3.org/2000/svg" fill-rule="evenodd" stroke-linejoin="round" stroke-miterlimit="2" clip-rule="evenodd" viewBox="0 0 5184 3456">
  <path fill="none" d="M0 0h5184v3456H0z"/>
  <path d="M1979.08 2921.9l-8.328 2.87-3.314 1.904-3.735 2.262-3.254 1.726-3.193 1.309-5.818 1.505-3.073.416-4.459.357-4.218-.063-2.109.475-1.666.567-3.137.603-3.915.851-6.679 1.156-3.864.412-4.099.713-4.941.94-4.683 1.296-4.725 1.005-3.412.743-2.937 1.413-2.955 1.741.06 2.262.416 1.905 2.44.177 3.036.893 2.426.985 2.096 1.661 2.566 2.739.585 3.529-1.967 2.307-4.296 1.859-4.703.476-4.097.119-3.013-.241-1.626-.843-4.13-.121-2.711.535-4.338-.061-3.736-.482-3.495-.121-5.098-.783-2.952-.301-6.688-1.386-5.905-2.35-2.952-2.169-1.507-1.145.056-4.218.892-4.88-.1-4.064.096-3.783-.008-5.089.191-5.738.047-5.136.95-7.956.988-4.695 1.556-5.806 1.101-5.544 1.201-6.035 2.175-9.672 2.832-13.81 3.63-16.859 2.527-13.617 2.298-13.832 4.129-19.619 2.739-13.772 2.208-12.688 2.298-15.316 3.716-12.097 2.868-5.921 6.114 7.632 7.036 11.639 6.408 9.587 8.474 14.083 12.833 20.331 13.973 22.415 13.27 18.021 8.384 12.484 7.503 11.129 9.63 14.295 11.08 16.135 3.772 9.198 2.825 4.982.926 3.675-12.515.896zM1993.42 1876.92l-2.751-4.502-3.49-3.36-3.779-4.002-3.543-3.528-5.789-4.086c-2.283-2.431-4.872-5.136-8.527-10.016l-4.561-6.633-5.658-7.071-5.653-8.998-6.715-9.713-3.446-9.373-4.435-8.599-3.929-7.667-5.018-5.825-5.289-5.005-7.072-4.534-9.564-5.58-9.738-4.457-8.478-3.462-8.077-2.463-10.5-2.773-10.429-2.967-8.661-1.579-10.912-1.82-11.855-.887-11.174-.715-7.882.348-9.599-.014-11.762.383-14.615 1.14-9.306.444-2.583 10.261-1.264 7.295-2.075 11.513-1.424 9.311-.675 6.372-.271 7.889-1.063 9.679-.086 3.862-11.96-12.286-22.012-23.211-18.319-20.451-8.971-10.958-1.066-3.995-.042-3.396 4.956-9.833 5.012-11.726 6.433-13.672 3.154-5.274 1.619-6.358 5.745-14.02 7.455-15.54 4.894-15.326 4.831-11.316 5.565-13.394 5.674-15.32 8.175-19.461 4.242-11.276 6.369-14.42 8.981-17.603 3.02-5.831 3.309-7.27 5.822-11.846 6.648-13.504 6.183-11.901 5.749-11.282 7.418-13.603 8.498-15.278 14.757-23.952 9.058-13.345 9.979-13.542 12.517-11.83 10.264-8.147 10.067-8.498 12.999-11.301 8.25-5.311 6.842-1.344 19.75-7.303 16.7-1.908 20.74-6.946 22.449-5.475 14.798-4.781 23.424-6.906 17.539-6.146 15.63-6.041 17.816-8.603 11.035-5.339 12.19-3.599 14.241-6.929 9.776-3.217 11.694-5.966 14.155-9.683 12.314-7.714 10.18-6.981 9.888-1.618 6.008 1.521 5.921-3.559 14.011-7.05 10.512 4.459 12.467 6.698 10.978 11.35 31.17 32.693 27.627 22.499 49.528 34.502 29.734 17.17 20.461 10.684 20.66 9.202 20.243 7.621 20.047 6.883 18.203 5.868 21.042 5.352 11.879 2.152 6.303.994 6.933.505 9.941.096 6.34-.888 8.11-1.465 8.438-1.686 6.76-2.847 5.774-3.388 4.756-4.088 2.709-2.852 2.983-3.801 1.312-6.303-.304-5.322-.602-3.793-.609-4.407.295-9.808.149-8.489.175-8.596-2.685-8.622-2.451-5.207-5.62-3.962-6.909-3.777-5.943-2.903-1.566-1.612 1.866-7.466 1.638-5.574.136-2.626 6.416 4.778 6.052 4.414 5.279 5.961 4.318 3.534 8.291 4.366 7.715 6.621 4.289 5.283 3.702 5.307 10.335 4.905 9.47 4.29 11.167 5.226 14.798 5.636s9.828 4.665 11.102 5.211c1.274.546 11.318 5.084 11.318 5.084l8.473 3.124 16.025 7.929 13.052 5.103 15.785 3.269 11.824 6.882 19.51 13.552 15.447 11.191 20.535 16.613 12.574 10.736 10.901 10.563 11.414 10.84 7.533 10.971 5.924 11.864 4.431 11.417 4.344 10.019s6.795 7.952 7.701 11.017c.906 3.065 3.66 11.439 3.66 11.439l5.093 14.178 3.175 15.212 5.157 23.473 8.953 32.949 5.101 23.073 4.62 20.965 4.523 19.483 3.98 19.179 1.602 6.327 2.479 13.359 1.504 16.188 3.343 18.309 3.071 19.159 4.66 24.207 4.627 22.165 5.424 25.032 4.827 22.568.938 12.132 2.729 9.787-.079 2.066-2.101 3.647-4.565 2.626-5.7 2.323-9.073 2.926-16.455 4.488s-12.167.889-13.007 1.067c-.84.178-11.243 1.201-12.683 1.586-1.441.386-10.337 3.607-11.418 3.696-1.08.089-10.397 5.211-10.397 5.211l-10.393 5.071-8.76 3.3-10.821 4.193-13.629 4.683-16.396 3.803-22.116 4.767-14.092 2.965-12.717 1.762-7.114.306-.367 6.571.271 15.272-.2 17.34.551 14.34.571 19.671-.219 15.981-.883 15.496-1.002 13.653c-.861 4.522-1.091 8.848-3.072 15.134l-2.928 11.343-1.104 16.632.165 20.053 1.097 15.601.46 18.447-.548 16.219-1.354 11.906-1.53 9.82-2.268 11.081-1.567 7.537-1.522 6.251-1.741 7.494-1.183 4.668-1.43 7.965-.793 8.292.167 7.528 2.087 11.614 1.887 15.622.488 17.05.673 19.732.057 15.965.066 13.863-.074 11.796c.22 3.7-.032 11.592-.296 22.036l-1.059 6.818-1.094 8.747c-.077-.064.103 9.296-.016 12.296l.463 7.616s.328 5.476.621 6.855c.293 1.379.419 11.895.207 13.023-.211 1.129.123 6.463-.089 8.886-.211 2.424-.054 9.379-.054 9.379l-.835 15.137-.665 9.435-.573 13.081-.225 8.324c.391.894.33 6.434 1.471 17.169l1.033 7.708.798 9.77.737 3.93 1.362 8.826 1.451 6.237 2.172 9.614.814 9.582 1.493 9.738 1.944 8.842.685 6.554c1.629 2.808.114 2.452 4.642 9.945l6.858 9.908 6.582 10.824 5.366 11.611 5.644 11.229 4.676 13.266 1.88 7.275 1.288 14.095.993 6.395 1.352 9.76 1.593 6.014 1.127 4.64.562 5.271.125 3.885-.01 7.948-.192 10.377-.062 10.704.106 12.841-.383 13.468-.629 14.667 1.322 13.589 2.83 7.885c.957 1.908 1.492 2.99 3.651 8.152l1.606 10.39-.351 10.088-.432 10.389-1.249 12.783-2.152 6.387-.314 5.932-.395 10.368-.367 4.46-4.777 1.464-6.938-.721-7.234-.635-6.586-1.122-12.637.53-49.28-.178-69.072-.396-66.857-.17-48.617-.12-43.158.355-34.269 1.618-51.498 1.178-56.319.606-46.104-.847-31.778.473-16.523-.208-6.456-.508-4.13-.835-2.403-2.204-1.64-2.788-6.176-1.16-6.956-1.021-6.044-3.149-6.16-5.172-6.879-16.586-4.071-9.131-4.938-10.834-6.06-9.652-6.4-11.5-4.719-8.422-7.077-10.571-5.329-11.752-8.113-15.298-8.535-15.109-7.643-14.893-7.688-15.432-11.289-20.298-9.48-14.735-8.667-16.934-9.262-17.588-5.116-12.628-9.301-17.705-4.191-10.659-12.247-26.283-6.069-16.776-8.397-16.567-14.288-33.616-9.162-21.025-12.094-24.049-8.615-22.115-10.352-21.867-8.446-17.756-9.786-19.868-8.838-17.264-8.742-16.608-2.5-4.412-.635-2.519-.261-8.837.661-10.754-.109-18.126 1.725-24.087 1.176-19.876.145-18.174.087-18.104.522-24.744.575-15.877-.343-14.312 2.44-11.729 3.262-16.303 3.363-16.729 2.98-13.909 2.909-14.751 1.877-13.116 3.458-18.162 4.215-25.786 1.697-12.276 2.711-14.62 1.201-17.807 1.031-14.611 1.892-9.03 1.733-10.35 3.042-34.595.853-14.77 2.703-26.513 2.027-20.418 1.707-11.153 2.863-15.288 2.751-6.443z"/>
</svg>
