<?xml version="1.0" encoding="UTF-8" standalone="no"?><!DOCTYPE svg PUBLIC "-//W3C//DTD SVG 1.1//EN" "http://www.w3.org/Graphics/SVG/1.1/DTD/svg11.dtd"><svg width="100%" height="100%" viewBox="0 0 4096 2735" version="1.1" xmlns="http://www.w3.org/2000/svg" xmlns:xlink="http://www.w3.org/1999/xlink" xml:space="preserve" xmlns:serif="http://www.serif.com/" style="fill-rule:evenodd;clip-rule:evenodd;stroke-linejoin:round;stroke-miterlimit:2;"><rect x="0" y="0" width="4096" height="2735" style="fill:#fff;fill-opacity:0;"/><path id="tshirt" d="M1482.58,2735l1,-4.975l0.849,-4.2l1.083,-5.363l1.927,-7.412l2.322,-7.395l1.249,-10.431l0.596,-7.823l1.366,-8.288l1.15,-6.123l2.099,-6.729l1.345,-5.364l1.524,-8.668l1.862,-11.756l0.945,-11.747l0.577,-41.027l0.127,-41.325l0.977,-44l1.569,-54.603l2.89,-44.996l4.664,-47.668l4.572,-48.931l4.988,-49.634l8.375,-68.85l8.582,-71.149l7.512,-67.482l5.816,-55.251l3.601,-36.788l2.512,-21.391l-0.863,-6.982l-5.066,-21.016l-2.325,-13.736l-2.041,-12.108l-3.07,-10.005l-1.316,-2.429l-22.659,-1.747l-18.772,-3.353l-24.717,-6.979l-18.625,-7.133l-14.849,-6.024l-16.084,-7.873l-11.025,-5.62l-6.274,-4.888l-6.473,-7.644l-1.115,-5.951l-0.713,-5.414l1.643,-6.072l5.597,-8.655l3.034,-8.45l4.228,-9.788l1.6,-6.274l0.311,-6.764l2.899,-4.733l2.049,-2.631l-0.286,-15.334l-0.103,-5.34l0.874,-8.13l1.899,-5.01l2.599,-5.06l2.441,-7.502l0.494,-7.287l-0.154,-5.799l0.663,-5.266l-0.58,-8.584l-1.279,-7.391l0.392,-9.165l-0.116,-5.9l1.599,-5.819l2.576,-13.625l-0.812,-8.956l-0.257,-8.703l-1.467,-6.834l0.341,-11.334l0.8,-5.819l1.085,-8.299l0.698,-6.78l-0.71,-6.73l-0.659,-6.375l0.975,-39.54l0.055,-24.22l2.812,-7.168l0.796,-10.878l0.532,-18.357l1.171,-24.231l0.799,-17.067l4.568,-22.549l7.14,-28.001l8.224,-24.981l3.245,-11.361l2.733,-15.584l4.846,-14.282l5.723,-12.058l9.295,-13.721l13.431,-14.318l14.003,-15.877l17.341,-15.52l15.077,-11.16l19.062,-11.686l22.414,-14.389l28.38,-13.904l40.334,-17.158l39.113,-18.528l15.983,-8.13l15.155,-6.497l11.511,-7.856l10.135,-5.897l3.389,2.819l5.056,8.036l5.747,7.036l5.612,8.652l2.962,7.431l3.292,5.548l2.357,3.803l-23.835,23.461l-0.26,2.949l-1.065,66.037l-0.963,5.048l2.949,1.948l6.736,0.017l2.849,-1.417l4.026,1.863l5.454,3.376l5.553,4.349l4.598,3.898l2.145,2.384l-3.04,66.012l-4.048,67.93l-3.852,53.321l-12.133,29.917l-1.514,8.445l1.099,5.826l-0.067,11.439l-5.062,11.179l0.21,10.507l-1.401,22.49l-4.251,44.093l-3.018,24.23l-2.402,21.239l-1.429,14.739l-0.668,14.756l-1.29,10.836l-0.138,19.633l-0.091,13.228l-1.028,21.03l-0.862,29.254l0.549,26.412l5.895,32.682l9.917,42.424l10.627,37.952l14.282,26.198l17.921,61.286l7.958,27.015l6.451,24.235l10.959,22.578l17.346,15.664l15.829,7.154l24.202,4.412l18.434,1.064l22.915,-0.637l31.643,-6.337l35.446,-10.309l48.686,-22.743l20.258,-12.06l51.535,-36.363l61.088,-37.321l56.041,-39.821l52.283,-35.682l37.199,-27.018l25.03,-21.903l12.024,-9.4l5.59,-8.549l0.149,-13.098l-5.119,-25.535l-9.657,-23.132l-15.812,-25.947l-27.913,-32.723l-21.987,-21.574l-33.065,-26.661l-35.948,-21.521l-29.134,-14.064l-34.179,-11.274l-44.832,-11.797l-22.579,-3.546l-17.874,-1.239l-14.695,-2.465l-9.046,-22.189l-6.934,-12.635l-7.088,-11.094l-8.167,-12.327l-4.16,-14.793l-7.306,-56.121l-9.931,-67.817l-6.335,-36.344l-5.18,-42.57l-3.17,-34.671l2.016,-12.47l35.66,-19.224l74.152,-37.343l79.242,-49.855l28.923,-21.546l26.143,-23.852l21.773,-18.223l16.974,-12.019l11.72,-10.478l6.24,-7.088l21.783,-9.061l13.547,-5.855l8.039,-0.859l3.792,3.653l-0.48,5.631l2.729,7.306l3.805,4.871l1.066,5.936l5.34,6.586l21.05,18.316l22.395,13.059l28.268,19.397l23.446,15.565l20.083,10.985l8.146,3.491l6.175,1.39l11.319,1.46l6.697,1.651l6.599,3.042l7.195,4.485l7.477,6.174l3.565,4.001l3.131,2.957l5.305,2.087l4.783,3.565l4.696,4.871l6.175,5.736l21.323,25.31l10.788,12.565l5.951,10.059l7.214,12.704l6.765,6.583l7.179,6.633l3.128,6.523l2.432,8.348l-0.27,8.784l0.17,9.131l3.347,6.565l1.825,5.305l1.826,5.044l1.391,7.305l2.348,4.783l3.479,6.976l0.957,6.243l-0.011,6l0.171,6.436l0.434,4.609l3.479,6.609l1.65,7.305l0.06,11.152l-0.983,8.088l-0.089,6.175l2.26,10.088l1.304,7.131l-0.024,15.18l-3.277,11.091l0.204,19.537l-0.354,9.654l-0.723,10.773l-0.353,9.131l-1.321,8.784l-1.232,4.522l2.903,11.595l1.391,12.533l-0.563,15.345l-3.765,18.164l-6.609,24.35l-6.629,15.567l-4.073,10.185l-2.201,8.831l-1.419,10.397l-2.114,4.957l-1.321,4.783l1.627,16.714l-1.673,6.784l-3.699,6l-4.842,3.131l-1.497,3.653l0.008,9.785l-0.969,6.435l-0.355,8.61l-2.553,6.87l-4.843,5.044l-1.584,4.088l-12.742,59.083l-1.018,13.625l-3.647,12.013l-2.182,11.071l-1.431,12.953l-1.673,8.502l-2.54,10.455l-2.953,19.316l-2.877,7.495l-4.978,22.775l-4.719,14.728l-7.665,29.817l-8.156,28.083l-1.846,12.19l-4.402,13.044l-8.259,29.517l-5.634,22.003l-2.317,12.436l-8.453,35.134l-2.07,32.6l-4.395,39.971l-5.04,43.647l-3.684,34.721l-7.131,41.277l-5.134,16.409l-0.63,16.263l-3.499,13.798l-1.681,9.127l-6.923,44.052l-4.043,32.98l-2.058,19.89l-5.899,16.085l0.949,11.392l1.324,34.967l-1.244,44.632l0.146,24.263l-1.26,17.339l-16.107,34.508l-5.549,23.742l-5.562,18.879l0.257,6.87l5.5,16.301l2.299,10.643l1.303,6.575l-935.721,0" style="fill:#140000;"/></svg>