<?xml version="1.0" encoding="UTF-8" standalone="no"?><!DOCTYPE svg PUBLIC "-//W3C//DTD SVG 1.1//EN" "http://www.w3.org/Graphics/SVG/1.1/DTD/svg11.dtd"><svg width="100%" height="100%" viewBox="0 0 3299 4948" version="1.1" xmlns="http://www.w3.org/2000/svg" xmlns:xlink="http://www.w3.org/1999/xlink" xml:space="preserve" xmlns:serif="http://www.serif.com/" style="fill-rule:evenodd;clip-rule:evenodd;stroke-linejoin:round;stroke-miterlimit:2;"><rect x="0" y="0" width="3299" height="4948" style="fill:#ebebeb;fill-opacity:0;"/><g id="tshirt"><path d="M389.35,3684.32l-7.658,-2.683l-7.484,0.553l-9.602,0.262l-7.061,-2.259l-8.614,-3.672l-7.202,-1.412l-7.484,-0.002l-10.591,-1.553l-10.458,-6.637l-5.679,-8.755l-1.987,-10.873l0.131,-9.179l0.972,-9.743l0.693,-11.297l-0.717,-13.98l-0.43,-7.061l-4.236,-4.801l-1.02,-8.896l4.882,-8.049l5.022,-3.107l6.137,-2.683l8.37,-0.432l4.701,-24.865l1.381,-17.651l2.645,-18.736l3.1,-31.644l2.645,-31.283l1.672,-26.134l1.252,-23.865l0.901,-30.2l1.835,-33.901l1.724,-34.291l-0.296,-24.006l-0.851,-20.899l2.702,-19.925l3.348,-16.38l2.092,-20.476l2.511,-17.227l2.65,-14.404l1.976,-11.324l-1.13,-11.579l0.277,-11.438l3.906,-13.839l4.045,-12.285l1.953,-10.45l0.401,-14.545l1.076,-12.169l1.419,-15.367l8.16,-27.026l14.148,-36.067l17.576,-35.02l14.367,-24.289l16.37,-22.593l17.074,-17.759l21.006,-21.78l20.434,-14.685l21.669,-10.476l37.789,-13.589l59.178,-24.702l13.167,-4.841l33.605,-10.56l31.569,-8.826l33.667,-10.098l20.948,-6.794l19.843,-4.541l16.291,-5.237l8.484,-1.506l8.19,-0.439l6.954,-0.261l5.264,-7.025l4.599,-5.078l7.022,-2.793l15.7,-2.139l13.932,-1.339l13.331,-2.76l10.033,-1.949l10.163,-2.269l9.085,-3.47l7.069,-2.37l10.786,0.158l10.348,2.804l7.404,3.01l7.692,0.745l3.267,1.429l-2.539,3.177l-6.094,2.341l-6.433,1.087l-10.918,-0.254l-5.163,2.508l-5.756,3.679l-7.448,4.431l-6.856,4.598l-3.893,5.435l-0.028,6.74l0.327,9.197l2.874,12.184l4.513,15.551l4.896,15.012l4.594,13.888l3.39,13.327l4.296,12.847l4.126,10.8l6.019,13.544l5.678,11.705l19.864,32.583l9.733,13.223l16.517,20.55l13.886,13.509l20.714,18.586l14.52,12.587l14.353,11.438l9.83,6.742l8.996,6.551l11.937,7.839l20.019,12.252l9.111,5.745l12.344,6.91l12.173,6.195l21.589,9.916l17.808,7.302l26.766,10.183l12.845,5.268l14.164,5.069l11.897,4.557l16.115,6.104l12.239,3.685l9.626,2.099l13.257,1.139l10.695,0.5l9.377,0.027l9.117,0.283l6.609,-0.163l7.297,-0.941l7.089,-1.87l14.223,-3.66l11.639,-3.692l10.903,-3.279l8.987,-3.516l10.443,-4.728l10.739,-5.077l21.231,-13.02l12.039,-8.391l11.478,-8.768l8.925,-8.217l8.845,-6.895l7.825,-7.113l17.6,-17.498l9.257,-10.885l6.774,-8.558l12.364,-14.72l13.297,-17.365l6.787,-11.696l5.556,-11.471l9.075,-17.265l4.053,-11.201l4.38,-15.014l2.151,-18.664l2.985,-21.308l1.956,-13.615l0.101,-12.937l-0.185,-12.873l-1.216,-8.408l-2.263,-7.477l-7.525,-9.813l-4.445,-4.203l-8.528,-5.982l-8.49,-5.316l-4.729,-3.273l-0.127,-4.244l3.633,-5.295l1.956,-2.02l4.853,0.638l7.655,-0.087l8.29,0.109l5.989,-0.357l7.452,0.2l8.251,3.113l7.239,3.575l8.881,4.655l8.783,5.629l7.086,4.463l10.036,7.758l3.634,2.197l9.485,1.296l7.319,1.048l7.328,0.729l4.591,1.48l8.331,1.88l8.544,0.931l7.145,0.934l5.172,1.397l10.176,3.589l8.943,3.422l16.231,5.385l11.228,3.523l20.624,7.383l7.308,1.517l7.031,1.528l13.07,1.857l5.314,1.277l7.479,0.842l1.899,0.04l5.927,5.542l1.674,8.22l0.666,107.751l0.24,73.926l-0.081,56.7l-0.172,51.369l-2.5,48.577l-1.174,29.377l-1.218,33.023l-0.927,12.635l-2.311,5.328l-6.298,3.081l-13.69,8.669l-15.533,11.525l-12.064,10.022l-8.424,11.183l-7.899,11.876l-7.806,14.487l-4.212,12.137l-1.603,15.842l-1.143,13.87l1.191,12.57l1.56,10.749l2.948,7.542l3.901,7.368l5.619,13.466l8.348,14.04l18.404,25.803l9.78,21.461l9.866,16.317l10.435,22.34l-2.696,6.233l-0.972,5.312l7.02,6.261l-0.581,9.867l-1.344,7.589l-21.128,-7.683l-6.339,-0.389l-6.535,6.071l4.933,7.779l-9.796,4.168l-10.948,-0.197l-6.545,5.668l-2.883,5.882l18.024,5.123l-2.602,6.823l-13.83,-1.162l5.765,0.485l18.521,11.848l18.974,5.502l4.914,14.61l-2.629,10.678l-4.54,14.831l-3.375,16.67l-5.47,16.785l-4.19,13.068l-7.838,18.944l-6.364,17.937l-4.772,18.739l-4.756,22.724l-1.75,17.143l-1.164,7.473l-8.729,19.314l-6.606,20.184l-6.75,19.781l-4.423,17.475l-3.491,10.807l-3.725,14.026l-2.328,9.428l-1.28,11.496l-1.164,7.588l-5.237,8.623l-4.322,17.236l-4.655,11.842l-4.54,14.486l-4.306,12.876l-4.086,11.957l-9.384,20.431l-10.707,21.844l-12.07,29.946l-7.333,13.221l-12.104,18.165l-9.427,17.13l-10.618,18.572l-7.333,14.026l-11.522,22.994l-10.634,22.19l-8.962,19.889l-8.496,20.12l-11.183,26.588l-2.56,4.829l-29.859,12.435l-29.043,14.14l-25.415,14.62l-30.633,15.122l-32.244,16.083l-23.844,14.585l-25.338,16.719l-11.318,10.34l-15.247,5.863l-15.363,-0.705l-12.221,1.953l-9.839,2.874l-5.007,8.737l-7.246,4.822c0,0 -9.078,4.599 -13.268,5.173c-4.19,0.575 -21.882,6.417 -21.882,6.417l-18.872,4.136l-17.109,2.185l-17.804,4.608l-9.427,4.024l-21.389,-11.772l-50.472,-34.306l-35.532,-23.127l-23.26,-15.717l-23.922,-15.395l-20.637,-15.553l-42.138,-39.4l-29.975,-29.011l-24.862,-22.054l-20.058,-17.932l-25.395,-19.007l-37.859,-32.336l-33.34,-27.382l-28.541,-23.55l-19.28,-15.231l-13.501,-13.501l-4.914,-9.241l-4.627,-7.419l1.719,-18.156l1.256,-14.441l2.216,-18.818l3.564,-19.436l4.713,-16.644l7.587,-33.075l6.809,-34.764l4.022,-28.864l1.822,-28.943l1.055,-32.672l-1.514,-37.757l-1.529,-25.256l-0.819,-19.99l-3.873,-12.595l-5.471,-8.845l-15.479,-7.449l-43.415,-12.894l-51.409,-10.758l-75.408,-9.209l-53.315,-5.828l-54.044,-4.891l-27.605,-1.17l-11.369,-0.701l-2.701,7.435Z"/><path d="M618.255,4434.08l-3.643,17.897l-2.942,13.517l-2.802,16.745l-4.623,15.776l-3.922,11.486l-3.783,10.102l-0.981,6.366l-5.183,5.95l-12.889,12.178l-10.169,8.964l-5.463,4.282l-3.923,4.705l-6.444,2.906l-6.725,8.026l-5.272,12.619l-3.928,16.883l-3.695,16.76l-2.662,8.442l-2.385,11.901l-2.038,10.167l-1.823,7.335l-2.102,7.888l-3.362,8.995l-2.382,8.165l3.045,6.781l3.736,4.013l0.125,9.548l-0.765,6.716l-0.016,12.178l-0.606,12.691l-0.022,9.825l-1.123,7.738l9.549,-15.41l4.975,-14.01l1.66,-9.106l5.536,-7.845l8.165,-6.445l8.441,-6.724l6.366,-7.425l5.951,-7.705l6.227,-6.725l6.504,-9.526l4.982,-7.005l5.373,-9.95l9.549,-10.367l11.763,-6.164l9.087,-5.058l16.422,-5.323l14.115,-5.044l11.625,-5.883l8.164,-8.967l9.964,-7.845l10.933,-4.763l12.316,-5.604l11.071,-4.343l10.645,-5.744l10.335,-3.287l13.147,-5.463l14.715,-3.896l13.008,-5.744l9.825,-5.323l-12.89,-8.966l-14.15,-6.725l-14.289,-7.705l-16.531,-8.826l-23.017,-17.307l-23.536,-15.55l-20.741,-16.671l-16.391,-11.204l-10.787,-9.671l-11.488,-8.685l-5.323,-2.662l-2.503,3.121Z"/></g></svg>