<?xml version="1.0" encoding="UTF-8" standalone="no"?><!DOCTYPE svg PUBLIC "-//W3C//DTD SVG 1.1//EN" "http://www.w3.org/Graphics/SVG/1.1/DTD/svg11.dtd"><svg width="100%" height="100%" viewBox="0 0 6016 4016" version="1.1" xmlns="http://www.w3.org/2000/svg" xmlns:xlink="http://www.w3.org/1999/xlink" xml:space="preserve" xmlns:serif="http://www.serif.com/" style="fill-rule:evenodd;clip-rule:evenodd;stroke-linejoin:round;stroke-miterlimit:2;"><rect x="0" y="0" width="6016" height="4016" style="fill:#ebebeb;fill-opacity:0;"/><path id="tshirt" d="M3751.89,0l67.018,76.767l50.094,67.694l41.971,54.833l76.787,112.482l71.263,96.502l37.667,63.424l70.402,87.326l66.341,75.818l80.373,78.936l91.388,85.295l80.632,60.925l117.721,90.577l66.04,51.632l96.127,68.372l89.056,64.494l71.305,53.712l62.279,50.094l66.341,45.356l75.517,44.862l76.946,49.225l72.492,49.785l61.602,46.709l67.695,49.417l65.17,58.276l67.795,73.244l61.235,80.156l39.263,39.939l37.232,31.817l24.37,46.032l21.662,56.187l35.97,98.112l28.39,66.979l27.755,64.31l38.586,67.695l24.37,57.54l26.401,46.71l36.53,40.148l43.324,45.356l29,28.432l0,1590.83l-6016,0l0,-4016l3751.89,0Z" style="fill-opacity:0.77;"/></svg>