<?xml version="1.0" encoding="UTF-8" standalone="no"?><!DOCTYPE svg PUBLIC "-//W3C//DTD SVG 1.1//EN" "http://www.w3.org/Graphics/SVG/1.1/DTD/svg11.dtd"><svg width="100%" height="100%" viewBox="0 0 3478 5217" version="1.1" xmlns="http://www.w3.org/2000/svg" xmlns:xlink="http://www.w3.org/1999/xlink" xml:space="preserve" xmlns:serif="http://www.serif.com/" style="fill-rule:evenodd;clip-rule:evenodd;stroke-linejoin:round;stroke-miterlimit:2;"><rect x="0" y="0" width="3478" height="5217" style="fill:#fff;fill-opacity:0;"/><path id="tshirt" d="M1448.63,3462.87l8.569,3.955l11,3.358l10.305,4.016l16.542,5.331l21.565,6.357l20.301,5.943l16.906,3.813l17.099,3.73l25.936,4.443l27.74,4.008l21.302,1.629l13.135,0.598l22.232,0.707l17.243,0.318l15.999,-0.005l22.592,0.315l15.459,0.035l8.112,-2.996l5.943,-5.626l4.047,-5.17l7.597,-8.407l4.849,-5.341l3.083,-3.537l1.542,-2.289l4.145,-4.578l8.752,-8.242l8.131,-8.755l7.29,-7.843l5.778,-8.031l9.581,-15.859l4.86,-7.772l3.627,-3.163l5.229,-1.751l11.189,-2.104l14.291,-3.034l18.829,-4.965l18.955,-4.962l15.78,-5.653l8.468,-2.99l8.341,-3.558l5.724,-1.83l1.552,-1.616l-0.633,-3.771l-1.93,-3.411l-1.212,-2.738l-0.989,-3.276l-1.032,-1.571l-0.494,-2.604l0.266,-3.591l-0.047,-3.546l-3.661,-2.771l-2.629,-2.723l0.396,-4.264l1.641,-5.207l0.31,-5.611l-1.257,-5.835l-2.154,-5.027l-2.649,-9.754l-2.729,-12.452l-3.646,-10.726l-3.312,-9.077l-2.643,-8.234l-2.032,-6.874l-1.364,-4.225l-1.167,-3.95l-1.078,-3.007l0.976,-5.566l1.507,-5.297l2.349,-10.907l0.532,-6.508l0.562,-13.891l0.04,-11.401l-0.001,-6.464l-1.013,-10.195l-0.905,-9.36l-1.44,-15.758l-1.55,-16.326l-1.427,-14.446l-1.405,-11.172l-0.492,-5.253l1.657,-7.248l2.864,-10.725l1.542,-12.147l1.788,-11.347l2.455,-16.599l3.783,-17.026l2.811,-14.122l2.216,-7.017l5.168,-24.785l3.273,-22.801l2.795,-17.309l0.985,-15.146l-3.427,-12.788l-1.096,-8.765l-0.94,-8.138l-2.817,-6.574l-1.8,-4.46l-0.08,-7.904l0.796,-18.323l-1.018,-9l-1.957,-9.782l-1.486,-8.999l-0.017,-13.225l0.224,-7.513l0.232,-7.278l9.997,-0.477l16.809,1.384l21.103,1.792l24.908,2.501l20.949,2.62l29.688,3.893l6.908,1.212l0.541,3.71l0.54,8.04l0.696,6.106l1.082,3.711l4.793,0.769l9.495,-0.861l11.131,-1.095l12.059,-2.583l14.223,-2.348l10.17,-1.878l9.665,-2.136l12.74,-3.714l6.384,-2.791l4.333,-2.057c0,0 0.86,-0.79 0.741,-2.015c-0.119,-1.225 -0.395,-2.964 -0.395,-2.964l-1.028,-2.963l-1.936,-4.031l-1.512,-6.264l-1.346,-5.177l-0.751,-3.477l-2.956,-5.483l-2.061,-11.598l-2.677,-6.447l-3.201,-8.693l-2.599,-5.909l-1.462,-6.006l-1.321,-9.468l-1.551,-6.942l-1.265,-5.571l-2.602,-7.153l-1.108,-8.377l-1.235,-8.599l-1.383,-7.845l-1.878,-8.479l-1.896,-8.091l-1.947,-8.544l-1.623,-14.889l-1.264,-9.289l-2.489,-11.285l-0.791,-9.924l-3.295,-15.661l-1.749,-11.691l-2.188,-12.688l-2.284,-8.805l-3.051,-12.212l-4.244,-15.558l-4.342,-13.2l-7.15,-21.327l-7.561,-18.918l-5.092,-16.668l-1.741,-6.243l-1.62,-5.475l-1.857,-6.282l-2.964,-6.164l-1.462,-3.122l-0.024,-4.582l-1.265,-1.897l-0.76,-5.571l-2.252,-4.228l-6.164,-8.338l-6.285,-7.354l-8.221,-9.11l-7.549,-7.745l-6.796,-5.809l-11.167,-8.567l-12.286,-8.471l-16.859,-10.31l-15.301,-8.597l-9.698,-6.715l-8.864,-6.115l-7.807,-4.432l-8.259,-3.674l-11.045,-4.039l-11.048,-4.595l-8.024,-3.2l-5.453,-4.307l-4.149,-4.228l-5.927,-2.49c0,0 -5.195,-2.214 -6.736,-2.609c-1.541,-0.395 -8.304,-2.995 -8.304,-2.995l-5.374,-3.556l-8.556,-4.426l-7.849,-2.7l-7.511,-3.003l-6.86,-3.093l-4.781,-1.699l-8.872,-2.608l-6.27,-2.298l-2.815,0.508c0,0 -5.711,-1.384 -6.936,-1.503c-1.225,-0.118 -11.993,-2.582 -11.993,-2.582l-12.045,-2.007l-11.736,-1.857l-16.922,-1.158l-16.201,-1.249l-12.907,-0.808l-12.678,-1.461l-13.943,-2.424l-14.838,-1.819l-14.581,-0.985l-25.102,-1.206l-10.868,-0.597l-8.443,0.244l-6.243,1.249l-4.386,2.85l-6.006,2.966l-5.377,2.476l-8.955,3.367l-5.651,2.616l-4.504,1.522l-4.284,3.579l-3.122,2.264l-3.912,1.991l-5.729,2.029l-8.664,4.772l-7.124,3.701l-6.72,4.159l-4.863,2.572l-7.231,3.551l-11.685,4.372l-10.796,4.551l-12.051,5.748l-10.395,4.978l-11.266,6.875l-9.115,5.038l-6.52,4.054l-5.532,3.669l-11.374,4.666l-11.617,4.957l-9.34,3.503l-10.239,3.925l-9.515,4.186l-5.576,2.964l-4.267,2.537l-4.386,2.576l-3.557,2.458l-9.012,7.338l-7.612,7.395l-4.979,4.801l-4.228,4.489l-1.185,2.341l-0.869,1.991l-3.082,2.615l-4.228,3.864l-1.608,2.731l-2.292,3.63l-1.304,4.02l-0.791,3.864l-3.082,5.113l-5,7.435l-6.502,7.934l-5.551,9.196l-4.959,8.325l-5.079,8.947l-3.688,8.444l-1.782,6.162l-1.897,5.581l-2.714,8.237l-2.471,6.866l-1.659,5.425l-1.344,5.916l-1.109,5.72l-0.713,6.306l-0.91,5.881l-0.083,6.714l0.374,7.168l-0.317,8.392l-0.317,4.84l-5.294,8.157l-6.804,9.051l-2.195,5.404c0,0 -2.568,5.23 -2.885,6.44c-0.316,1.21 -3.657,9.345 -3.657,9.345l-2.571,6.629l-1.207,6.05l-0.929,6.468l-0.728,7.02l-0.356,5.152l-0.553,4.762l-0.598,5.131l-2.331,6.089l-1.62,3.826l-0.948,3.42l-0.829,4.138l-1.462,6.518l-3.194,13.304l-1.036,8.39l-0.555,3.981l-1.857,2.771l-0.082,3.279l0.023,2.65l-0.633,4.996l-0.355,3.591l-1.028,4.177l-1.462,4.567l-1.305,5.265l0.781,5.543l2.927,5.386l3.748,4.606l4.37,5.05l2.771,2.42l4.489,1.952l4.372,1.288l5.699,1.991l5.425,2.459l5.114,1.561l6.015,1.288l7.537,1.406l6.77,0.713l9.559,0.55l9.272,0.152l7.82,0.36l8.348,-0.169l8.515,-0.766l7.013,-1.009l3.708,-0.711l-0.593,8.196l0.103,7.101l0.75,5.642l-0.005,7.104l-0.081,4.918l0.427,7.884l0.833,12.539l0.344,9.121l0.935,8.353l1.195,10.947l0.897,10.538l0.739,7.182l0.295,9.067l0.075,9.445l0.501,6.471l1.092,11.306l1.178,7.932l1.324,10.869l0.615,13.674l0.42,22.179l1.83,10.521l2.632,12.277l0.897,8.371l1.783,15.27l1.301,7.33l1.117,7.997l2.333,7.304l1.912,5.035l0.229,3.981l-1.958,6.644l-2.924,6.714l-3.398,8.509l-3.507,8.938l-2.588,11.322l-2.015,8.587l-1.778,8.392l-1.705,10.828l0.031,6.477l-1.304,7.104l0.012,4.858l0.115,4.567l0.577,5.647l5.51,7.224l2.732,3.434l1.835,3.279l0.779,5.074l-2.094,7.768l-1.274,3.8l-0.435,2.889l-1.62,5.035l-0.83,4.723l-0.955,6.673l-0.761,9.641c0,0 0.474,7.159 0.395,9.189c-0.079,2.03 0.113,8.119 0.113,8.119l0.074,8.118l-0.293,9.637l-1.898,7.845l-2.526,6.222l-3.004,8.743l-3.746,6.935l-3.24,5.933l-2.297,6.593l-0.002,5.384l2.107,8.57l0.451,8.428l0.987,9.634l1.48,7.416l2.412,10.906l2.459,7.36l1.717,7.923l2.659,9.097l1.367,4.918l1.795,6.479l0.794,4.281l0.443,6.583l-0.006,9.563l-0.205,8.994l0.067,4.796l0.585,4.645l2.654,5.933l3.869,5.876l6.423,7.606l13.89,8.885l8.982,5.354l7.837,4.857l15.002,8.492l6.48,3.045l5.933,3.201l3.899,2.011Z"/></svg>