<?xml version="1.0" encoding="UTF-8" standalone="no"?><!DOCTYPE svg PUBLIC "-//W3C//DTD SVG 1.1//EN" "http://www.w3.org/Graphics/SVG/1.1/DTD/svg11.dtd"><svg width="100%" height="100%" viewBox="0 0 3486 4817" version="1.1" xmlns="http://www.w3.org/2000/svg" xmlns:xlink="http://www.w3.org/1999/xlink" xml:space="preserve" xmlns:serif="http://www.serif.com/" style="fill-rule:evenodd;clip-rule:evenodd;stroke-linejoin:round;stroke-miterlimit:2;"><rect x="0" y="0" width="3486" height="4817" style="fill:#fff;fill-opacity:0;"/><path id="tshirt" d="M1498.91,4494.77l-57.352,-24.839l-45.495,-22.608l-27.947,-14.14l-32.106,-15.804l-40.935,-20.335l-27.449,-15.97l-26.783,-14.639l-37.429,-19.963l-28.369,-10.147l-11.235,-3.826l-15.7,-28.447l-28.996,-51.214l-19.216,-33.928l-13.556,-22.044l-15.933,-27.728l-12.998,-20.741l19.958,-25.893l4.268,-7.889l-0.846,-21.293l-0.963,-24.491l-2.041,-18.501l-0.359,-19.143l2.629,-17.224l-3.361,-14.335l-2.995,-17.799l1.309,-13.974l1.972,-9.649l-3.66,-14.971l-4.348,-17.812l-4.68,-19.066l1.296,-17.633l-1.172,-13.309l-3.993,-21.126l-2.661,-7.653l-11.146,2.958l-12.476,1.643l-6.155,-0.831l10.056,-27.161l5.216,-26.125l6.033,-26.783l5.326,-27.893l3.296,-21.001l4.07,-32.106l4.142,-35.221l5.721,-31.815l1.063,-18.041l0.855,-21.872l0.237,-16.161l1.383,-22.826l0.299,-15.206l0.19,-14.106l1.21,-12.721l1.69,-9.642l-0.513,-5.134l-1.633,-4.277l-4.278,-7.931l-5.677,-5.755l-9.528,-6.768l-9.72,-5.288l-8.404,-3.499l-10.617,-4.199l-10.187,-4.511l-15.28,-5.699l-14.594,-3.463l-16.175,-3.968l-15.938,-1.663l-11.197,-1.788l-11.198,-1.789l-15.553,-2.412l-21.914,-3.159l-28.369,-3.62l-21.587,-2.335l-12.418,-1.42l-15.949,-0.08l-17.46,-0.083l-15.899,-0.008l-16.641,0.457l-16.928,1.951l-12.597,1.382l-14.792,1.843l-16.747,3.782l-14.775,2.381l-7.621,1.46l-6.377,4.378l-4.259,8.953l-1.79,11.369l-5.11,17.659l-4.36,12.95l-2.177,11.693l-2.411,10.831l-2.333,8.68l-2.877,0.679l-7.465,-4.044l-8.596,-4.842l-5.796,-4.842l-6.143,-5.444l-6.61,-6.843l-7.776,-5.521l-2.955,-3.344l-3.577,-6.065l-2.267,-10.187l-0.552,-7.854l-0.933,-6.377l3.061,-9.487l6.896,-11.309l5.124,-11.046l5.44,-12.697l6.596,-15.038l4.148,-11.354l3.534,-10.886l2.458,-8.399l2.435,-9.488l5.941,-17.972l4.112,-14.233l3.227,-11.198l3.303,-10.575l2.458,-9.098l3.303,-10.11l6.564,-15.108l3.847,-11.807l4.379,-12.364l2.765,-10.265l4.225,-11.898l4.071,-11.197l6.261,-12.16l1.613,-9.565l3.455,-8.165l1.765,-8.942l1.998,-10.809l3.624,-6.661l2.305,-7.699l0.143,-12.753l0.994,-9.02l0.768,-10.568l1.864,-10.51l0.919,-12.131l1.306,-8.631l2.304,-10.032l2.653,-11.02l2.562,-14.754l1.306,-10.654l2.94,-12.298l3.219,-12.908l2.993,-14.153l6.072,-16.486l3.909,-13.836l4.323,-13.339l3.093,-11.239l6.32,-12.873l2.496,-7.935l4.252,-9.671l4.757,-9.565l4.767,-10.147l4.763,-8.01l5.367,-10.821l7.261,-13.343l7.951,-12.074l4.795,-8.411l7.681,-10.498l8.45,-10.498l6.913,-8.554l8.416,-9.274l8.465,-7.602l10.497,-8.531l10.072,-6.652l14.117,-10.533l7.767,-7.175l6.546,-8.616l4.609,-8.787l4.609,-9.643l1.459,-5.443l4.609,-6.766l10.993,-7.563l8.723,-6.688l7.451,-5.288l4.875,-4.657l5.454,-4.51l3.61,-4.977l6.222,-4.277l10.336,-2.883l7.682,-3.577l8.586,-3.731l8.475,-0.306l9.953,-2.481l9.726,-2.364l8.706,-0.413l9.994,-0.388l6.538,-0.778l10.165,-6.657l9.833,-5.832l7.45,-4.511l11.838,-3.914l9.525,-4.903l10.422,-5.544l20.774,-6.656l14.655,-6.657l12.956,-3.931l16.634,-1.761l11.42,-0.197l9.389,-0.508l10.076,-4.865l6.449,-7.209l8.006,-6.927l6.785,-3.582l18.319,-5.922l13.595,-1.91l8.39,-1.52l7.64,0.924l6.034,-1.478l9.832,-4.354l13.613,-6.4l13.918,-7.571l16.139,-6.648l16.012,-6.775l19.142,-5.483l8.808,0.151l8.712,-4.272l10.763,-9.218l10.636,-6.911l9.721,-4.319l7.682,-3.655l13.459,-3.484l9.175,-3.033l13.084,-1.4l10.106,-0.623l5.06,2.29l4.651,-3.111l7.784,-7.56l2.611,-1.4l4.302,2.074l1.536,4.609l-1.944,4.84l-4.199,5.991c0,0 -1.247,5.377 -1.713,7.605c-0.467,2.227 -0.623,8.987 -1.479,10.984c-0.855,1.997 -1.401,10.677 -1.401,10.677l0.987,24.858l1.759,14.318l2.612,11.675l3.225,14.518l7.221,18.858l5.069,9.141l20.333,30.005l17.032,14.862l11.061,10.6l11.906,8.757l15.831,9.226l24.67,15.284l14.663,7.36l17.11,7.28l15.49,7.294l25.587,7.56l16.182,1.905l14.091,0.573l23.581,2.77l27.049,0.79l20.427,-0.421l20.088,-0.189l11.599,-1.477l26.252,-3.696l25.357,-5.947l31.21,-11.263l21.703,-9.654l19.113,-8.527l8.68,-6.221l10.617,-7.43l9.448,-7.231l8.219,-7.31l12.293,-10.125l6.837,-7.621l18.262,-21.844l6.787,-10.318l5.985,-12.087l5.782,-12.37l6.751,-17.611l3.917,-12.131l3.763,-12.639l1.942,-13.745l0.558,-12.968l-1.114,-12.172l-4.821,-9.954l-6.144,-6.843l-9.534,-9.975l-5.882,-4.114l-7.076,-7.077l-4.977,-8.243l1.151,-3.343l9.38,3.072l12.376,4.043l9.986,4.455l8.27,5.824l7.835,5.454l5.684,4.532l4.84,2.534l7.203,1.577l5.761,-0.544l7.161,1.383l10.046,4.441l9.26,4.071l36.946,18.247l10.718,5.935l20.934,7.754l22.167,8.849l20.612,8.456l17.607,7.608l14.774,6.123l34.827,17.177l18.589,8.324l22.667,10.394l18.996,9.897l40.496,18.768l22.255,12.253l29.369,14.507l17.59,11.289l18.98,10.286l16.319,7.971l14.364,8.903l19.553,10.926l10.754,7.22l15.713,8.267l17.325,9.839l14.204,8.818l10.996,8.546l4.609,5.531l6.054,10.199l8.407,11.907l18.01,22.313l11.006,17.18l12.451,15.135l15.029,18.927l13.295,19.304l16.192,26.632l5.685,16.524l8.837,16.402l10.442,27.278l6.681,17.949l11.275,23.53l5.377,15.209l7.59,18.431l7.329,17.222l15.19,32.398l10.325,26.354l7.757,20.714l8.934,19.673l4.881,14.655l5.851,16.361l8.662,20.498l4.997,15.662l7.272,21.43l5.23,16.123l3.075,18.239l4.077,12.008l2.918,15.55l6.131,17.77l3.094,20.671l6.726,19.794l4.05,20.893l6.228,18.298l5.483,25.494l1.613,11.565l2.919,9.601l6.745,12.111l2.072,12.136l3.861,11.258l3.84,11.138l3.289,9.926l2.305,11.983l-0.238,11.061l-1.711,8.142l-9.068,7.877l-8.488,6.107l-15.067,5.23l-22.365,9.009l-13.297,5.223l-9.098,2.074l-2.878,-8.243l-3.774,-14.636l-3.329,-12.59l-3.969,-11.416l-19.798,0.428l-15.092,2.147l-16.048,0.845l-17.574,1.993l-23.785,2.975c0,0 -14.936,0.461 -19.835,1.229c-4.899,0.768 -17.108,2.842 -19.829,2.996c-2.722,0.153 -14.387,1.459 -16.642,1.766c-2.255,0.308 -17.191,1.766 -17.191,1.766c0,0 -13.297,1.304 -16.019,1.688c-2.722,0.384 -16.88,2.689 -16.88,2.689l-15.826,2.653l-42.918,8.427l-16.486,3.532l-23.169,5.314l-19.737,4.559l-20.527,6.36l-19.756,6.434l-10.27,5.035l-9.385,6.033l-2.955,5.915l0.12,10.682l-0.003,14.185l-3.577,8.296l-3.862,21.147l-3.603,8.827l-2.877,14.945l-3.966,13.954l-7.006,18.781l-3.811,10.216l-2.976,12.854l-2.48,8.808c0,0 0.541,2.688 0.308,5.146c-0.234,2.459 -0.703,16.149 -0.703,16.149l-0.896,15.733l-0.86,9.525l-1.346,16.114l-1.017,20.557l-0.003,14.595l-1.297,21.279l-0.778,9.115l-2.333,12.598l-3.733,6.606l0.802,11.619l-1.088,10.6l-2.411,8.45l-1.4,5.53l1.077,16.481l1.229,8.757l-0.625,11.599l-3.935,14.706l-1.965,7.57l-1.668,6.545l-1.556,7.451l-2.964,13.672l-2.221,6.243l1.235,8.747c0,0 0.154,1.46 0.692,3.688c0.537,2.227 6.452,12.136 6.452,12.136l12.674,16.895l17.91,28.39l10.634,16.566l12.169,16.021l11.693,20.616l4.126,10.806l1.381,7.988l2.074,5.07l-9.744,18.018l-23.803,38.465l-26.692,42.574l-30.695,49.536l-29.311,55.636l-16.316,42.698l-14.862,36.646l-11.244,34.616l-8.9,27.792l-11.514,30.449l-7.321,13.041c0,0 -12.795,3.917 -15.205,4.455c-2.411,0.538 -22.516,4.93 -22.516,4.93l-12.806,1.151l-12.795,-0.083l-8.32,-0.469l-13.249,-1.812c0,0 -20.084,-2.961 -22.805,-3.272c-2.722,-0.311 -22.189,-3.412 -24.755,-3.879c-2.567,-0.466 -28.149,-3.992 -28.149,-3.992l-16.294,-3.443c0,0 -11.954,1.127 -14.287,1.588c-2.333,0.461 -14.402,4.629 -14.402,4.629c0,0 -19.242,2.66 -22.005,3.351c-2.764,0.691 -22.715,4.58 -22.715,4.58c0,0 -13.297,4.068 -16.796,4.836c-3.5,0.768 -18.623,5.634 -18.623,5.634c0,0 -10.671,4.092 -12.615,4.937c-1.944,0.845 -9.371,2.813 -12.637,2.113c-3.266,-0.7 -17.622,-1.479 -17.622,-1.479l-7.31,3.534c0,0 -0.078,3.149 -2.333,3.61c-2.255,0.461 -16.61,5.303 -16.61,5.303c0,0 -19.241,0.87 -21.346,0.792c-2.106,-0.078 -15.712,-0.079 -18.864,-0.312c-3.153,-0.233 -13.381,0.23 -17.269,-0.158c-3.889,-0.389 -20.181,-2.199 -20.181,-2.199c0,0 -9.487,-1.322 -12.986,-1.322c-3.499,0 -21.989,-0.295 -24.244,-0.372c-2.255,-0.078 -10.109,-1.089 -14.697,-1.322c-4.588,-0.234 -12.835,-1.152 -17.967,-2.162c-5.132,-1.011 -18.088,-4.532 -20.888,-5.465c-2.799,-0.933 -12.364,-3.655 -15.397,-4.665c-3.033,-1.011 -10.887,-3.422 -13.764,-4.433c-2.877,-1.011 -17.703,-10.989 -17.703,-10.989l-14.822,-7.875l-17.865,-6.803c0,0 -14.881,-3.966 -18.536,-5.288c-3.655,-1.322 -9.834,-3.167 -15.169,-5.288c-5.336,-2.12 -23.538,-10.135 -25.404,-11.301c-1.866,-1.167 -18.984,-7.57 -18.984,-7.57l-15.294,-7.605l-17.984,-7.757l-16.239,-8.892l-10.079,-4.474l-8.897,-3.847Z"/></svg>