<?xml version="1.0" encoding="UTF-8" standalone="no"?><!DOCTYPE svg PUBLIC "-//W3C//DTD SVG 1.1//EN" "http://www.w3.org/Graphics/SVG/1.1/DTD/svg11.dtd"><svg width="100%" height="100%" viewBox="0 0 3000 3000" version="1.1" xmlns="http://www.w3.org/2000/svg" xmlns:xlink="http://www.w3.org/1999/xlink" xml:space="preserve" xmlns:serif="http://www.serif.com/" style="fill-rule:evenodd;clip-rule:evenodd;stroke-linejoin:round;stroke-miterlimit:2;"><rect x="0" y="0" width="3000" height="3000" style="fill:#fff;fill-opacity:0;"/><path d="M507.991,2786.61l1.371,-10.694l1.451,-8.245l2.173,-10.123l0.874,-10.694l-0.475,-13.171l2.576,-10.449l2.258,-7.102l5.403,-9.551l4.919,-6.939l3.709,-6.776l2.823,-4.816l-0.789,-14.363l0.067,-14.449l1.284,-11.674l5.043,-19.394l2.417,-15.365l2.258,-12.898l2.087,-12.779l1.309,-14.792l-0.541,-35.982l3.466,-16.943l0.484,-14.286l0.724,-16.98l-0.317,-25.632l0.797,-24.946l1.251,-21.757l-0.092,-17.47l0.952,-22.377l-0.987,-19.166l0.017,-23.876l-0.574,-18.841l-0.035,-33.163l-0.622,-29.341l-1.289,-26.82l1.053,-27.891l-0.166,-21.713l1.574,-13.292l1.951,-14.537l1.486,-38.936l0.991,-25.302l1.207,-11.266l2.718,-18.834l1.303,-18.983l0.413,-29.604l-0.984,-15.021l-1.633,-12.49l-0.332,-25.816l-0.542,-22.051l0.332,-35.5l-0.395,-24.491l-1.095,-26.696l-1.489,-28.994l-1.573,-23.457l-2.375,-24.498l2.006,-23.674l1.129,-15.511l-0.329,-17.481l-1.8,-12.001l-0.445,-25.5l-0.995,-19.698l1.369,-24.49l0.401,-13.356l0.388,-16.408c0,0 2.028,-22.681 1.947,-22.762c-0.082,-0.082 0.811,-29.541 0.811,-29.541l-0.986,-18.497l-2.204,-20.463l-1.803,-19.807l0.097,-22.477l0.626,-15.829l1.855,-14.694l2.338,-14.286l1.854,-14.041l1.846,-16.409l0.264,-20.057l2.44,-26.787l4.455,-27.541l4.544,-24.032l4.533,-21.515l4.296,-15.277l3.73,-21.568l-0.262,-16.704l-1.877,-8l-4.245,-5.306l-3.674,-3.266l-4.898,4.677l-4.408,7.661l-5.225,6.693l-4.898,6.693l-5.959,6.451l-7.755,5.645l-12.295,8.624l-8.817,6.774l-7.962,9.295l-6.167,6.699l-5.796,6.451l-4.816,4.758l-5.959,4.919l-7.429,2.258l-4.735,5.238l-6.123,7.253l-6.858,7.016l-6.367,2.258l-6.857,-0.166l-12.17,-11.755l-10.694,-8.735l-7.287,-10.085l-2.788,-13.061l-9.388,-9.062l-17.224,-20.364l-10.918,-17.572l-9.736,-14.411l-12.461,-13.422l-17.299,-17.902l-15.51,-16.835l-25.284,-29.295l-28.079,-31.207l-31.706,-34.611l-17.201,-18.332l-17.072,-24.2l-19.684,-25.5l-24.227,-31.825l-20.444,-27.825l-20.365,-29.222l-15.993,-23.168l-15.94,-23.706l-15.622,-20.876l-10.764,-12.653l-2.556,-9.323l9.271,-9.38l23.427,-19.792l17.939,-14.354l17.315,-11.12l18.117,-8.65l26.267,-11.746l22.733,-16.931l19.019,-15.86l19.852,-11.838l15.241,-9.469l21.74,-14.605l23.555,-14.805l23.255,-17.151l30.323,-23.27l21.354,-15.563l8.36,-5.943l11.893,-11.24l15.91,-12.939l8.306,-8.408l8.291,-14.059l8.592,-8.986l15.069,-12.406l16.238,-10.773l12.162,-11.397l8.539,-12.912l10.78,-11.951l9.231,-9.926l12.206,-12.526l12.359,-11.295l18.484,-14.327l12.499,-7.366l9.354,-9.633l10.851,-12.43l11.7,-14.28l10.633,-12.347l8.467,-7.919l12.991,-6.966l12.491,-6.135l52.186,-22.456l47.371,-26.201l28.998,-15.955l42.524,-20.617l35.086,-14.62l43.187,-18.352l41.745,-14.665l34.474,-13.528l38.4,-14.129l24.851,-9.024l11.252,-3.265l14.123,-3.458l8.853,-4.148l18.858,-11.815l11.236,-6.21l8.642,-0.192l5.321,0.885l9.283,-1.633l9.533,-5.72l12.768,-6.505l16.759,-6.212l8.225,-3.102l8.306,-0.492l6.854,2.258l3.871,3.225l8.305,6.532l40.775,22.045l11.047,5l18.171,7.548l14.846,4.412l21.755,7.622l25.894,5.584l26.028,5.234l40.504,6.532l23.349,1.389l18.511,1.232l48.573,0.407l40.552,-2.28l41.31,-4.99l34.927,-4.964l39.222,-8.538l45.569,-13.008l35.199,-12.448l32.666,-12.584l18.508,-8.012l14.13,-5.736l18.256,-4.504l10.241,-2.64l10.349,0.965l16.364,7.491l15.546,8.598l12.49,5.351l9.73,2.178l12.329,-0.843l24.904,11.625l21.226,9.976l25.581,11.829l27.936,12.53l13.251,2.666l18.249,2.879l17.886,4.754l28.624,12.212l16.737,6.742l45.795,17.705l25.735,8.66l30.37,10.412l20.271,7.391l22.077,9.036l20.84,12.546l35.636,24.22l15.975,11.172l22.392,13.849l12.177,7.741l15.814,8.377l27.725,23.776l25.809,25.86l12.162,12.243l35.263,31.243l27.461,28.695l30.174,33.765l12.238,15.401l15.537,13.087l35.905,34.328l43.45,45.565l31.59,32.8l38.412,38.516l30.302,28.401l30.409,24.281l18.632,19.935l27.404,26.054l27.079,20.203l23.325,13.587l18.755,14.586l8.915,13.188l12.411,17.027l10.3,11.106l0.987,14.478l-8.49,6.128l-10.031,9.626l-28.973,30.091l-52.78,58.617l-55.282,58.745l-61.927,70.918l-37.348,40.025l-17.226,25.849l-15.173,25.848l-14.321,21.016l-14.673,24.403l-11.855,28.372l-7.437,21.279l-6.646,6.36l-7.551,4.362l-7.673,0.077l-15.919,-5.225l-14.069,-4.204l-22.257,-11.111l-22.396,-12.173l-19.962,-11.839l-21.958,-12.619l-9.485,-7.802l-7.554,-9.067l-10.562,-10.557l-7.103,-5.878l-6.449,-2.612l-17.847,3.551l-14.227,0.901l-2.123,3.226l1.855,6.37l3.145,7.499l1.309,12.392l-0.831,17.857l1.907,27.475l1.893,30.25l1.047,11.057l-1.613,22.211l-3.098,7.983l1.172,14.97l4.948,26.288l7.311,38.236l3.234,39.06l2.545,31.218l3.104,37.469l1.67,45.618l1.271,36.286l1.784,46.753l1.574,55.17l0.468,60.781l0.051,58.537l-2.216,55.734l-1.558,43.616l2.851,22.438l0.075,11.935l-1.633,12.983l1.669,20.76l4.004,32.85l4.714,49.762l0.099,32.649l0.003,29.775l0.751,42.577l1.794,47.442l2.373,46.467l2.95,57.832l2.676,55.6l0.088,51.269l0.262,56.975l5.224,78.616l3.821,65.2l5.815,33.65l-2.685,25.052l-4.342,21.732l-2.939,10.564l-3.755,8.386l-11.837,4.194c0,0 -7.554,0.504 -11.309,0.015c-3.756,-0.49 -11.146,-1.982 -11.146,-1.982l-34.271,3.694l-30.467,5.556l-30.587,0.232l-25.552,-0.095l-22.29,0.318l-18.127,0.158l-15.1,0.565l-9.287,1.092c0,0 -38.043,0.495 -41.309,0.817c-3.265,0.323 -74.232,1.723 -74.232,1.723l-39.424,1.611c0,0 -51.757,0.369 -54.532,0.611c-2.776,0.241 -32.899,-0.701 -32.899,-0.701c0,0 -50.807,4.066 -53.093,3.74c-2.286,-0.327 -2.694,-0.327 -2.694,-0.327c0,0 -41.558,-0.62 -45.558,-0.297c-4,0.322 -55.334,0.225 -57.783,0.225c-2.449,0 -64.708,0.009 -64.708,0.009l-23.301,-0.294l-16.615,1.369c0,0 -19.718,-1.105 -22.086,-1.105c-2.367,0 -17.7,-0.698 -20.966,-1.106c-3.265,-0.408 -14.146,-1.389 -14.146,-1.389l-20.181,-1.301c0,0 -14.945,2.421 -17.802,2.258c-2.857,-0.164 -51.584,0.43 -51.584,0.43l-36.564,-0.931l-25.109,-0.212l-28.61,0.304l-24,-0.889l-17.074,-2.227l-9.129,-0.819l-40.765,-1.762l-47.837,-1.382l-26.466,-2.266l-20.22,-0.742l-18.467,2.338l-39.897,2.769l-54.473,2.085l-53.709,-0.354l-61.499,-0.553l-103.647,0.314l-105.994,-1.006l-89.323,0.015l-32.038,-2.515l-15.723,-1.981c0,0 -15.648,1.393 -18.832,1.634c-3.183,0.242 -14.592,1.253 -18.592,1.414c-4.001,0.161 -29.114,-0.29 -29.114,-0.29l-24.49,-2.275l-32.372,-2.682l-21.064,-3.947l-16.405,-2.477l-4.587,-6.671Z"/></svg>