<?xml version="1.0" encoding="UTF-8" standalone="no"?><!DOCTYPE svg PUBLIC "-//W3C//DTD SVG 1.1//EN" "http://www.w3.org/Graphics/SVG/1.1/DTD/svg11.dtd"><svg width="100%" height="100%" viewBox="0 0 3000 3000" version="1.1" xmlns="http://www.w3.org/2000/svg" xmlns:xlink="http://www.w3.org/1999/xlink" xml:space="preserve" xmlns:serif="http://www.serif.com/" style="fill-rule:evenodd;clip-rule:evenodd;stroke-linejoin:round;stroke-miterlimit:2;"><rect x="0" y="0" width="3000" height="3000" style="fill:#fff;fill-opacity:0;"/><path d="M600.317,2814.55l-0.885,-19.415l-0.54,-13.468l-1.399,-9.795l-1.574,-11.719l-0.206,-19.497l-0.316,-10.619l0.057,-10.062l0.804,-26.422l0.839,-19.883l0.189,-22.192l1.767,-29.563l1.295,-13.006l1.263,-25.539l2.819,-36.442l1.659,-25.558l2.73,-35.919l0.435,-16.758l0.088,-15.924l1.922,-25.351l0.048,-20.315l1.037,-22.606l0.637,-25.712l-0.601,-18.169l-0.883,-10.807l-0.235,-16.498l0.239,-10.434l0.883,-11.011l1.209,-18.313l-0.881,-16.446l-0.867,-13.366l-0.436,-9.755l-0.088,-22.259l0.237,-19.309l-0.746,-13.901l0.563,-18.545l1.686,-28.436l-0.014,-13.397l-0.597,-12.919l-1.874,-11.429c0,0 -1.427,-8.582 -1.55,-10.372c-0.124,-1.79 -1.111,-9.754 -1.111,-9.754l-0.618,-7.346l-0.994,-14.793l-0.379,-8.766l-0.126,-6.235l0.731,-10.542c0,0 0.487,-6.544 0.792,-8.581c0.305,-2.037 1.586,-7.779 1.586,-7.779l0.06,-10.557c0,0 0.551,-12.053 0.856,-13.72c0.305,-1.667 -0.717,-13.1 -0.717,-13.1l-1.913,-12.594l-1.003,-14.695l-0.867,-14.602l-0.315,-13.002l0.173,-13.966c0,0 0.06,-13.592 0.304,-15.321c0.244,-1.729 1.89,-14.878 1.89,-14.878l1.768,-10.865l0.24,-19.935l0.643,-19.163l1.176,-18.193l0.265,-26.01l-1.579,-15.697l-1.79,-10.927l-0.805,-11.606l-0.568,-29.427l-1.668,-11.924l-1.383,-9.72l-0.684,-15.384c0,0 0.181,-12.528 0.181,-14.38c0,-1.852 0.119,-13.586 0.119,-13.586c0,0 0.366,-7.593 0.853,-9.322c0.488,-1.729 1.407,-12.749 1.407,-12.749l2.289,-14.6l2.277,-14.596l1.154,-14.817l-0.032,-24.966l0.671,-13.007l2.887,-16.809l5.335,-23.687l3.657,-16.977l1.089,-18.274c0,0 -0.988,-9.872 -1.128,-11.633c-0.14,-1.762 -2.997,-12.612 -2.997,-12.612l-0.802,-14.076l-1.146,-16.799l-0.142,-20.429l3.287,-16.236l2.575,-13.36l6.077,-15.926l6.059,-13.32l6.325,-12.592l5.672,-10.874l9.856,-15.294l4.33,-8.087l5.777,-8.813l-0.313,-10.319l-5.185,-5.804l-6.174,-0.185l-4.754,-1.42l-7.099,-4.198l-7.038,-3.89l-7.408,-4.136l-6.359,-2.778l-7.84,-0.866l-5.803,-0.063l-5.742,8.172l-7.223,10.733l-5.927,9.086l-6.56,10.523l-11.121,14.989l-8.952,9.879l-10.066,10.334l-14.076,12.623l-13.178,10.986l-5.309,4.33l-7.1,5.489l-7.778,5.366l-6.112,3.964l-3.025,3.11l-5.927,2.073l-8.025,0.11l-3.457,-1.729l-4.816,-5.186l-5.618,-6.173l-12.912,-13.208l-7.237,-6.928l-6.861,-6.536l-4.858,-8.58l-3.58,-7.531l-4.231,-8.159l-9.466,-17.041l-8.476,-16.56l-11.474,-15.9l-13.758,-16.615l-16.213,-21.659l-13.796,-19.756l-18.008,-24.966l-13.447,-17.455l-19.278,-23.222l-20.421,-24.047l-24.01,-33.004l-20.658,-26.721l-18.941,-22.649l-18.507,-22.83l-11.144,-12.947l-8.845,-8.423l-9.99,-6.863l-5.668,-6.593l-7.223,-7.656l-6.762,-9.388l-7.424,-10.839l-10.102,-14.261l-8.769,-11.687l-7.425,-9.041l-8.896,-9.224l-6.947,-6.306l-4.524,-5.807l1.497,-7.878l5.534,-7.472l6.924,-9.516l16.316,-15.086l11.126,-8.911l11.437,-9.137l24.373,-17.117l8.476,-7.717l12.149,-10.499l10.489,-9.137l20.25,-19.16l9.696,-8.272l9.657,-8.888l9.71,-6.117l7.657,-9.277l12.36,-11.806l7.182,-9.446l10.212,-6.845l7.955,-4.354l11.393,-7.134l8.076,-5.1l5.773,-4.31l5.359,-7.851l2.623,-6.359l2.866,-6.42l2.805,-6.236l2.988,-3.642l3.781,-3.334l22.642,-19.763l7.62,-7.408l7.833,-9.188l7.669,-8.533l9.587,-9.063l9.12,-9.082l16.797,-16.695l9.337,-7.795l12.078,-10.982l13.975,-10.879l31.725,-30.32l17.504,-18.91l21.217,-25.159l26.273,-26.049l20.112,-21.545l21.927,-23.837l10.832,-9.781l16.418,-13.504l10.293,-7.908l10.762,-11.878l11.16,-6.544l33.786,-16.413l39.18,-20.825l48.605,-23.984l48.766,-21.07l40.373,-11.427l33.966,-8.423l34.05,-16.8l44.763,-15.409l22.753,-8.182l19.507,-9.223l21.106,-9.933l24.903,-15.663l12.513,-6.266l6.278,-2.161l8.558,-1.543l9.94,-4.034l9.113,-4.865l7.487,-4.083l6.424,-3.664l10.02,-7.848l5.306,-5.803l4.025,-2.901l7.379,1.804l8.354,4.596l5.705,4.956l7.847,4.822l8.896,5.832l11.314,3.385l15.842,6.724l14.982,7.853l47.536,18.016l23.024,8.209l18.64,7.072c0,0 16.248,4.606 17.773,5.398c1.524,0.793 36.326,7.757 36.326,7.757l15.659,2.045c0,0 26.216,3.445 27.93,3.828c1.714,0.382 29.881,3.96 29.881,3.96l19.29,0.344l44.321,-0.594l33.689,-1.292l48.508,-4.295l22.862,-3.518l65.154,-14.419l25.565,-7.581l21.12,-7.7l14.86,-7.345l12.634,-7.798l15.858,-9.688l12.33,-9.347l7.994,-7.565l4.513,-4.26l13.412,5.124l11.289,5.078l11.011,3.26l9.73,4.346l10.251,2.771l9.114,1.608l5.156,-2.425l4.574,-1.728l8.978,3.959l2.744,4.147l30.833,11.434l11.255,6.419l11.085,4.363l23.95,10.08l6.22,3.11l14.485,2.823l10.936,1.707l9.778,0.966l10.475,3.038c0,0 4.296,2.295 5.638,3.454c1.341,1.158 16.342,7.205 16.342,7.205l10.889,4.207l36.482,16.016l16.79,5.907l14.331,5.198l17.436,6.133l19.371,9.593l8.842,4.451l9.94,7.196l9.974,6.891l11.987,9.495l13.416,12.251l13.111,8.675l10.028,6.414l16.936,11.008l17.366,9.563l33.386,18.166l10.733,5.916l10.015,5.775l9.879,3.891l7.697,2.943c0,0 6.071,3.476 7.291,5.245c1.219,1.768 5.966,9.268 5.966,9.268l5.428,6.586l9.297,12.236l16.646,17.902l6.586,7.439l12,14.602l7.032,10.76l7.274,12.23l6.691,12.792l5.718,10.346l5.123,5.367l14.122,9.499l10.306,4.33l12.122,6.635l9.208,4.208l16.638,12.93l7.196,7.988l8.598,7.196l9.469,9.697l27.839,25.615l23.64,22.314l14.205,13.439l18.813,16.317l24.634,21.964l16.804,13.546l14.16,10.28l18.135,10.554l8.415,5.733l12.299,13.928l9.281,9.557l12.491,13.502l11.867,10.551l18.463,15.854l27.809,24.649l21.768,16.594l7.047,5.017l8.395,3.98l6.79,2.212l9.045,5.982l10.341,9.532l10.856,10.841l11.629,13.402l4.59,5.888l5.855,5.488l-2.408,4.452l-8.068,14.493l-16.234,23.708l-15.126,18.295l-14.987,18.159l-22.773,29.449l-18.394,25.981l-22.631,30.41l-16.587,22.748l-17.346,19.271l-16.241,18.325l-16.487,19.773l-16.98,21.679l-16.949,22.141l-10.329,14.753l-10.898,11.054l-12.566,13.179l-16.152,17.768l-17.267,21.366l-19.059,25.89l-21.688,25.54l-9.693,13.173l-14.843,19.092l-14.132,17.41l-8.072,11.682l-7.299,7.712l-7.099,6.342l-8.149,3.476l-6.729,1.098l-8.154,-3.151l-10.167,-8.17l-7.721,-6.392l-10.281,-8.659l-5.618,-6.729l-11.267,-17.139l-7.872,-11.205l-9.357,-10.363l-10.235,-10.858l-15.374,-31.356l-4.532,-9.294l-5.698,-11.433l-5.618,-7.408l-4.327,-0.375l-6.112,4.818l-4.136,4.207l-1.235,4.147l3.188,8.45l4.878,11.403l3.361,9.066l5.321,12.826l4.674,11.6l4.213,10.882l3.476,9.026l3.666,8.964l7.984,21.97l3.784,15.484l8.756,41.851l3.11,21.682l1.97,14.304l1.976,14.371l-2.284,13.213l-1.055,13.483l1.463,14.087l1.162,19.135l1.209,13.975l3.056,20.457l1.275,12.793l1.723,12.63l-1.128,23.858l0.451,15.817l0.608,10.828l-0.373,11.525l1.86,11.98c0,0 0.043,12.905 -0.266,14.917c-0.309,2.012 -0.768,24.623 -0.768,24.623l-2.108,13.481l-0.991,13.233l-0.287,14.643l-0.802,18.459l-0.962,28.503l0.643,51.909l-0.174,83.356l-0.627,58.718l-0.202,61.271l0.771,78.527l1.024,31.241l2.651,26.911l0.471,24.909l-0.661,50.011l1.347,65.925l-1.139,47.55l0.459,19.962l3.949,46.724l0.251,33.998l-0.465,50.377l2.086,40.99l3.389,30.373l0.548,21.113l0.556,26.801l5.887,30.698l4.563,25.031l2.134,12.501l0.06,8.294l1.463,8.111l7.192,21.742l4.39,16.526l3.225,15.503l0.727,13.904l0.035,16.167c0,0 -32.751,9.372 -31.021,8.056c1.73,-1.316 -18.666,2.584 -18.666,2.584l-23.804,0.636l-27.853,0.206l-29.067,-2.637l-25.692,-1.096l-27.498,3.41l-42.023,1.992l-29.388,-2.851l-22.37,-1.102l-36.845,0.212l-32.711,-0.878l-29.169,-1.096l-29.388,3.249l-37.835,2.052c0,0 -26.772,-0.442 -32.694,-1.1c-5.921,-0.657 -39.477,-0.879 -39.477,-0.879l-29.169,4.549l-31.56,1.672l-20.733,-0.658l-27.222,0.216l-13.935,1.3l-38.995,6.499l-41.365,4.328l-38.413,1.728l-36.422,3.463l-21.493,3.9l-35.781,-2.196l-47.96,1.498l-39.043,2.383l-25.361,1.3l-20.835,1.069l-38.867,6.609l-40.59,-0.026l-34.818,-2.413l-24.039,-2.749l-27.824,0.366l-22.589,3.9l-30.266,-2.413l-29.827,-0.66l-37.283,-1.316l-23.906,-1.1l-23.21,0.648l-19.198,3.899l-22.903,-0.323l-37.535,-2.876l-19.519,-3.073l-38.26,3.119l-25.221,1.083l-23.467,-0.452l-18.203,-2.193l-18.642,0.211l-35.529,-0.88l-26.537,1.517l-20.835,-1.755l-19.3,1.514l-32.237,1.361l-12.723,-2.631l-20.177,1.297l-23.365,-2.415l-26.537,-1.097l-21.493,-1.535l-28.073,0.861l-24.344,-2.412l-17.67,-5.438Z"/></svg>