<?xml version="1.0" encoding="UTF-8" standalone="no"?><!DOCTYPE svg PUBLIC "-//W3C//DTD SVG 1.1//EN" "http://www.w3.org/Graphics/SVG/1.1/DTD/svg11.dtd"><svg width="100%" height="100%" viewBox="0 0 2624 3936" version="1.1" xmlns="http://www.w3.org/2000/svg" xmlns:xlink="http://www.w3.org/1999/xlink" xml:space="preserve" xmlns:serif="http://www.serif.com/" style="fill-rule:evenodd;clip-rule:evenodd;stroke-linejoin:round;stroke-miterlimit:2;"><rect x="0" y="0" width="2624" height="3936" style="fill:#ebebeb;fill-opacity:0;"/><path id="tshirt" d="M868.189,3326.05l-4.013,-8.094l-4.965,-6.801l-4.352,-7.073l-5.944,-13.951l-2.38,-5.781c0,0 -6.561,-3.469 -10.27,-4.557c-3.709,-1.088 -16.019,-4.693 -16.019,-4.693l-14.497,-2.176l-17.127,-0.413l-21.4,3.077l-17.547,4.098l-15.903,3.683l-16.119,3.324l-18.295,4.971l-18.227,4.971l-16.962,4.061l-21.802,1.571l-13.063,1.337l-12.174,2.217l-13.195,-1.428l-13.162,-1.904l-11.949,-0.556l-12.991,-0.884l-10.539,-1.549l-3.945,-3.673l-1.568,-5.237l-0.351,-10.202l0.201,-5.576l0.532,-7.346l0.287,-23.354l-0.098,-14.424l0.668,-20.39l0.397,-10.133l0.396,-15.575l-0.922,-27.945l-0.009,-14.895l0.644,-23.366l-0.303,-23.6l0.325,-20.576l0.133,-9.422l0.328,-21.281l1.751,-29.449l0.531,-20.131l-0.275,-12.446l0.391,-25.43l0.379,-45.084l0.511,-31.574l0.037,-27.55l2.083,-15.815l3.114,-20.531l1.784,-26.262l-0.045,-13.403l1.898,-20.962l2.217,-18.075l3.504,-26.044l2.4,-16.411l3.842,-25.006l4.482,-26.529l5.44,-29.522l7.486,-31.041l7.863,-30.374l10.765,-28.289l8.98,-23.498l5.822,-20.829l5.16,-5.727l2.082,-6.707l0.198,-9.998l3.493,-8.161l12.46,-16.581l11.732,-13.382l13.53,-18.604l11.048,-11.726l8.371,-10.386l16.525,-17.088l14.616,-11.318l16.594,-10.882l20.852,-12.849l12.66,-8.103l23.323,-14.895l16.151,-8.544l23.177,-15.213l41.392,-32.308l24.245,-18.961l17.893,-13.61l20.787,-13.477l22.327,-10.477l25.992,-12.915l9.943,-9.181l8.734,-8.706l13.511,-8.334l14.782,-8.107l11.234,-6.619l12.954,-8.588l13.588,-7.833l11.219,-2.727l5.24,0.534l-1.564,3.493l-6.915,4.196l-3.672,5.778l0.4,5.509l2.822,5.979l2.62,3.896l4.538,4.502l18.668,20.978l6.987,7.323l13.746,15.588l23.127,22.32l18.482,15.622l27.377,22.012l30.372,20.373l16.064,9.379l15.43,8.756l29.074,14.842l24.54,11.452l12.981,3.819l20.603,7.975l6.584,2.217l12.01,1.698l20.173,2.816l13.564,1.765l9.733,1.045l13.123,-0.495l13.362,-1.415l13.198,-2.113l24.405,-1.729l11.227,-2.653l14.265,-4.87l10.876,-3.777l9.271,-5.917l14.64,-13.268l7.053,-9.386l6.514,-11.018l10.595,-19.599l7.847,-26.364l3.09,-14.052l1.55,-17.877l-2.512,-26.027l-1.521,-12.205l-6.774,-17.947l-7.051,-13.742l-9.386,-11.425l-6.121,-7.55l-2.323,-7.685l0.739,-6.053l2.553,-2.108l16.966,13.876l6.584,3.023l16.378,12.166l7.293,8.953l13.055,6.858l8.398,4.367l13.347,5.099l11.928,5.039l7.935,1.814l36.843,16.929l42.855,21.367l35.915,14.115l31.504,12.041l34.159,16.097l34.155,19.795l14.625,11.979l13.65,15.321l11.143,12.536l11.576,14.422l8.636,14.207l9.873,22.843l7.168,27.654l2.557,25.35l3.342,16.018l9.725,34.291l5.846,26.479l8.56,43.081l6.408,31.339l6.641,38.646l5.571,24.793l5.551,28.275l3.064,27.161l8.935,41.502l4.736,29.947l5.57,26.186l6.128,41.534l8.356,32.454l6.304,35.616l2.228,21.311l-6.816,8.061l-8.743,5.711l-10.998,3.761l-5.076,2.646l3.494,30.794l4.01,28.415l5.031,22.004l2.647,16.157l-0.991,15.043l-8.883,12.118l-8.657,11.651l-16.948,12.493l-10.937,4.789l-13.818,5.365l-16.303,5.275l-20.733,6.27l-14.149,3.504l-16.631,3.556l-12.749,1.472c0,0 -7.635,-0.065 -8.836,-0.002c-1.202,0.063 -7.051,0.072 -8.395,0.42c-1.345,0.348 -8.048,5.26 -8.048,5.26l-1.083,7.246l0.307,6.325l-0.105,9.047l-0.484,10.843l0.582,11.296l0.101,11.877l1.444,12.565l1.023,14.693l0.666,22.554l1.691,7.722l-0.232,18.037l0.947,10.302l1.486,17.073l1.472,13.353l0.022,15.688l0.366,12.83l0.682,18.676l0.072,19.302l1.214,13.499l-0.076,12.751l0.258,15.777l-0.23,15.068l-0.851,19.652l-0.804,9.626l0.317,10.05l-0.598,11.76l-0.281,10.335l-0.589,8.469l-1.902,15.647l-1.929,25.203l-2.142,18.508l-0.994,18.551l-1.836,14.732l-1.003,18.021l-0.842,10.35l0.983,13.893l0.752,19.567l2.418,18.097l4.704,19.206l4.152,14.891l3.626,24.359l2.43,13.075l0.223,15.109l3.102,18.282l-0.233,16.016l1.199,11.995l0.776,15.109l0.905,11.937l2.309,23.693l1.352,18.207l0.506,16.318l1.132,14.731l0.834,16.62l0.409,14.318l1.209,11.18l0.297,11.885l-978.583,0l-2.447,-12.427l-3.594,-10.63l-5.347,-15.521l-6.041,-8.412l-1.659,-18.935l-0.238,-24.111l-0.069,-40.625l-0.909,-47.089l-2.014,-32.681l-1.228,-18.476l-2.397,-18.954l-2.107,-19.225l-1.895,-23.406l-2.853,-17.842l-4.479,-18.192l-1.454,-12.16l2.776,-11.432l-1.417,-9.917l-3.606,-14.94l-5.023,-11.333l-1.159,-11.591l7.88,-14.425l0.504,-11.848l-0.143,-16.881l2.29,-12.75l4.326,-13.91l2.035,-12.879l0.763,-9.53l1.781,-8.371l4.835,-5.023l5.979,-11.491c0,0 -0.27,-12.621 -1.172,-16.485c-0.901,-3.863 -3.863,-15.326 -3.863,-15.326l0.507,-15.454l-2.364,-7.434l-0.645,-14.296l-0.39,-8.371l2.799,-9.659l1.272,-7.213l-3.348,-1.931l-3.478,2.544l-5.515,-1.316Z"/></svg>