<?xml version="1.0" encoding="UTF-8" standalone="no"?><!DOCTYPE svg PUBLIC "-//W3C//DTD SVG 1.1//EN" "http://www.w3.org/Graphics/SVG/1.1/DTD/svg11.dtd"><svg width="100%" height="100%" viewBox="0 0 2906 4359" version="1.1" xmlns="http://www.w3.org/2000/svg" xmlns:xlink="http://www.w3.org/1999/xlink" xml:space="preserve" xmlns:serif="http://www.serif.com/" style="fill-rule:evenodd;clip-rule:evenodd;stroke-linejoin:round;stroke-miterlimit:2;"><rect x="0" y="0" width="2906" height="4359" style="fill:#fff;fill-opacity:0;"/><path id="tshirt" d="M1827.94,4359l-1078.69,0l-16.118,-68.288l-9.963,-42.181l-12.449,-50.704l-13.046,-40.374l-12.131,-40.238l-11.496,-34.272l-9.38,-19.04l-14.88,-28.441l-14.117,-27.924l-10.47,-22.575l-6.071,-17.357l-4.272,-16.678l-1.962,-15.392l1.887,-5.702l7.515,-12.416l2.121,-11.201l2.469,-10.657l6.338,-11.744l9.541,-19.512l6.231,-12.506l5.156,-10.439l3.168,-16.634l3.76,-11.201l5.234,-16.328l5.099,-15.193l4.725,-12.505l3.33,-11.419l2.453,-16.203l5.438,-14.479l2.574,-15.28l1.826,-10.657l5.034,-33.21l6.821,-42.95l1.711,-17.726l6.908,-36.191l0.285,-20.325l2.384,-31.646l2.243,-20.452l2.676,-12.071l1.615,-28.225l2.788,-16.638l3.896,-15.559l6.998,-31.867l2.776,-20.938l-0.727,-11.35l2.149,-7.178l2.899,-14.572l3.099,-16.203l1.5,-14.245l4.297,-14.464l1.165,-13.593l5.375,-20.185l3.218,-18.705l2.578,-9.352l1.289,-9.026l-3.763,-3.983l-14.145,-4.71l-15.9,-4.952l-28.264,-7.62l-23.589,-7.912l-20.511,-6.633l-13.267,-3.697l-13.651,-2.422l-15.762,-5.35l-17.708,-6.26l-14.542,-4.662l-12.972,-3.346l-15.338,-3.841l-13.412,-3.511l-18.57,-4.097l-29.334,-7.804l-17.702,-4.551l-15.748,-3.981l-20.478,-3.267l-13.799,-3.841l-16.788,-2.231l-22.062,-4.971l-18.323,-3.26l-16.237,-3.111l-14.929,-2.943l-15.261,-4.285c0,0 -14.1,-4.739 -15.658,-5.048c-1.557,-0.309 -12.561,-3.03 -12.561,-3.03l-6.985,-0.648l-10.245,-1.178l-19.352,-1.916l-12.214,-1.234l-9.364,-0.706l-10.991,0.219l-7.513,1.275l-5.106,2.319l-8.746,1.333l-8.042,-1.761l-7.337,-2.172l-12.741,-2.246l-9.099,-0.822l-8.47,0.345l-1.292,3.189l1.42,13.716l-0.088,12.439l-0.575,12.928l-0.836,13.428l0.052,8.002l-0.12,4.291l-5.224,-0.24l-9.215,-3.296l-11.388,-6.885l-6.809,-4.93l-4.434,-2.935l-1.937,-3.463l-1.174,-5.752l-0.646,-4.696l0.569,-6.985l-0.177,-5.576l0.869,-6.868l0.87,-5.752l1.346,-5.494l-0.183,-5.432l0.342,-8.863l0.575,-7.689l2.204,-3.522l5.079,-9.269l0.502,-8.646l2.688,-9.816l0.63,-12.344l2.185,-15.552l0.296,-21.291l-0.235,-19.01l0.502,-12.337l3.088,-16.563l4.676,-19.95l1.946,-15.855l2.112,-27.943l3.389,-17.36l2.88,-12.201l3.925,-21.285l3.727,-18.369l5.14,-17.239l7.209,-18.992l5.167,-11.996l10.348,-27.796l15.538,-40.221l12.751,-30.672l8.122,-28.819l10.011,-26.607l7.092,-16.828l10.568,-18.441l10.43,-13.937l12.098,-14.078l18.629,-25.78l15.157,-21.821l16.589,-21.569l22.79,-29.781l19.886,-20.131l16.038,-15.712l15.451,-13.731l15.748,-12.901l24.984,-14.716l18.91,-13.093l23.05,-13.809l16.494,-8.129l17.844,-9.055l16.851,-6.68l19.81,-5.819l10.499,-5.413l69.369,-26.838l45.66,-17.26l35.407,-11.005l79.808,-22.681l43.648,-12.627l44.315,-14.258l43.829,-13.494l22.486,-8.581l23.658,-10.605l19.395,-8.972l21.849,-0.525l14.771,2.953l13.358,9.505l10.018,15.669l20.042,35.794l10.027,20.898l5.63,15.831l7.844,19.472l16.388,28.546l20.954,37.189l19.296,28.505l13.959,21.195l13.614,21.512l21.927,28.225l39.016,42.128l35.286,35.402l26.64,25.639l20.023,17.234l43.289,32.234l28.608,18.615l17.954,10.932l23.214,13.951l18.717,12.348l11.868,6.485l18.056,7.956l16.841,4.527l14.355,4.061l16.395,0.264l16.227,0.05l26.854,-4.223l14.663,-4.908l11.986,-5.188l11.171,-6.75l7.013,-7.38l7.567,-10.089l8.577,-13.952l6.183,-9.342l4.428,-11.024l2.953,-11.167l4.317,-13.954l1.489,-39.209l0.88,-25.972l0.482,-20.414l-0.94,-13.172l-1.962,-15.975l-2.336,-9.997l2.809,-10.716l6.921,-10.743l4.599,-7.67l4.614,-4.11l9.229,-1.589l7.382,1.477l6.091,5.906l3.876,6.921l3.875,10.705l2.861,8.582l0.459,6.737l5.68,6.577l8.315,5.679l17.075,13.05l11.908,8.721l9.833,4.358l8.45,7.737l6.459,7.841l3.877,9.012l2.583,7.475l4.799,7.013l15.403,12.64l8.675,6.736l8.859,6.724l7.29,7.105l6.46,4.153l4.799,3.506l4.798,1.2l5.168,0.369l8.306,3.599l5.906,3.968l7.844,4.153l6.644,5.352l8.951,7.198l18.091,15.154l7.062,5.992l8.029,3.783l4.983,3.968l6.183,5.814l5.537,3.599l4.153,4.983l9.725,9.565l27.995,23.771l6.46,6.46l8.312,7.119l5.385,7.253l6.829,2.676l5.813,6.275l4.338,5.445l6.081,6.275l4.983,4.706l5.168,4.522l6.091,3.968l5.865,4.824l4.337,4.43l11.034,15.711l4.153,9.044l4.153,10.889l4.706,9.598l4.614,9.043l7.567,13.012l9.598,18.743l4.597,15.093l5.629,12.735l4.614,13.104l5.168,11.074l11.88,21.644l1.845,11.351l4.698,15.421l2.123,12.089l5.721,18.087l10.364,33.288l3.415,11.351l3.137,16.518l5.224,20.659l0.923,10.336l2.119,16.426l4.288,22.087l1.846,13.012l4.891,19.472l2.671,16.703l3.054,24.083l1.453,21.945l-2.061,9.413l0.367,13.289l1.015,10.335l2.404,23.687l0.271,13.473l1.565,18.693l2.383,26.298l2.393,29.278l-0.375,15.688l0.551,13.843l0.171,22.917l0.551,14.12l1.592,20.106l0.085,15.411l0.086,13.104l-0.859,10.484l1.015,7.567l1.384,5.814l3.784,7.382l0.71,9.616l3.624,14.816l2.941,9.337l1.385,10.11l1.605,13.877l-1.402,4.799l-10.556,7.014l-15.082,6.627l-18.892,6.233l-25.147,4.645l-19.762,1.093l-12.986,1.568c0,0 -7.567,3.138 -10.37,3.415c-2.802,0.276 -18.317,1.937 -18.317,1.937l-26.413,0.417l-25.113,1.905l-37.152,1.68l-33.032,0.379l-21.631,-0.015l-21.455,0.46l-10.463,-0.936l-7.778,7.11l-5.138,15.965l-7.664,19.564l-11.181,23.487l-7.567,18.272l-4.951,13.381l-7.661,18.18l-3.474,12.077l-4.858,13.658l-5.737,15.195l-9.623,18.692l-7.065,21.26l-6.633,11.351l-3.924,12.827l-6.194,11.287l-3.083,8.121l-4.391,9.413l-5.699,8.582l-1.128,8.121l2.859,7.014l2.861,9.535l2.399,15.227l3.347,14.539l7.585,29.584l4.01,24.701l3.997,28.554l1.2,10.336l-0.056,12.12l-0.749,10.52l-5.034,25.316l-2.896,13.842l-4.391,14.858l-4.916,19.159l-2.338,15.657l-5.09,15.047l-2.242,10.059l-0.841,5.537l7.695,23.211l4.614,16.888l7.051,22.824l10.386,43.194l4.614,17.349l4.672,19.267l3.638,19.451l3.138,19.748l2.25,19.44l0.352,15.503l-2.336,9.959l-0.677,3.479Z"/></svg>