<?xml version="1.0" encoding="UTF-8" standalone="no"?><!DOCTYPE svg PUBLIC "-//W3C//DTD SVG 1.1//EN" "http://www.w3.org/Graphics/SVG/1.1/DTD/svg11.dtd"><svg width="100%" height="100%" viewBox="0 0 3000 3000" version="1.1" xmlns="http://www.w3.org/2000/svg" xmlns:xlink="http://www.w3.org/1999/xlink" xml:space="preserve" xmlns:serif="http://www.serif.com/" style="fill-rule:evenodd;clip-rule:evenodd;stroke-linejoin:round;stroke-miterlimit:2;"><rect x="0" y="0" width="3000" height="3000" style="fill:#fff;fill-opacity:0;"/><path id="tshirt" d="M632.458,2575.18l26.896,13.905l15.516,7.724l12.163,5.867l7.897,3.75l15.876,6.573l11.388,5.273l13.085,5.551l16.239,7.176l10.838,3.837l12.959,4.958c0,0 13.806,1.782 14.999,2.918c1.193,1.137 19.078,8.284 19.078,8.284l14.013,4.091l14.638,6.584l8.976,3.579l11.576,3.723l5.397,0.681l15.402,6.269l18.646,7.031l24.426,8.403l12.618,5.003l10.775,4.9l12.763,5.22l31.279,12.035l16.771,5.009l21.348,7.785l22.231,7.677l9.664,2.5l12.934,4.201l30.504,9.144l10.08,3.073l19.41,5.512l13.098,4.746l17.477,4.042l22.559,6.106l38.238,8.703l20.371,4.888l16.002,4.731l16.645,4.702l11.778,2.163l17.031,3.675l21.195,4.3l12.662,2.215l17.762,2.895l17.056,1.264l14.707,0.551l15.244,0.579l16.97,0.635l16.557,0.741l14.424,0.681l20.623,1.756l18.848,1.844l18.527,0.436l18.645,0.755l29.388,1.791l23.585,-0.388l20.459,1.386l29.168,-0.145l17.672,0.175l14.97,1.235l14.958,-1.009l14.471,0.778l12.522,-0.657l16.556,-0.104l10.789,0.141l11.882,-0.425l8.743,0.851l10.624,-1.684l16.063,-0.875l13.558,0.103l6.25,-0.174l9.355,-1.507l7.728,-2.589l9.174,-2.498l7.759,-1.985l7.229,-1.695l9.778,-1.932l9.168,-1.319l8.377,-0.644l11.618,-1.492l11.182,-1.311l14.668,-0.325l18.19,-2.098l11.667,-1.942l9.726,-1.007l10.418,-0.967l9.31,-1.157l12.475,-2.835l14.89,-2.979l9.833,-2.501l10,-2.882l8.599,-2.214l4.991,-1.271l11.3,-3.379l18.891,-6.103l17.132,-7.542l20.108,-9.042l12.461,-6.538l12.4,-7.11l7.001,-5.72l11.987,-9.432l15.999,-12.352l15.267,-12.691l13.994,-11.884l14.922,-12.558l12.011,-9.446l9.033,-7.362l5.51,-6.326l7.67,-8.569l0.343,-9.758l-0.432,-11.692l-0.697,-10.874l-0.519,-7.477l-7.936,-6.843l-6.902,-3.624l-6.038,-3.738l-1.438,-2.013l3.072,-10.148l1.36,-7.104l-0.864,-7.335l-3.66,-6.007l-3.282,-6.557l-5.866,-7.418l-3.854,-3.681l-2.76,-3.221l-1.561,-1.477l-0.407,-9.834l-0.748,-7.534l-2.875,-4.946l-2.588,-4.141l-3.626,-5.124l-5.766,-8.255l-4.659,-4.946l-7.879,-6.729l-2.44,-1.255l-0.752,-9.892l-0.146,-10.429l-1.213,-13.106l-1.61,-13.077l-1.544,-7.673l-3.048,-6.959l-5.553,-13.695l-3.911,-6.556l-2.473,-5.233l0.054,-5.234l-2.07,-2.703l-0.487,-3.76l0.682,-4.486l2.215,-6.038l2.784,-7.534l1.363,-5.291l-0.017,-5.597l0.051,-7.476l-0.232,-7.074l0.051,-11.214l-0.071,-13.408l-0.7,-10.832l-0.692,-9.432l-2.791,-10.882l-3.393,-7.022l-3.859,-8.074l-4.14,-5.176l-1.496,-4.428l-5.693,-7.419l-3.41,-3.297l-4.716,-1.093l-3.738,-5.406l-3.624,-5.981l-1.092,-2.646l5.371,-9.321l16.467,-24.15l6.359,-9.546l5.17,-6.959l1.02,-6.557l0.099,-5.986l1.591,-8.799l1.079,-9.467l1.065,-12.307l-1.513,-15.184l-2.071,-12.971l-3.767,-20.57l-1.667,-7.994l-2.985,-9.779l-0.92,-5.693l-2.144,-12.813l-1.783,-7.764c0,0 -4.831,-27.693 -4.831,-25.894c0,1.799 -2.529,-17.935 -2.529,-17.935l-4.525,-21.078l-2.809,-15.514l-2.121,-12.417l-1.956,-11.648l-1.212,-5.684l-0.632,-5.751l-3.336,-12.307l-3.194,-14.085l-3.451,-13.573l-2.473,-12.151l-0.977,-3.393l0.205,-18.613l0.697,-12.425l0.888,-18.184l0.631,-14.115l0.78,-14.167l-0.762,-15.425l1.203,-12.519l2.514,-14.674l3.349,-18.05l2.195,-14.247l2.303,-16.861l1.553,-22.629l3.692,-20.601l3.154,-20.868l3.062,-23.976l2.295,-19.664l3.859,-29.481l3.423,-22.349l3.308,-24.44l1.531,-16.391l0.338,-11.369l0.267,-10.823l2.628,-11.595l1.968,-25.027l0.193,-16.837l0.611,-19.193l0.695,-20.959l-0.912,-17.255l-0.519,-17.138l-1.243,-22.965c0,0 -0.119,-16.933 -0.292,-18.543c-0.172,-1.611 -1.91,-21.518 -1.91,-21.518l-1.493,-21.175l-2.201,-14.705l-4.026,-10.555l7.556,7.669l11.456,1.321l15.236,0.742l14.256,-0.133l14.443,-0.156l14.651,-2.068l8.638,-0.745l22.953,-5.437l19.044,-4.149l18.835,-4.671l26.484,-8.561l25.899,-7.897l28.894,-8.403l41.846,-12.057l43.309,-14.437l32.098,-12.455l13.533,-5.51l13.42,-5.556l10.667,-3.202l9.583,-2.67l6.736,-4.939l4.674,-6.185l2.613,-6.844l-0.232,-7.361l-2.933,-6.556l-4.084,-6.902l-0.863,-7.534l-0.387,-8.92l0.526,-10.649l-3.968,-9.061l-4.083,-5.578l0.247,-16.345l-1.096,-26.355l-1.411,-30.031l-1.564,-25.552l-6.058,-25.069l-4.694,-25.272l-5.224,-22.622l-4.043,-20.264l-6.573,-29.677l-3.823,-29.61l-3.624,-25.894l-3.516,-26.083l-1.28,-19.901l-0.054,-13.988l1.588,-14.43l0.032,-24.761l-1.324,-13.435l-4.569,-19.929l-6.948,-18.143l-5.84,-14.797l-6.929,-18.436l-7.666,-20.426l-6.218,-16.161l-8.682,-20.139l-9.862,-23.205l-5.652,-13.766l-3.293,-7.856l-1.093,-8.455l-1.265,-5.636c0,0 -2.761,-4.831 -4.026,-5.751c-1.265,-0.92 -5.981,-4.486 -5.981,-4.486l-4.026,-4.025l-9.911,-13.599l-9.145,-11.962l-9.374,-10.525l-9.547,-8.569l-13.572,-10.582l-6.841,-3.657l-5.003,-2.013l-8.98,-6.127l-13.302,-10.732l-33.056,-20.38l-22.795,-12.039l-25.213,-12.868l-10.642,-2.921l-15.615,-5.123l-11.598,-3.455l-13.09,-4.858l-16.845,-9.153l-12.997,-7.074l-28.862,-15.352l-25.735,-11.477l-28.093,-13.245l-26.399,-11.649l-22.469,-9.048l-29.825,-13.564l-37.551,-17.542l-26.889,-10.319l-39.792,-23.672c0,0 -22.679,-10.264 -24.404,-11.012c-1.725,-0.747 -15.559,-6.284 -15.559,-6.284l-8.993,-6.45l-9.117,-6.832l-6.383,-3.106c0,0 -9.808,-1.782 -11.794,-1.725c-1.987,0.057 -25.445,1.109 -25.445,1.109l-2.952,1.534l-5.176,1.475l-1.68,3.509l3.636,4.375l7.619,3.764l7.726,1.989c0,0 4.829,1.761 6.477,2.386c1.647,0.625 5.681,2.386 5.681,2.386l3.692,4.942l-0.466,12.08l-2.094,15.843l-5.313,20.962l-12.339,23.078l-14.598,18.791l-10.302,9.547l-28.06,19.386l-28.353,12.884l-32.204,11.734l-38.211,7.54l-53.817,4.588l-49.086,3.01l-48.473,0.015l-38.904,-1.573l-34.416,-5.953l-53.642,-13.703l-43.88,-12.798l-27.659,-9.029l-29.437,-12.975l-22.827,-13.061l-14.706,-13.347l-13.441,-17.474l-4.89,-15.899l-2.078,-15.964l1.016,-12.819l6.492,-14.754l3.992,-6.587l7.442,-9.374l7.025,-6.744l4.659,-6.096l-1.326,-1.611l-7.189,4.715l-11.618,6.533l-9.489,5.511l-8.785,5.484l-5.694,6.704l-4.14,2.272l-10.86,2.314c0,0 -10.873,2.349 -12.54,2.918c-1.668,0.568 -10.888,4.509 -10.888,4.509l-13.275,8.459l-7.994,8.407l-3.853,5.057l-12.94,1.921l-14.009,4.776l-16.583,5.232l-17.606,6.191l-14.451,7.189l-18.346,8.689l-23.804,5.695l-26.364,9.822l-22.286,7.036l-28.137,12.908l-24.845,9.31l-49.705,18.605l-12.745,4.147l-18.848,7.037l-10.012,7.211l-15.395,6.595l-34.358,16.291l-27.55,14.883l-29.167,13.175l-26.263,14.633l-17.747,10.039l-14.969,9.265l-11.438,7.735l-10.856,8.216l-12.401,7.11l-6.056,4.89l-4.956,12.644l-5.834,14.84l-6.232,14.932l-14.109,29.825l-11.621,28.296l-9.755,29.748l-8.495,27.087l-9.643,34.301l-12.19,49.103l-11.518,47.699l-6.979,39.215l-10.72,65.052l-5.701,35.371l-1.668,12.65l-2.363,19.776l-2.973,14.251l-2.588,12.839l-4.489,36.383l-1.898,13.217l-1.971,17.554l-2.772,18.33l-2.806,18.173l-1.144,9.523l-0.533,14.309l-0.691,9.999l-1.611,5.34l-2.588,6.533l0.338,7.215l0.625,6.135l-0.06,4.943l-3.856,14.697l-0.637,5.672l-3.713,5.812l-0.118,7.675l2.215,5.227l7.372,6.197l6.394,4.049l12.012,5.614l16.532,5.751l34.564,12.346l26.099,7.878l30.758,8.409l34.356,7.97l43.533,10.97l38.818,7.799l30.955,5.063l18.639,1.435l21.691,1.843l18.406,0.49l17.34,0.44l20.878,-2.119l15.275,-4.341l6.312,-2.791l4.886,-4.198l5.226,-2.879l-1.214,15.679l-1.287,15.283l-1.611,9.033l-1.611,7.385l0.057,5.795l0.28,8.408l-0.466,9.304c0,0 1.25,2.102 1.25,3.693c0,1.59 0.352,13.186 0.352,13.186l0.811,14.111l-0.633,9.386l0.109,12.101l0.053,9.348l-1.291,13.723l-1.895,13.644l5.565,28.327l0.715,34.377l1.282,45.457l-0.714,27.665l0.475,21.062l3.368,42.411l4.869,53.888l1.665,31.062l1.851,41.584l1.804,47.508l0.799,33.052l-0.332,11.737l1.479,26.221l-0.108,12.128l-3.441,15.137l-8.79,34.525l-10.679,39.078l-5.27,17.212l-4.918,25.705l-7.427,32.323l-7.279,34.446l-7.408,28.641l-8.487,25.816l-7.852,28.52l-10.755,7.248l-12.214,8.079l-15.531,12.73l-13.029,10.199l-8.768,7.771l-6.284,7.841l-5.326,9.066l-1.32,13.923l0.88,11.737l9.066,9.794l7.322,4.554l3.233,10.14l-0.006,5.805l-1.934,12.858l-2.321,16.546l-3.277,10.43l-6.067,10.974l-2.678,7.201l-2.157,8.784l-3.796,12.372l-3.082,11.191l-4.314,10.066l-4.686,11.83l-4.761,9.844l-3.908,7.106l-2.603,4.996l-1.711,6.834l0.638,5.651l5.037,5.584l4.335,3.821l5.584,2.203l2.349,1.47l-2.529,4.849l-6.174,6.319l-4.805,4.574l-6.025,6.613l-4.91,5.878l-4.314,6.907l-2.678,6.613l0.809,5.511l2.277,4.702l2.278,4.041l1.721,4.332l0.588,3.453l-2.529,2.572l-4.835,4.041l-5.356,2.866l-2.678,1.322l-3.277,4.115l-0.94,5.527l0.583,5.658l0.661,4.408l-2.529,4.335l-6.843,1.69l-4.91,2.278l-2.088,3.246l-0.525,4.996l-3.05,8.817l-3.05,6.54l-4.24,6.686l-3.57,5.952l-4.909,8.596l-1.711,4.189l-2.306,4.849l-4.537,4.996l-0.295,5.337"/></svg>