<?xml version="1.0" encoding="UTF-8" standalone="no"?><!DOCTYPE svg PUBLIC "-//W3C//DTD SVG 1.1//EN" "http://www.w3.org/Graphics/SVG/1.1/DTD/svg11.dtd"><svg width="100%" height="100%" viewBox="0 0 5472 3648" version="1.1" xmlns="http://www.w3.org/2000/svg" xmlns:xlink="http://www.w3.org/1999/xlink" xml:space="preserve" xmlns:serif="http://www.serif.com/" style="fill-rule:evenodd;clip-rule:evenodd;stroke-linejoin:round;stroke-miterlimit:2;"><rect x="0" y="0" width="5472" height="3648" style="fill:#fff;fill-opacity:0;"/><g id="tshirt"><path d="M1479.18,2175.46l-13.643,-3.647l-11.081,-3.191l-13.986,-3.591l-15.108,-5.24l-15.281,-5.315l-17.29,-4.842l-9.985,-1.299l-3.195,-0.199l1.764,-13.081l3.66,-16.909l2.047,-17.833l2.939,-9.801l0.785,-10.684l1.055,-12.557l-0.21,-12.582l-1.199,-10.285l-3.614,-8.387l2.367,-9.087l6.701,-14.521l4.508,-10.356l0.588,-15.976l3.304,-16.721l2.929,-16.959l5.809,-17.008l5.978,-24.833l9.664,-30.727l4.096,-16.22l5.083,-15.684l11.091,-30.627l9.379,-18.901l5.721,-15.577l5.311,-13.602l4.834,-9.187l4.142,-6.091l2.959,20.615l2.761,34.224l3.53,39.147l4.206,30.007l6.737,31.039l9.251,39.351l12.643,39.848l12.804,41.054l10.487,31.077l8.036,18.125l3.54,12.33l1.083,11.989l-0.582,13.758l-1.698,10.357l0.592,8.384l1.085,6.51l0.773,6.669l-2.606,10.357l-1.597,6.905l-2.399,8.581l-0.774,3.211l-4.663,4.166l-16.341,1.111l-13.007,-1.194l-9.908,-0.568l-13.317,-2.533l-12.758,-3Z"/><path d="M1689.65,2154.57l-13.827,-11.905l-17.072,-16.371l-5.376,-8.833l-1.025,-7.297l1.64,-9.473l-0.686,-14.082l-4.224,-13.825l-6.036,-23.026l-4.516,-21.451l-5.544,-19.92l-4.048,-30.325l-6.304,-34.052l-1.28,-9.857l-0.142,-19.143l0.607,-22.167l0.478,-19.587l0.339,-24.46l-0.186,-21.22l0.812,-18.412l0.229,-21.583l-2.172,-23.359l-2.733,-20.442l-3.588,-16.13l-3.074,-14.338l-2.071,-14.593l-0.311,-6.753l1.426,-4.909l10.876,-11.292l8.056,-10.389l5.601,-8.104l6.322,-8.852l5.062,-7.94l4.268,-5.35l4.564,-7.651l4.42,-7.363l-0.229,-2.105l-15.399,-7.903l-10.066,-6.655l-10.36,-2.695l-10.733,-3.32l-7.362,-3.393l-6.93,-1.013l-8.3,-2.454l-8.778,-3.34l-11.446,-5.338l-7.291,-1.805l-10.064,-2.018l-7.795,-3.395l-7.219,-2.598l-4.547,-4.259l-9.167,-0.152l-8.734,0.641l-9.528,0.201l-3.248,2.138l-1.597,5.842l0.213,4.563l-0.722,4.135l-1.082,5.562l-0.361,3.351l-2.96,0.712l-4.114,-1.876l-1.949,-4.043l-2.165,-2.959l-2.31,-4.548l-2.671,-4.836l0.555,-7.146l1.355,-4.836l2.496,-5.558l3.636,-5.558l4.278,-4.692l3.423,-4.908l1.925,-5.125l0.767,-9.412l1.138,-7.723l3.138,-7.074l3.27,-9.311l8.542,-18.289l6.436,-12.209l6.643,-11.443l6.488,-16.046l4.237,-17.787l3.148,-17.635l4.811,-25.438l3.444,-20.454l6.308,-23.748l5.976,-10.809l5.973,-13.194l10.54,-19.118l6.631,-12.848l8.317,-14.851l11.542,-15.929l7.859,-10.866l13.139,-14.864l21.298,-23.102l18.747,-17.139l15.67,-14.341l17.563,-11.709l22.494,-10.271l27.254,-10.349l11.186,-7.719l9.466,-4.909l6.774,-1.443l5.847,-1.949l5.633,-3.537l7.198,-4.331l4.491,-2.454l5.134,-0.722l4.421,2.066l0.855,4.207l0.999,4.278l4.777,5.989l8.167,9.174l13.961,17.299l11.172,18.096l12.67,14.857l24.572,23.546l12.953,13.036l11.177,10.327l13.765,11.6l9.031,5.411l5.633,1.207l4.991,-3.393l2.852,-4.258l1.498,-4.837l2.923,-5.63l4.563,-5.63l4.421,-5.486l4.135,-3.898l3.349,-1.877l2.859,-3.262l3.561,-2.022l4.136,2.634l3.636,3.637l3.779,4.777l5.084,6.151l4.69,6.635l3.137,5.632l1.64,5.491l2.278,6.274l3.636,5.276l2.425,5.277l1.283,3.779l1.496,7.201l1.436,7.116l0.581,10.195l0.194,16.187l0.251,12.946l-2.035,9.976l-1.444,8.057l-1.928,9.37l-2.096,7.843l-1.66,5.134l-0.279,9.032l-1.148,10.727l-0.684,12.613l-2.333,9.432l-1.516,6.489l-0.299,10.909l-0.58,10.592l-0.815,9.98l-2.557,7.634l0.282,9.055l-1.344,13.563l-1.518,13.333l-2.62,16.393l-1.964,17.04l0.486,13.683l0.626,12.486l-0.303,12.477l-0.083,10.482l-0.769,7.121l-0.29,6.275l-3.393,3.921l-2.598,4.349l-2.021,9.626l-2.792,18.728l-3.151,22.017l-5.954,37.977l-6.204,41.336l-6.728,42.932l-6.153,30.193l-6.205,40.033l-3.627,25.795l-4.403,18.742l-2.551,21.153l-3.28,23.525l-5.389,25.801l-3.124,18.443l-1.303,14.902l-0.28,10.767l-3.53,11.532l-7.818,26.429l-9.65,27.923l-7.021,16.51l-4.899,13.817l-4.331,7.771l-5.809,4.975l-3.201,-3.447l-5.067,-1.841l-9.754,1.793l-11.074,4.458l-15.639,6.797l-25.111,10.233l-24.772,10.114l-24.165,8.418l-30.858,9.049l-21.379,4.083l-14.144,3.005"/></g></svg>