<?xml version="1.0" encoding="UTF-8" standalone="no"?><!DOCTYPE svg PUBLIC "-//W3C//DTD SVG 1.1//EN" "http://www.w3.org/Graphics/SVG/1.1/DTD/svg11.dtd"><svg width="100%" height="100%" viewBox="0 0 5184 3456" version="1.1" xmlns="http://www.w3.org/2000/svg" xmlns:xlink="http://www.w3.org/1999/xlink" xml:space="preserve" xmlns:serif="http://www.serif.com/" style="fill-rule:evenodd;clip-rule:evenodd;stroke-linejoin:round;stroke-miterlimit:2;"><rect x="0" y="0" width="5184" height="3456" style="fill:#fff;fill-opacity:0;"/><g id="tshirt"><path d="M1979.08,2921.9l-8.328,2.87l-3.314,1.904l-3.735,2.262l-3.254,1.726l-3.193,1.309l-5.818,1.505l-3.073,0.416l-4.459,0.357l-4.218,-0.063l-2.109,0.475l-1.666,0.567l-3.137,0.603l-3.915,0.851l-6.679,1.156l-3.864,0.412l-4.099,0.713l-4.941,0.94l-4.683,1.296l-4.725,1.005l-3.412,0.743l-2.937,1.413l-2.955,1.741l0.06,2.262l0.416,1.905l2.44,0.177l3.036,0.893l2.426,0.985l2.096,1.661l2.566,2.739l0.585,3.529l-1.967,2.307l-4.296,1.859l-4.703,0.476l-4.097,0.119l-3.013,-0.241l-1.626,-0.843l-4.13,-0.121l-2.711,0.535l-4.338,-0.061l-3.736,-0.482l-3.495,-0.121l-5.098,-0.783l-2.952,-0.301l-6.688,-1.386l-5.905,-2.35l-2.952,-2.169l-1.507,-1.145l0.056,-4.218l0.892,-4.88l-0.1,-4.064l0.096,-3.783l-0.008,-5.089l0.191,-5.738l0.047,-5.136l0.95,-7.956l0.988,-4.695l1.556,-5.806l1.101,-5.544l1.201,-6.035l2.175,-9.672l2.832,-13.81l3.63,-16.859l2.527,-13.617l2.298,-13.832l4.129,-19.619l2.739,-13.772l2.208,-12.688l2.298,-15.316l3.716,-12.097l2.868,-5.921l6.114,7.632l7.036,11.639l6.408,9.587l8.474,14.083l12.833,20.331l13.973,22.415l13.27,18.021l8.384,12.484l7.503,11.129l9.63,14.295l11.08,16.135l3.772,9.198l2.825,4.982l0.926,3.675l-12.515,0.896Z"/><path d="M1993.42,1876.92l-2.751,-4.502l-3.49,-3.36l-3.779,-4.002l-3.543,-3.528l-5.789,-4.086c-2.283,-2.431 -4.872,-5.136 -8.527,-10.016l-4.561,-6.633l-5.658,-7.071l-5.653,-8.998l-6.715,-9.713l-3.446,-9.373l-4.435,-8.599l-3.929,-7.667l-5.018,-5.825l-5.289,-5.005l-7.072,-4.534l-9.564,-5.58l-9.738,-4.457l-8.478,-3.462l-8.077,-2.463l-10.5,-2.773l-10.429,-2.967l-8.661,-1.579l-10.912,-1.82l-11.855,-0.887l-11.174,-0.715l-7.882,0.348l-9.599,-0.014l-11.762,0.383l-14.615,1.14l-9.306,0.444l-2.583,10.261l-1.264,7.295l-2.075,11.513l-1.424,9.311l-0.675,6.372l-0.271,7.889l-1.063,9.679l-0.086,3.862l-11.96,-12.286l-22.012,-23.211l-18.319,-20.451l-8.971,-10.958l-1.066,-3.995l-0.042,-3.396l4.956,-9.833l5.012,-11.726l6.433,-13.672l3.154,-5.274l1.619,-6.358l5.745,-14.02l7.455,-15.54l4.894,-15.326l4.831,-11.316l5.565,-13.394l5.674,-15.32l8.175,-19.461l4.242,-11.276l6.369,-14.42l8.981,-17.603l3.02,-5.831l3.309,-7.27l5.822,-11.846l6.648,-13.504l6.183,-11.901l5.749,-11.282l7.418,-13.603l8.498,-15.278l14.757,-23.952l9.058,-13.345l9.979,-13.542l12.517,-11.83l10.264,-8.147l10.067,-8.498l12.999,-11.301l8.25,-5.311l6.842,-1.344l19.75,-7.303l16.7,-1.908l20.74,-6.946l22.449,-5.475l14.798,-4.781l23.424,-6.906l17.539,-6.146l15.63,-6.041l17.816,-8.603l11.035,-5.339l12.19,-3.599l14.241,-6.929l9.776,-3.217l11.694,-5.966l14.155,-9.683l12.314,-7.714l10.18,-6.981l9.888,-1.618l6.008,1.521l5.921,-3.559l14.011,-7.05l10.512,4.459l12.467,6.698l10.978,11.35l31.17,32.693l27.627,22.499l49.528,34.502l29.734,17.17l20.461,10.684l20.66,9.202l20.243,7.621l20.047,6.883l18.203,5.868l21.042,5.352l11.879,2.152l6.303,0.994l6.933,0.505l9.941,0.096l6.34,-0.888l8.11,-1.465l8.438,-1.686l6.76,-2.847l5.774,-3.388l4.756,-4.088l2.709,-2.852l2.983,-3.801l1.312,-6.303l-0.304,-5.322l-0.602,-3.793l-0.609,-4.407l0.295,-9.808l0.149,-8.489l0.175,-8.596l-2.685,-8.622l-2.451,-5.207l-5.62,-3.962l-6.909,-3.777l-5.943,-2.903l-1.566,-1.612l1.866,-7.466l1.638,-5.574l0.136,-2.626l6.416,4.778l6.052,4.414l5.279,5.961l4.318,3.534l8.291,4.366l7.715,6.621l4.289,5.283l3.702,5.307l10.335,4.905l9.47,4.29l11.167,5.226l14.798,5.636c0,0 9.828,4.665 11.102,5.211c1.274,0.546 11.318,5.084 11.318,5.084l8.473,3.124l16.025,7.929l13.052,5.103l15.785,3.269l11.824,6.882l19.51,13.552l15.447,11.191l20.535,16.613l12.574,10.736l10.901,10.563l11.414,10.84l7.533,10.971l5.924,11.864l4.431,11.417l4.344,10.019c0,0 6.795,7.952 7.701,11.017c0.906,3.065 3.66,11.439 3.66,11.439l5.093,14.178l3.175,15.212l5.157,23.473l8.953,32.949l5.101,23.073l4.62,20.965l4.523,19.483l3.98,19.179l1.602,6.327l2.479,13.359l1.504,16.188l3.343,18.309l3.071,19.159l4.66,24.207l4.627,22.165l5.424,25.032l4.827,22.568l0.938,12.132l2.729,9.787l-0.079,2.066l-2.101,3.647l-4.565,2.626l-5.7,2.323l-9.073,2.926l-16.455,4.488c0,0 -12.167,0.889 -13.007,1.067c-0.84,0.178 -11.243,1.201 -12.683,1.586c-1.441,0.386 -10.337,3.607 -11.418,3.696c-1.08,0.089 -10.397,5.211 -10.397,5.211l-10.393,5.071l-8.76,3.3l-10.821,4.193l-13.629,4.683l-16.396,3.803l-22.116,4.767l-14.092,2.965l-12.717,1.762l-7.114,0.306l-0.367,6.571l0.271,15.272l-0.2,17.34l0.551,14.34l0.571,19.671l-0.219,15.981l-0.883,15.496l-1.002,13.653c-0.861,4.522 -1.091,8.848 -3.072,15.134l-2.928,11.343l-1.104,16.632l0.165,20.053l1.097,15.601l0.46,18.447l-0.548,16.219l-1.354,11.906l-1.53,9.82l-2.268,11.081l-1.567,7.537l-1.522,6.251l-1.741,7.494l-1.183,4.668l-1.43,7.965l-0.793,8.292l0.167,7.528l2.087,11.614l1.887,15.622l0.488,17.05l0.673,19.732l0.057,15.965l0.066,13.863l-0.074,11.796c0.22,3.7 -0.032,11.592 -0.296,22.036l-1.059,6.818l-1.094,8.747c-0.077,-0.064 0.103,9.296 -0.016,12.296l0.463,7.616c0,0 0.328,5.476 0.621,6.855c0.293,1.379 0.419,11.895 0.207,13.023c-0.211,1.129 0.123,6.463 -0.089,8.886c-0.211,2.424 -0.054,9.379 -0.054,9.379l-0.835,15.137l-0.665,9.435l-0.573,13.081l-0.225,8.324c0.391,0.894 0.33,6.434 1.471,17.169l1.033,7.708l0.798,9.77l0.737,3.93l1.362,8.826l1.451,6.237l2.172,9.614l0.814,9.582l1.493,9.738l1.944,8.842l0.685,6.554c1.629,2.808 0.114,2.452 4.642,9.945l6.858,9.908l6.582,10.824l5.366,11.611l5.644,11.229l4.676,13.266l1.88,7.275l1.288,14.095l0.993,6.395l1.352,9.76l1.593,6.014l1.127,4.64l0.562,5.271l0.125,3.885l-0.01,7.948l-0.192,10.377l-0.062,10.704l0.106,12.841l-0.383,13.468l-0.629,14.667l1.322,13.589l2.83,7.885c0.957,1.908 1.492,2.99 3.651,8.152l1.606,10.39l-0.351,10.088l-0.432,10.389l-1.249,12.783l-2.152,6.387l-0.314,5.932l-0.395,10.368l-0.367,4.46l-4.777,1.464l-6.938,-0.721l-7.234,-0.635l-6.586,-1.122l-12.637,0.53l-49.28,-0.178l-69.072,-0.396l-66.857,-0.17l-48.617,-0.12l-43.158,0.355l-34.269,1.618l-51.498,1.178l-56.319,0.606l-46.104,-0.847l-31.778,0.473l-16.523,-0.208l-6.456,-0.508l-4.13,-0.835l-2.403,-2.204l-1.64,-2.788l-6.176,-1.16l-6.956,-1.021l-6.044,-3.149l-6.16,-5.172l-6.879,-16.586l-4.071,-9.131l-4.938,-10.834l-6.06,-9.652l-6.4,-11.5l-4.719,-8.422l-7.077,-10.571l-5.329,-11.752l-8.113,-15.298l-8.535,-15.109l-7.643,-14.893l-7.688,-15.432l-11.289,-20.298l-9.48,-14.735l-8.667,-16.934l-9.262,-17.588l-5.116,-12.628l-9.301,-17.705l-4.191,-10.659l-12.247,-26.283l-6.069,-16.776l-8.397,-16.567l-14.288,-33.616l-9.162,-21.025l-12.094,-24.049l-8.615,-22.115l-10.352,-21.867l-8.446,-17.756l-9.786,-19.868l-8.838,-17.264l-8.742,-16.608l-2.5,-4.412l-0.635,-2.519l-0.261,-8.837l0.661,-10.754l-0.109,-18.126l1.725,-24.087l1.176,-19.876l0.145,-18.174l0.087,-18.104l0.522,-24.744l0.575,-15.877l-0.343,-14.312l2.44,-11.729l3.262,-16.303l3.363,-16.729l2.98,-13.909l2.909,-14.751l1.877,-13.116l3.458,-18.162l4.215,-25.786l1.697,-12.276l2.711,-14.62l1.201,-17.807l1.031,-14.611l1.892,-9.03l1.733,-10.35l3.042,-34.595l0.853,-14.77l2.703,-26.513l2.027,-20.418l1.707,-11.153l2.863,-15.288l2.751,-6.443Z"/></g></svg>